<svg width="491" height="79" viewBox="0 0 491 79" fill="none" xmlns="http://www.w3.org/2000/svg">
<rect x="8" y="8.74707" width="480" height="66.4871" rx="33.2436" fill="black"/>
<path d="M41.2435 11.7471H454.756V5.74707H41.2435V11.7471ZM454.756 72.2342H41.2435V78.2342H454.756V72.2342ZM41.2435 72.2342C24.5405 72.2342 11 58.6937 11 41.9906H5C5 62.0074 21.2268 78.2342 41.2435 78.2342V72.2342ZM485 41.9906C485 58.6937 471.46 72.2342 454.756 72.2342V78.2342C474.773 78.2342 491 62.0074 491 41.9906H485ZM454.756 11.7471C471.46 11.7471 485 25.2876 485 41.9906H491C491 21.9739 474.773 5.74707 454.756 5.74707V11.7471ZM41.2435 5.74707C21.2268 5.74707 5 21.9739 5 41.9906H11C11 25.2876 24.5405 11.7471 41.2435 11.7471V5.74707Z" fill="black"/>
<rect x="3" y="3" width="480" height="66.4871" rx="33.2436" fill="white"/>
<path d="M176.077 26.8502V39.4022C176.077 39.9302 176.045 40.4182 175.981 40.8662C175.933 41.3142 175.845 41.6982 175.717 42.0182C175.509 42.5302 175.221 43.0022 174.853 43.4342C174.501 43.8502 174.085 44.2102 173.605 44.5142C173.125 44.8022 172.589 45.0262 171.997 45.1862C171.421 45.3622 170.813 45.4502 170.173 45.4502C168.237 45.4502 166.661 44.5622 165.445 42.7862L168.517 39.6422C168.597 40.1862 168.773 40.6182 169.045 40.9382C169.317 41.2582 169.653 41.4182 170.053 41.4182C170.933 41.4182 171.373 40.7222 171.373 39.3302V26.8502H176.077ZM183.596 38.7302C183.596 39.1462 183.668 39.5302 183.812 39.8822C183.972 40.2182 184.172 40.5142 184.412 40.7702C184.668 41.0262 184.964 41.2262 185.3 41.3702C185.652 41.5142 186.02 41.5862 186.404 41.5862C186.788 41.5862 187.148 41.5142 187.484 41.3702C187.836 41.2262 188.132 41.0262 188.372 40.7702C188.628 40.5142 188.828 40.2182 188.972 39.8822C189.132 39.5302 189.212 39.1542 189.212 38.7542C189.212 38.3702 189.132 38.0102 188.972 37.6742C188.828 37.3222 188.628 37.0182 188.372 36.7622C188.132 36.5062 187.836 36.3062 187.484 36.1622C187.148 36.0182 186.788 35.9462 186.404 35.9462C186.02 35.9462 185.652 36.0182 185.3 36.1622C184.964 36.3062 184.668 36.5062 184.412 36.7622C184.172 37.0182 183.972 37.3142 183.812 37.6502C183.668 37.9862 183.596 38.3462 183.596 38.7302ZM179.012 38.6822C179.012 37.7702 179.196 36.9222 179.564 36.1382C179.932 35.3382 180.444 34.6502 181.1 34.0742C181.756 33.4822 182.532 33.0182 183.428 32.6822C184.34 32.3462 185.332 32.1782 186.404 32.1782C187.46 32.1782 188.436 32.3462 189.332 32.6822C190.244 33.0022 191.028 33.4582 191.684 34.0502C192.356 34.6262 192.876 35.3222 193.244 36.1382C193.612 36.9382 193.796 37.8262 193.796 38.8022C193.796 39.7782 193.604 40.6742 193.22 41.4902C192.852 42.2902 192.34 42.9862 191.684 43.5782C191.028 44.1542 190.236 44.6022 189.308 44.9222C188.396 45.2422 187.404 45.4022 186.332 45.4022C185.276 45.4022 184.3 45.2422 183.404 44.9222C182.508 44.6022 181.732 44.1462 181.076 43.5542C180.436 42.9622 179.932 42.2582 179.564 41.4422C179.196 40.6102 179.012 39.6902 179.012 38.6822ZM200.641 32.6342V44.9462H196.297V32.6342H200.641ZM196.009 27.9062C196.009 27.5702 196.073 27.2582 196.201 26.9702C196.329 26.6662 196.505 26.4022 196.729 26.1782C196.953 25.9542 197.209 25.7782 197.497 25.6502C197.801 25.5222 198.121 25.4582 198.457 25.4582C198.793 25.4582 199.105 25.5222 199.393 25.6502C199.697 25.7782 199.961 25.9542 200.185 26.1782C200.409 26.4022 200.585 26.6662 200.713 26.9702C200.841 27.2582 200.905 27.5702 200.905 27.9062C200.905 28.2422 200.841 28.5622 200.713 28.8662C200.585 29.1542 200.409 29.4102 200.185 29.6342C199.961 29.8582 199.697 30.0342 199.393 30.1622C199.105 30.2902 198.793 30.3542 198.457 30.3542C198.121 30.3542 197.801 30.2902 197.497 30.1622C197.209 30.0342 196.953 29.8582 196.729 29.6342C196.505 29.4102 196.329 29.1542 196.201 28.8662C196.073 28.5622 196.009 28.2422 196.009 27.9062ZM203.609 32.6342H207.953V34.1942C208.545 33.4742 209.145 32.9942 209.753 32.7542C210.361 32.4982 211.073 32.3702 211.889 32.3702C212.753 32.3702 213.489 32.5142 214.097 32.8022C214.721 33.0742 215.249 33.4662 215.681 33.9782C216.033 34.3942 216.273 34.8582 216.401 35.3702C216.529 35.8822 216.593 36.4662 216.593 37.1222V44.9462H212.249V38.7302C212.249 38.1222 212.201 37.6342 212.105 37.2662C212.025 36.8822 211.873 36.5782 211.649 36.3542C211.457 36.1622 211.241 36.0262 211.001 35.9462C210.761 35.8662 210.505 35.8262 210.233 35.8262C209.497 35.8262 208.929 36.0502 208.529 36.4982C208.145 36.9302 207.953 37.5542 207.953 38.3702V44.9462H203.609V32.6342ZM232.815 40.9622H233.895C234.711 40.9622 235.439 40.8342 236.079 40.5782C236.719 40.3222 237.255 39.9702 237.687 39.5222C238.135 39.0742 238.471 38.5462 238.695 37.9382C238.935 37.3142 239.055 36.6342 239.055 35.8982C239.055 35.1782 238.935 34.5062 238.695 33.8822C238.455 33.2582 238.111 32.7222 237.663 32.2742C237.231 31.8262 236.695 31.4742 236.055 31.2182C235.415 30.9622 234.695 30.8342 233.895 30.8342H232.815V40.9622ZM228.111 26.8502H235.071C236.303 26.8502 237.455 27.0982 238.527 27.5942C239.615 28.0902 240.559 28.7542 241.359 29.5862C242.175 30.4022 242.815 31.3622 243.279 32.4662C243.743 33.5542 243.975 34.6982 243.975 35.8982C243.975 37.0822 243.743 38.2262 243.279 39.3302C242.831 40.4182 242.199 41.3782 241.383 42.2102C240.583 43.0422 239.639 43.7062 238.551 44.2022C237.479 44.6982 236.319 44.9462 235.071 44.9462H228.111V26.8502ZM250.914 32.6342V44.9462H246.57V32.6342H250.914ZM246.282 27.9062C246.282 27.5702 246.346 27.2582 246.474 26.9702C246.602 26.6662 246.778 26.4022 247.002 26.1782C247.226 25.9542 247.482 25.7782 247.77 25.6502C248.074 25.5222 248.394 25.4582 248.73 25.4582C249.066 25.4582 249.378 25.5222 249.666 25.6502C249.97 25.7782 250.234 25.9542 250.458 26.1782C250.682 26.4022 250.858 26.6662 250.986 26.9702C251.114 27.2582 251.178 27.5702 251.178 27.9062C251.178 28.2422 251.114 28.5622 250.986 28.8662C250.858 29.1542 250.682 29.4102 250.458 29.6342C250.234 29.8582 249.97 30.0342 249.666 30.1622C249.378 30.2902 249.066 30.3542 248.73 30.3542C248.394 30.3542 248.074 30.2902 247.77 30.1622C247.482 30.0342 247.226 29.8582 247.002 29.6342C246.778 29.4102 246.602 29.1542 246.474 28.8662C246.346 28.5622 246.282 28.2422 246.282 27.9062ZM262.043 35.8022C261.243 35.3862 260.459 35.1782 259.691 35.1782C259.291 35.1782 258.963 35.2582 258.707 35.4182C258.467 35.5782 258.347 35.7942 258.347 36.0662C258.347 36.2102 258.363 36.3302 258.395 36.4262C258.443 36.5062 258.531 36.5862 258.659 36.6662C258.803 36.7462 259.003 36.8182 259.259 36.8822C259.531 36.9462 259.883 37.0262 260.315 37.1222C261.515 37.3622 262.411 37.7942 263.003 38.4182C263.595 39.0262 263.891 39.8102 263.891 40.7702C263.891 41.4902 263.747 42.1382 263.459 42.7142C263.171 43.2902 262.771 43.7782 262.259 44.1782C261.747 44.5622 261.131 44.8582 260.411 45.0662C259.691 45.2902 258.899 45.4022 258.035 45.4022C256.371 45.4022 254.731 44.9302 253.115 43.9862L254.699 40.9142C255.915 41.7462 257.067 42.1622 258.155 42.1622C258.555 42.1622 258.883 42.0742 259.139 41.8982C259.395 41.7222 259.523 41.4982 259.523 41.2262C259.523 41.0662 259.499 40.9382 259.451 40.8422C259.419 40.7302 259.339 40.6342 259.211 40.5542C259.083 40.4582 258.891 40.3782 258.635 40.3142C258.395 40.2342 258.075 40.1542 257.675 40.0742C256.331 39.8022 255.387 39.4022 254.843 38.8742C254.315 38.3302 254.051 37.5862 254.051 36.6422C254.051 35.9542 254.179 35.3382 254.435 34.7942C254.691 34.2342 255.059 33.7622 255.539 33.3782C256.019 32.9942 256.595 32.6982 257.267 32.4902C257.955 32.2822 258.715 32.1782 259.547 32.1782C260.907 32.1782 262.227 32.4422 263.507 32.9702L262.043 35.8022ZM275.381 36.6182C274.629 36.1062 273.869 35.8502 273.101 35.8502C272.685 35.8502 272.293 35.9222 271.925 36.0662C271.573 36.2102 271.261 36.4182 270.989 36.6902C270.717 36.9462 270.501 37.2582 270.341 37.6262C270.197 37.9782 270.125 38.3782 270.125 38.8262C270.125 39.2582 270.197 39.6582 270.341 40.0262C270.501 40.3782 270.709 40.6902 270.965 40.9622C271.237 41.2182 271.557 41.4182 271.925 41.5622C272.293 41.7062 272.685 41.7782 273.101 41.7782C273.917 41.7782 274.677 41.4982 275.381 40.9382V44.6342C274.309 45.0982 273.293 45.3302 272.333 45.3302C271.437 45.3302 270.581 45.1782 269.765 44.8742C268.965 44.5702 268.253 44.1382 267.629 43.5782C267.021 43.0022 266.533 42.3222 266.165 41.5382C265.797 40.7382 265.613 39.8502 265.613 38.8742C265.613 37.8982 265.789 37.0102 266.141 36.2102C266.493 35.3942 266.973 34.6982 267.581 34.1222C268.189 33.5302 268.909 33.0742 269.741 32.7542C270.589 32.4182 271.493 32.2502 272.453 32.2502C273.509 32.2502 274.485 32.4742 275.381 32.9222V36.6182ZM281.963 38.7302C281.963 39.1462 282.035 39.5302 282.179 39.8822C282.339 40.2182 282.539 40.5142 282.779 40.7702C283.035 41.0262 283.331 41.2262 283.667 41.3702C284.019 41.5142 284.387 41.5862 284.771 41.5862C285.155 41.5862 285.515 41.5142 285.851 41.3702C286.203 41.2262 286.499 41.0262 286.739 40.7702C286.995 40.5142 287.195 40.2182 287.339 39.8822C287.499 39.5302 287.579 39.1542 287.579 38.7542C287.579 38.3702 287.499 38.0102 287.339 37.6742C287.195 37.3222 286.995 37.0182 286.739 36.7622C286.499 36.5062 286.203 36.3062 285.851 36.1622C285.515 36.0182 285.155 35.9462 284.771 35.9462C284.387 35.9462 284.019 36.0182 283.667 36.1622C283.331 36.3062 283.035 36.5062 282.779 36.7622C282.539 37.0182 282.339 37.3142 282.179 37.6502C282.035 37.9862 281.963 38.3462 281.963 38.7302ZM277.379 38.6822C277.379 37.7702 277.563 36.9222 277.931 36.1382C278.299 35.3382 278.811 34.6502 279.467 34.0742C280.123 33.4822 280.899 33.0182 281.795 32.6822C282.707 32.3462 283.699 32.1782 284.771 32.1782C285.827 32.1782 286.803 32.3462 287.699 32.6822C288.611 33.0022 289.395 33.4582 290.051 34.0502C290.723 34.6262 291.243 35.3222 291.611 36.1382C291.979 36.9382 292.163 37.8262 292.163 38.8022C292.163 39.7782 291.971 40.6742 291.587 41.4902C291.219 42.2902 290.707 42.9862 290.051 43.5782C289.395 44.1542 288.603 44.6022 287.675 44.9222C286.763 45.2422 285.771 45.4022 284.699 45.4022C283.643 45.4022 282.667 45.2422 281.771 44.9222C280.875 44.6022 280.099 44.1462 279.443 43.5542C278.803 42.9622 278.299 42.2582 277.931 41.4422C277.563 40.6102 277.379 39.6902 277.379 38.6822ZM294.664 32.6342H299.008V34.6502C299.472 33.9142 300.04 33.3542 300.712 32.9702C301.384 32.5702 302.168 32.3702 303.064 32.3702C303.176 32.3702 303.296 32.3702 303.424 32.3702C303.568 32.3702 303.728 32.3862 303.904 32.4182V36.5702C303.328 36.2822 302.704 36.1382 302.032 36.1382C301.024 36.1382 300.264 36.4422 299.752 37.0502C299.256 37.6422 299.008 38.5142 299.008 39.6662V44.9462H294.664V32.6342ZM310.016 38.7542C310.016 39.1542 310.088 39.5302 310.232 39.8822C310.376 40.2182 310.568 40.5142 310.808 40.7702C311.064 41.0262 311.36 41.2262 311.696 41.3702C312.048 41.5142 312.424 41.5862 312.824 41.5862C313.208 41.5862 313.568 41.5142 313.904 41.3702C314.256 41.2262 314.552 41.0262 314.792 40.7702C315.048 40.5142 315.248 40.2182 315.392 39.8822C315.552 39.5462 315.632 39.1862 315.632 38.8022C315.632 38.4182 315.552 38.0582 315.392 37.7222C315.248 37.3702 315.048 37.0662 314.792 36.8102C314.552 36.5542 314.256 36.3542 313.904 36.2102C313.568 36.0662 313.208 35.9942 312.824 35.9942C312.44 35.9942 312.072 36.0662 311.72 36.2102C311.384 36.3542 311.088 36.5542 310.832 36.8102C310.592 37.0662 310.392 37.3622 310.232 37.6982C310.088 38.0182 310.016 38.3702 310.016 38.7542ZM315.488 25.0262H319.856V44.9462H315.488V43.5782C314.56 44.7462 313.304 45.3302 311.72 45.3302C310.824 45.3302 310 45.1622 309.248 44.8262C308.496 44.4902 307.84 44.0262 307.28 43.4342C306.72 42.8422 306.28 42.1462 305.96 41.3462C305.656 40.5462 305.504 39.6822 305.504 38.7542C305.504 37.8742 305.648 37.0422 305.936 36.2582C306.24 35.4582 306.664 34.7622 307.208 34.1702C307.752 33.5782 308.4 33.1142 309.152 32.7782C309.92 32.4262 310.76 32.2502 311.672 32.2502C313.208 32.2502 314.48 32.7862 315.488 33.8582V25.0262Z" fill="black"/>
<path d="M36.2435 6H449.756V0H36.2435V6ZM449.756 66.4871H36.2435V72.4871H449.756V66.4871ZM36.2435 66.4871C19.5405 66.4871 6 52.9466 6 36.2436H0C0 56.2603 16.2268 72.4871 36.2435 72.4871V66.4871ZM480 36.2436C480 52.9466 466.46 66.4871 449.756 66.4871V72.4871C469.773 72.4871 486 56.2603 486 36.2436H480ZM449.756 6C466.46 6 480 19.5405 480 36.2436H486C486 16.2268 469.773 0 449.756 0V6ZM36.2435 0C16.2268 0 0 16.2268 0 36.2436H6C6 19.5405 19.5405 6 36.2435 6V0Z" fill="black"/>
</svg>
