<svg width="491" height="80" viewBox="0 0 491 80" fill="none" xmlns="http://www.w3.org/2000/svg">
<rect x="8" y="8.84253" width="480" height="67.5924" rx="33.7962" fill="black"/>
<path d="M41.7962 11.8425H454.204V5.84253H41.7962V11.8425ZM454.204 73.4349H41.7962V79.4349H454.204V73.4349ZM41.7962 73.4349C24.7879 73.4349 11 59.647 11 42.6387H5C5 62.9607 21.4742 79.4349 41.7962 79.4349V73.4349ZM485 42.6387C485 59.647 471.212 73.4349 454.204 73.4349V79.4349C474.526 79.4349 491 62.9607 491 42.6387H485ZM454.204 11.8425C471.212 11.8425 485 25.6305 485 42.6387H491C491 22.3168 474.526 5.84253 454.204 5.84253V11.8425ZM41.7962 5.84253C21.4742 5.84253 5 22.3168 5 42.6387H11C11 25.6305 24.7879 11.8425 41.7962 11.8425V5.84253Z" fill="black"/>
<rect x="3" y="3" width="480" height="67.5924" rx="33.7962" fill="white"/>
<path d="M167.827 27.1817V39.7337C167.827 40.2617 167.795 40.7497 167.731 41.1977C167.683 41.6457 167.595 42.0297 167.467 42.3497C167.259 42.8617 166.971 43.3337 166.603 43.7657C166.251 44.1817 165.835 44.5417 165.355 44.8457C164.875 45.1337 164.339 45.3577 163.747 45.5177C163.171 45.6937 162.563 45.7817 161.923 45.7817C159.987 45.7817 158.411 44.8937 157.195 43.1177L160.267 39.9737C160.347 40.5177 160.523 40.9497 160.795 41.2697C161.067 41.5897 161.403 41.7497 161.803 41.7497C162.683 41.7497 163.123 41.0537 163.123 39.6617V27.1817H167.827ZM175.346 39.0617C175.346 39.4777 175.418 39.8617 175.562 40.2137C175.722 40.5497 175.922 40.8457 176.162 41.1017C176.418 41.3577 176.714 41.5577 177.05 41.7017C177.402 41.8457 177.77 41.9177 178.154 41.9177C178.538 41.9177 178.898 41.8457 179.234 41.7017C179.586 41.5577 179.882 41.3577 180.122 41.1017C180.378 40.8457 180.578 40.5497 180.722 40.2137C180.882 39.8617 180.962 39.4857 180.962 39.0857C180.962 38.7017 180.882 38.3417 180.722 38.0057C180.578 37.6537 180.378 37.3497 180.122 37.0937C179.882 36.8377 179.586 36.6377 179.234 36.4937C178.898 36.3497 178.538 36.2777 178.154 36.2777C177.77 36.2777 177.402 36.3497 177.05 36.4937C176.714 36.6377 176.418 36.8377 176.162 37.0937C175.922 37.3497 175.722 37.6457 175.562 37.9817C175.418 38.3177 175.346 38.6777 175.346 39.0617ZM170.762 39.0137C170.762 38.1017 170.946 37.2537 171.314 36.4697C171.682 35.6697 172.194 34.9817 172.85 34.4057C173.506 33.8137 174.282 33.3497 175.178 33.0137C176.09 32.6777 177.082 32.5097 178.154 32.5097C179.21 32.5097 180.186 32.6777 181.082 33.0137C181.994 33.3337 182.778 33.7897 183.434 34.3817C184.106 34.9577 184.626 35.6537 184.994 36.4697C185.362 37.2697 185.546 38.1577 185.546 39.1337C185.546 40.1097 185.354 41.0057 184.97 41.8217C184.602 42.6217 184.09 43.3177 183.434 43.9097C182.778 44.4857 181.986 44.9337 181.058 45.2537C180.146 45.5737 179.154 45.7337 178.082 45.7337C177.026 45.7337 176.05 45.5737 175.154 45.2537C174.258 44.9337 173.482 44.4777 172.826 43.8857C172.186 43.2937 171.682 42.5897 171.314 41.7737C170.946 40.9417 170.762 40.0217 170.762 39.0137ZM192.391 32.9657V45.2777H188.047V32.9657H192.391ZM187.759 28.2377C187.759 27.9017 187.823 27.5897 187.951 27.3017C188.079 26.9977 188.255 26.7337 188.479 26.5097C188.703 26.2857 188.959 26.1097 189.247 25.9817C189.551 25.8537 189.871 25.7897 190.207 25.7897C190.543 25.7897 190.855 25.8537 191.143 25.9817C191.447 26.1097 191.711 26.2857 191.935 26.5097C192.159 26.7337 192.335 26.9977 192.463 27.3017C192.591 27.5897 192.655 27.9017 192.655 28.2377C192.655 28.5737 192.591 28.8937 192.463 29.1977C192.335 29.4857 192.159 29.7417 191.935 29.9657C191.711 30.1897 191.447 30.3657 191.143 30.4937C190.855 30.6217 190.543 30.6857 190.207 30.6857C189.871 30.6857 189.551 30.6217 189.247 30.4937C188.959 30.3657 188.703 30.1897 188.479 29.9657C188.255 29.7417 188.079 29.4857 187.951 29.1977C187.823 28.8937 187.759 28.5737 187.759 28.2377ZM195.359 32.9657H199.703V34.5257C200.295 33.8057 200.895 33.3257 201.503 33.0857C202.111 32.8297 202.823 32.7017 203.639 32.7017C204.503 32.7017 205.239 32.8457 205.847 33.1337C206.471 33.4057 206.999 33.7977 207.431 34.3097C207.783 34.7257 208.023 35.1897 208.151 35.7017C208.279 36.2137 208.343 36.7977 208.343 37.4537V45.2777H203.999V39.0617C203.999 38.4537 203.951 37.9657 203.855 37.5977C203.775 37.2137 203.623 36.9097 203.399 36.6857C203.207 36.4937 202.991 36.3577 202.751 36.2777C202.511 36.1977 202.255 36.1577 201.983 36.1577C201.247 36.1577 200.679 36.3817 200.279 36.8297C199.895 37.2617 199.703 37.8857 199.703 38.7017V45.2777H195.359V32.9657ZM222.885 27.1817L226.005 38.8697L229.845 27.1817H233.589L237.429 38.8697L240.549 27.1817H245.469L240.069 45.2777H235.269L231.717 34.7897L228.165 45.2777H223.365L217.965 27.1817H222.885ZM246.968 25.3577H251.312V34.5257C251.904 33.8057 252.504 33.3257 253.112 33.0857C253.72 32.8297 254.432 32.7017 255.248 32.7017C256.8 32.7017 257.968 33.1337 258.752 33.9977C259.552 34.8457 259.952 35.9977 259.952 37.4537V45.2777H255.608V39.0617C255.608 38.4377 255.56 37.9337 255.464 37.5497C255.368 37.1657 255.208 36.8697 254.984 36.6617C254.6 36.3257 254.136 36.1577 253.592 36.1577C252.856 36.1577 252.288 36.3817 251.888 36.8297C251.504 37.2617 251.312 37.8857 251.312 38.7017V45.2777H246.968V25.3577ZM267.25 32.9657V45.2777H262.906V32.9657H267.25ZM262.618 28.2377C262.618 27.9017 262.682 27.5897 262.81 27.3017C262.938 26.9977 263.114 26.7337 263.338 26.5097C263.562 26.2857 263.818 26.1097 264.106 25.9817C264.41 25.8537 264.73 25.7897 265.066 25.7897C265.402 25.7897 265.714 25.8537 266.002 25.9817C266.306 26.1097 266.57 26.2857 266.794 26.5097C267.018 26.7337 267.194 26.9977 267.322 27.3017C267.45 27.5897 267.514 27.9017 267.514 28.2377C267.514 28.5737 267.45 28.8937 267.322 29.1977C267.194 29.4857 267.018 29.7417 266.794 29.9657C266.57 30.1897 266.306 30.3657 266.002 30.4937C265.714 30.6217 265.402 30.6857 265.066 30.6857C264.73 30.6857 264.41 30.6217 264.106 30.4937C263.818 30.3657 263.562 30.1897 263.338 29.9657C263.114 29.7417 262.938 29.4857 262.81 29.1977C262.682 28.8937 262.618 28.5737 262.618 28.2377ZM275.066 36.5897V45.2777H270.722V36.5897H269.282V32.9657H270.722V29.2697H275.066V32.9657H277.538V36.5897H275.066ZM288.406 37.3337C288.262 36.7257 287.966 36.2377 287.518 35.8697C287.07 35.5017 286.526 35.3177 285.886 35.3177C285.214 35.3177 284.662 35.4937 284.23 35.8457C283.814 36.1977 283.55 36.6937 283.438 37.3337H288.406ZM283.318 39.8537C283.318 41.7257 284.198 42.6617 285.958 42.6617C286.902 42.6617 287.614 42.2777 288.094 41.5097H292.294C291.446 44.3257 289.326 45.7337 285.934 45.7337C284.894 45.7337 283.942 45.5817 283.078 45.2777C282.214 44.9577 281.47 44.5097 280.846 43.9337C280.238 43.3577 279.766 42.6697 279.43 41.8697C279.094 41.0697 278.926 40.1737 278.926 39.1817C278.926 38.1577 279.086 37.2377 279.406 36.4217C279.726 35.5897 280.182 34.8857 280.774 34.3097C281.366 33.7337 282.078 33.2937 282.91 32.9897C283.758 32.6697 284.71 32.5097 285.766 32.5097C286.806 32.5097 287.742 32.6697 288.574 32.9897C289.406 33.2937 290.11 33.7417 290.686 34.3337C291.262 34.9257 291.702 35.6537 292.006 36.5177C292.31 37.3657 292.462 38.3257 292.462 39.3977V39.8537H283.318ZM299.289 25.3577V45.2777H294.945V25.3577H299.289ZM306.602 32.9657V45.2777H302.258V32.9657H306.602ZM301.97 28.2377C301.97 27.9017 302.034 27.5897 302.162 27.3017C302.29 26.9977 302.466 26.7337 302.69 26.5097C302.914 26.2857 303.17 26.1097 303.458 25.9817C303.762 25.8537 304.082 25.7897 304.418 25.7897C304.754 25.7897 305.066 25.8537 305.354 25.9817C305.658 26.1097 305.922 26.2857 306.146 26.5097C306.37 26.7337 306.546 26.9977 306.674 27.3017C306.802 27.5897 306.866 27.9017 306.866 28.2377C306.866 28.5737 306.802 28.8937 306.674 29.1977C306.546 29.4857 306.37 29.7417 306.146 29.9657C305.922 30.1897 305.658 30.3657 305.354 30.4937C305.066 30.6217 304.754 30.6857 304.418 30.6857C304.082 30.6857 303.762 30.6217 303.458 30.4937C303.17 30.3657 302.914 30.1897 302.69 29.9657C302.466 29.7417 302.29 29.4857 302.162 29.1977C302.034 28.8937 301.97 28.5737 301.97 28.2377ZM317.73 36.1337C316.93 35.7177 316.146 35.5097 315.378 35.5097C314.978 35.5097 314.65 35.5897 314.394 35.7497C314.154 35.9097 314.034 36.1257 314.034 36.3977C314.034 36.5417 314.05 36.6617 314.082 36.7577C314.13 36.8377 314.218 36.9177 314.346 36.9977C314.49 37.0777 314.69 37.1497 314.946 37.2137C315.218 37.2777 315.57 37.3577 316.002 37.4537C317.202 37.6937 318.098 38.1257 318.69 38.7497C319.282 39.3577 319.578 40.1417 319.578 41.1017C319.578 41.8217 319.434 42.4697 319.146 43.0457C318.858 43.6217 318.458 44.1097 317.946 44.5097C317.434 44.8937 316.818 45.1897 316.098 45.3977C315.378 45.6217 314.586 45.7337 313.722 45.7337C312.058 45.7337 310.418 45.2617 308.802 44.3177L310.386 41.2457C311.602 42.0777 312.754 42.4937 313.842 42.4937C314.242 42.4937 314.57 42.4057 314.826 42.2297C315.082 42.0537 315.21 41.8297 315.21 41.5577C315.21 41.3977 315.186 41.2697 315.138 41.1737C315.106 41.0617 315.026 40.9657 314.898 40.8857C314.77 40.7897 314.578 40.7097 314.322 40.6457C314.082 40.5657 313.762 40.4857 313.362 40.4057C312.018 40.1337 311.074 39.7337 310.53 39.2057C310.002 38.6617 309.738 37.9177 309.738 36.9737C309.738 36.2857 309.866 35.6697 310.122 35.1257C310.378 34.5657 310.746 34.0937 311.226 33.7097C311.706 33.3257 312.282 33.0297 312.954 32.8217C313.642 32.6137 314.402 32.5097 315.234 32.5097C316.594 32.5097 317.914 32.7737 319.194 33.3017L317.73 36.1337ZM326.957 36.5897V45.2777H322.613V36.5897H321.173V32.9657H322.613V29.2697H326.957V32.9657H329.429V36.5897H326.957Z" fill="black"/>
<path d="M36.7962 6H449.204V0H36.7962V6ZM449.204 67.5924H36.7962V73.5924H449.204V67.5924ZM36.7962 67.5924C19.7879 67.5924 6 53.8045 6 36.7962H0C0 57.1182 16.4742 73.5924 36.7962 73.5924V67.5924ZM480 36.7962C480 53.8045 466.212 67.5924 449.204 67.5924V73.5924C469.526 73.5924 486 57.1182 486 36.7962H480ZM449.204 6C466.212 6 480 19.7879 480 36.7962H486C486 16.4742 469.526 0 449.204 0V6ZM36.7962 0C16.4742 0 0 16.4742 0 36.7962H6C6 19.7879 19.7879 6 36.7962 6V0Z" fill="black"/>
</svg>
