<svg width="268" height="49" viewBox="0 0 268 49" fill="none" xmlns="http://www.w3.org/2000/svg">
<rect x="7" y="7" width="258" height="39" rx="19.5" fill="black"/>
<path d="M26.5 10H245.5V4H26.5V10ZM245.5 43H26.5V49H245.5V43ZM26.5 43C17.3873 43 10 35.6127 10 26.5H4C4 38.9264 14.0736 49 26.5 49V43ZM262 26.5C262 35.6127 254.613 43 245.5 43V49C257.926 49 268 38.9264 268 26.5H262ZM245.5 10C254.613 10 262 17.3873 262 26.5H268C268 14.0736 257.926 4 245.5 4V10ZM26.5 4C14.0736 4 4 14.0736 4 26.5H10C10 17.3873 17.3873 10 26.5 10V4Z" fill="black"/>
<rect x="3" y="3" width="258" height="39" rx="19.5" fill="white"/>
<path d="M81.8128 16.128V26.712H86.0428V29.7H78.2848V16.128H81.8128ZM94.3089 23.742C94.2009 23.286 93.9789 22.92 93.6429 22.644C93.3069 22.368 92.8989 22.23 92.4189 22.23C91.9149 22.23 91.5009 22.362 91.1769 22.626C90.8649 22.89 90.6669 23.262 90.5829 23.742H94.3089ZM90.4929 25.632C90.4929 27.036 91.1529 27.738 92.4729 27.738C93.1809 27.738 93.7149 27.45 94.0749 26.874H97.2249C96.5889 28.986 94.9989 30.042 92.4549 30.042C91.6749 30.042 90.9609 29.928 90.3129 29.7C89.6649 29.46 89.1069 29.124 88.6389 28.692C88.1829 28.26 87.8289 27.744 87.5769 27.144C87.3249 26.544 87.1989 25.872 87.1989 25.128C87.1989 24.36 87.3189 23.67 87.5589 23.058C87.7989 22.434 88.1409 21.906 88.5849 21.474C89.0289 21.042 89.5629 20.712 90.1869 20.484C90.8229 20.244 91.5369 20.124 92.3289 20.124C93.1089 20.124 93.8109 20.244 94.4349 20.484C95.0589 20.712 95.5869 21.048 96.0189 21.492C96.4509 21.936 96.7809 22.482 97.0089 23.13C97.2369 23.766 97.3509 24.486 97.3509 25.29V25.632H90.4929ZM102.237 25.056C102.237 25.356 102.291 25.638 102.399 25.902C102.507 26.154 102.651 26.376 102.831 26.568C103.023 26.76 103.245 26.91 103.497 27.018C103.761 27.126 104.043 27.18 104.343 27.18C104.631 27.18 104.901 27.126 105.153 27.018C105.417 26.91 105.639 26.76 105.819 26.568C106.011 26.376 106.161 26.154 106.269 25.902C106.389 25.65 106.449 25.38 106.449 25.092C106.449 24.804 106.389 24.534 106.269 24.282C106.161 24.018 106.011 23.79 105.819 23.598C105.639 23.406 105.417 23.256 105.153 23.148C104.901 23.04 104.631 22.986 104.343 22.986C104.043 22.986 103.761 23.04 103.497 23.148C103.245 23.256 103.023 23.406 102.831 23.598C102.651 23.79 102.507 24.012 102.399 24.264C102.291 24.504 102.237 24.768 102.237 25.056ZM106.341 20.466H109.617V29.7H106.341V28.674C105.645 29.55 104.703 29.988 103.515 29.988C102.843 29.988 102.225 29.868 101.661 29.628C101.097 29.376 100.605 29.028 100.185 28.584C99.7652 28.14 99.4352 27.618 99.1952 27.018C98.9672 26.418 98.8532 25.764 98.8532 25.056C98.8532 24.396 98.9672 23.772 99.1952 23.184C99.4232 22.584 99.7412 22.062 100.149 21.618C100.557 21.174 101.043 20.826 101.607 20.574C102.171 20.31 102.795 20.178 103.479 20.178C104.631 20.178 105.585 20.58 106.341 21.384V20.466ZM111.834 20.466H115.092V21.978C115.44 21.426 115.866 21.006 116.37 20.718C116.874 20.418 117.462 20.268 118.134 20.268C118.218 20.268 118.308 20.268 118.404 20.268C118.512 20.268 118.632 20.28 118.764 20.304V23.418C118.332 23.202 117.864 23.094 117.36 23.094C116.604 23.094 116.034 23.322 115.65 23.778C115.278 24.222 115.092 24.876 115.092 25.74V29.7H111.834V20.466ZM120.219 20.466H123.477V21.636C123.921 21.096 124.371 20.736 124.827 20.556C125.283 20.364 125.817 20.268 126.429 20.268C127.077 20.268 127.629 20.376 128.085 20.592C128.553 20.796 128.949 21.09 129.273 21.474C129.537 21.786 129.717 22.134 129.813 22.518C129.909 22.902 129.957 23.34 129.957 23.832V29.7H126.699V25.038C126.699 24.582 126.663 24.216 126.591 23.94C126.531 23.652 126.417 23.424 126.249 23.256C126.105 23.112 125.943 23.01 125.763 22.95C125.583 22.89 125.391 22.86 125.187 22.86C124.635 22.86 124.209 23.028 123.909 23.364C123.621 23.688 123.477 24.156 123.477 24.768V29.7H120.219V20.466ZM138.289 20.466H141.547V21.6C142.435 20.748 143.431 20.322 144.535 20.322C145.903 20.322 146.947 20.898 147.667 22.05C148.399 20.886 149.443 20.304 150.799 20.304C151.231 20.304 151.639 20.37 152.023 20.502C152.407 20.622 152.737 20.82 153.013 21.096C153.289 21.36 153.505 21.708 153.661 22.14C153.829 22.572 153.913 23.094 153.913 23.706V29.7H150.655V25.146C150.655 24.678 150.619 24.294 150.547 23.994C150.487 23.694 150.391 23.46 150.259 23.292C150.139 23.124 149.995 23.01 149.827 22.95C149.659 22.89 149.479 22.86 149.287 22.86C148.243 22.86 147.721 23.622 147.721 25.146V29.7H144.463V25.146C144.463 24.678 144.433 24.294 144.373 23.994C144.313 23.682 144.223 23.436 144.103 23.256C143.995 23.076 143.851 22.956 143.671 22.896C143.491 22.824 143.281 22.788 143.041 22.788C142.837 22.788 142.645 22.818 142.465 22.878C142.285 22.938 142.123 23.058 141.979 23.238C141.847 23.406 141.739 23.646 141.655 23.958C141.583 24.258 141.547 24.654 141.547 25.146V29.7H138.289V20.466ZM159.227 25.038C159.227 25.35 159.281 25.638 159.389 25.902C159.509 26.154 159.659 26.376 159.839 26.568C160.031 26.76 160.253 26.91 160.505 27.018C160.769 27.126 161.045 27.18 161.333 27.18C161.621 27.18 161.891 27.126 162.143 27.018C162.407 26.91 162.629 26.76 162.809 26.568C163.001 26.376 163.151 26.154 163.259 25.902C163.379 25.638 163.439 25.356 163.439 25.056C163.439 24.768 163.379 24.498 163.259 24.246C163.151 23.982 163.001 23.754 162.809 23.562C162.629 23.37 162.407 23.22 162.143 23.112C161.891 23.004 161.621 22.95 161.333 22.95C161.045 22.95 160.769 23.004 160.505 23.112C160.253 23.22 160.031 23.37 159.839 23.562C159.659 23.754 159.509 23.976 159.389 24.228C159.281 24.48 159.227 24.75 159.227 25.038ZM155.789 25.002C155.789 24.318 155.927 23.682 156.203 23.094C156.479 22.494 156.863 21.978 157.355 21.546C157.847 21.102 158.429 20.754 159.101 20.502C159.785 20.25 160.529 20.124 161.333 20.124C162.125 20.124 162.857 20.25 163.529 20.502C164.213 20.742 164.801 21.084 165.293 21.528C165.797 21.96 166.187 22.482 166.463 23.094C166.739 23.694 166.877 24.36 166.877 25.092C166.877 25.824 166.733 26.496 166.445 27.108C166.169 27.708 165.785 28.23 165.293 28.674C164.801 29.106 164.207 29.442 163.511 29.682C162.827 29.922 162.083 30.042 161.279 30.042C160.487 30.042 159.755 29.922 159.083 29.682C158.411 29.442 157.829 29.1 157.337 28.656C156.857 28.212 156.479 27.684 156.203 27.072C155.927 26.448 155.789 25.758 155.789 25.002ZM168.752 20.466H172.01V21.978C172.358 21.426 172.784 21.006 173.288 20.718C173.792 20.418 174.38 20.268 175.052 20.268C175.136 20.268 175.226 20.268 175.322 20.268C175.43 20.268 175.55 20.28 175.682 20.304V23.418C175.25 23.202 174.782 23.094 174.278 23.094C173.522 23.094 172.952 23.322 172.568 23.778C172.196 24.222 172.01 24.876 172.01 25.74V29.7H168.752V20.466ZM183.992 23.742C183.884 23.286 183.662 22.92 183.326 22.644C182.99 22.368 182.582 22.23 182.102 22.23C181.598 22.23 181.184 22.362 180.86 22.626C180.548 22.89 180.35 23.262 180.266 23.742H183.992ZM180.176 25.632C180.176 27.036 180.836 27.738 182.156 27.738C182.864 27.738 183.398 27.45 183.758 26.874H186.908C186.272 28.986 184.682 30.042 182.138 30.042C181.358 30.042 180.644 29.928 179.996 29.7C179.348 29.46 178.79 29.124 178.322 28.692C177.866 28.26 177.512 27.744 177.26 27.144C177.008 26.544 176.882 25.872 176.882 25.128C176.882 24.36 177.002 23.67 177.242 23.058C177.482 22.434 177.824 21.906 178.268 21.474C178.712 21.042 179.246 20.712 179.87 20.484C180.506 20.244 181.22 20.124 182.012 20.124C182.792 20.124 183.494 20.244 184.118 20.484C184.742 20.712 185.27 21.048 185.702 21.492C186.134 21.936 186.464 22.482 186.692 23.13C186.92 23.766 187.034 24.486 187.034 25.29V25.632H180.176Z" fill="black"/>
<path d="M22.5 6H241.5V0H22.5V6ZM241.5 39H22.5V45H241.5V39ZM22.5 39C13.3873 39 6 31.6127 6 22.5H0C0 34.9264 10.0736 45 22.5 45V39ZM258 22.5C258 31.6127 250.613 39 241.5 39V45C253.926 45 264 34.9264 264 22.5H258ZM241.5 6C250.613 6 258 13.3873 258 22.5H264C264 10.0736 253.926 0 241.5 0V6ZM22.5 0C10.0736 0 0 10.0736 0 22.5H6C6 13.3873 13.3873 6 22.5 6V0Z" fill="black"/>
</svg>
