<svg width="263" height="35" viewBox="0 0 263 35" fill="none" xmlns="http://www.w3.org/2000/svg">
<path d="M68.196 5.964C67.38 4.968 66.372 4.47 65.172 4.47C64.644 4.47 64.152 4.566 63.696 4.758C63.252 4.95 62.868 5.214 62.544 5.55C62.22 5.874 61.962 6.264 61.77 6.72C61.59 7.176 61.5 7.668 61.5 8.196C61.5 8.736 61.59 9.234 61.77 9.69C61.962 10.146 62.22 10.542 62.544 10.878C62.88 11.214 63.27 11.478 63.714 11.67C64.158 11.862 64.638 11.958 65.154 11.958C66.282 11.958 67.296 11.478 68.196 10.518V14.694L67.836 14.82C67.296 15.012 66.792 15.15 66.324 15.234C65.856 15.33 65.394 15.378 64.938 15.378C64.002 15.378 63.102 15.204 62.238 14.856C61.386 14.496 60.63 13.998 59.97 13.362C59.322 12.714 58.8 11.952 58.404 11.076C58.008 10.188 57.81 9.222 57.81 8.178C57.81 7.134 58.002 6.18 58.386 5.316C58.782 4.44 59.304 3.69 59.952 3.066C60.612 2.43 61.374 1.938 62.238 1.59C63.102 1.23 64.008 1.05 64.956 1.05C65.496 1.05 66.024 1.11 66.54 1.23C67.068 1.338 67.62 1.512 68.196 1.752V5.964ZM73.1999 10.338C73.1999 10.65 73.2539 10.938 73.3619 11.202C73.4819 11.454 73.6319 11.676 73.8119 11.868C74.0039 12.06 74.2259 12.21 74.4779 12.318C74.7419 12.426 75.0179 12.48 75.3059 12.48C75.5939 12.48 75.8639 12.426 76.1159 12.318C76.3799 12.21 76.6019 12.06 76.7819 11.868C76.9739 11.676 77.1239 11.454 77.2319 11.202C77.3519 10.938 77.4119 10.656 77.4119 10.356C77.4119 10.068 77.3519 9.798 77.2319 9.546C77.1239 9.282 76.9739 9.054 76.7819 8.862C76.6019 8.67 76.3799 8.52 76.1159 8.412C75.8639 8.304 75.5939 8.25 75.3059 8.25C75.0179 8.25 74.7419 8.304 74.4779 8.412C74.2259 8.52 74.0039 8.67 73.8119 8.862C73.6319 9.054 73.4819 9.276 73.3619 9.528C73.2539 9.78 73.1999 10.05 73.1999 10.338ZM69.7619 10.302C69.7619 9.618 69.8999 8.982 70.1759 8.394C70.4519 7.794 70.8359 7.278 71.3279 6.846C71.8199 6.402 72.4019 6.054 73.0739 5.802C73.7579 5.55 74.5019 5.424 75.3059 5.424C76.0979 5.424 76.8299 5.55 77.5019 5.802C78.1859 6.042 78.7739 6.384 79.2659 6.828C79.7699 7.26 80.1599 7.782 80.4359 8.394C80.7119 8.994 80.8499 9.66 80.8499 10.392C80.8499 11.124 80.7059 11.796 80.4179 12.408C80.1419 13.008 79.7579 13.53 79.2659 13.974C78.7739 14.406 78.1799 14.742 77.4839 14.982C76.7999 15.222 76.0559 15.342 75.2519 15.342C74.4599 15.342 73.7279 15.222 73.0559 14.982C72.3839 14.742 71.8019 14.4 71.3099 13.956C70.8299 13.512 70.4519 12.984 70.1759 12.372C69.8999 11.748 69.7619 11.058 69.7619 10.302ZM82.7254 5.766H85.9834V6.9C86.8714 6.048 87.8674 5.622 88.9714 5.622C90.3394 5.622 91.3834 6.198 92.1034 7.35C92.8354 6.186 93.8794 5.604 95.2354 5.604C95.6674 5.604 96.0754 5.67 96.4594 5.802C96.8434 5.922 97.1734 6.12 97.4494 6.396C97.7254 6.66 97.9414 7.008 98.0974 7.44C98.2654 7.872 98.3494 8.394 98.3494 9.006V15H95.0914V10.446C95.0914 9.978 95.0554 9.594 94.9834 9.294C94.9234 8.994 94.8274 8.76 94.6954 8.592C94.5754 8.424 94.4314 8.31 94.2634 8.25C94.0954 8.19 93.9154 8.16 93.7234 8.16C92.6794 8.16 92.1574 8.922 92.1574 10.446V15H88.8994V10.446C88.8994 9.978 88.8694 9.594 88.8094 9.294C88.7494 8.982 88.6594 8.736 88.5394 8.556C88.4314 8.376 88.2874 8.256 88.1074 8.196C87.9274 8.124 87.7174 8.088 87.4774 8.088C87.2734 8.088 87.0814 8.118 86.9014 8.178C86.7214 8.238 86.5594 8.358 86.4154 8.538C86.2834 8.706 86.1754 8.946 86.0914 9.258C86.0194 9.558 85.9834 9.954 85.9834 10.446V15H82.7254V5.766ZM100.585 5.766H103.843V6.9C104.731 6.048 105.727 5.622 106.831 5.622C108.199 5.622 109.243 6.198 109.963 7.35C110.695 6.186 111.739 5.604 113.095 5.604C113.527 5.604 113.935 5.67 114.319 5.802C114.703 5.922 115.033 6.12 115.309 6.396C115.585 6.66 115.801 7.008 115.957 7.44C116.125 7.872 116.209 8.394 116.209 9.006V15H112.951V10.446C112.951 9.978 112.915 9.594 112.843 9.294C112.783 8.994 112.687 8.76 112.555 8.592C112.435 8.424 112.291 8.31 112.123 8.25C111.955 8.19 111.775 8.16 111.583 8.16C110.539 8.16 110.017 8.922 110.017 10.446V15H106.759V10.446C106.759 9.978 106.729 9.594 106.669 9.294C106.609 8.982 106.519 8.736 106.399 8.556C106.291 8.376 106.147 8.256 105.967 8.196C105.787 8.124 105.577 8.088 105.337 8.088C105.133 8.088 104.941 8.118 104.761 8.178C104.581 8.238 104.419 8.358 104.275 8.538C104.143 8.706 104.035 8.946 103.951 9.258C103.879 9.558 103.843 9.954 103.843 10.446V15H100.585V5.766ZM121.702 5.766V10.968C121.702 12.108 122.254 12.678 123.358 12.678C124.462 12.678 125.014 12.108 125.014 10.968V5.766H128.272V11.598C128.272 12.846 127.858 13.782 127.03 14.406C126.214 15.03 124.99 15.342 123.358 15.342C121.726 15.342 120.496 15.03 119.668 14.406C118.852 13.782 118.444 12.846 118.444 11.598V5.766H121.702ZM130.485 5.766H133.743V6.936C134.187 6.396 134.637 6.036 135.093 5.856C135.549 5.664 136.083 5.568 136.695 5.568C137.343 5.568 137.895 5.676 138.351 5.892C138.819 6.096 139.215 6.39 139.539 6.774C139.803 7.086 139.983 7.434 140.079 7.818C140.175 8.202 140.223 8.64 140.223 9.132V15H136.965V10.338C136.965 9.882 136.929 9.516 136.857 9.24C136.797 8.952 136.683 8.724 136.515 8.556C136.371 8.412 136.209 8.31 136.029 8.25C135.849 8.19 135.657 8.16 135.453 8.16C134.901 8.16 134.475 8.328 134.175 8.664C133.887 8.988 133.743 9.456 133.743 10.068V15H130.485V5.766ZM145.696 5.766V15H142.438V5.766H145.696ZM142.222 2.22C142.222 1.968 142.27 1.734 142.366 1.518C142.462 1.29 142.594 1.092 142.762 0.923999C142.93 0.755999 143.122 0.623999 143.338 0.528C143.566 0.431999 143.806 0.383999 144.058 0.383999C144.31 0.383999 144.544 0.431999 144.76 0.528C144.988 0.623999 145.186 0.755999 145.354 0.923999C145.522 1.092 145.654 1.29 145.75 1.518C145.846 1.734 145.894 1.968 145.894 2.22C145.894 2.472 145.846 2.712 145.75 2.94C145.654 3.156 145.522 3.348 145.354 3.516C145.186 3.684 144.988 3.816 144.76 3.912C144.544 4.008 144.31 4.056 144.058 4.056C143.806 4.056 143.566 4.008 143.338 3.912C143.122 3.816 142.93 3.684 142.762 3.516C142.594 3.348 142.462 3.156 142.366 2.94C142.27 2.712 142.222 2.472 142.222 2.22ZM151.559 8.484V15H148.301V8.484H147.221V5.766H148.301V2.994H151.559V5.766H153.413V8.484H151.559ZM157.985 13.74L153.521 5.766H157.301L159.767 10.5L162.161 5.766H165.905L158.489 19.608H154.835L157.985 13.74ZM176.981 7.656H178.151C179.447 7.656 180.095 7.092 180.095 5.964C180.095 4.836 179.447 4.272 178.151 4.272H176.981V7.656ZM176.981 15H173.453V1.428H179.069C180.593 1.428 181.757 1.824 182.561 2.616C183.377 3.408 183.785 4.524 183.785 5.964C183.785 7.404 183.377 8.52 182.561 9.312C181.757 10.104 180.593 10.5 179.069 10.5H176.981V15ZM185.346 5.766H188.604V7.278C188.952 6.726 189.378 6.306 189.882 6.018C190.386 5.718 190.974 5.568 191.646 5.568C191.73 5.568 191.82 5.568 191.916 5.568C192.024 5.568 192.144 5.58 192.276 5.604V8.718C191.844 8.502 191.376 8.394 190.872 8.394C190.116 8.394 189.546 8.622 189.162 9.078C188.79 9.522 188.604 10.176 188.604 11.04V15H185.346V5.766ZM200.587 9.042C200.479 8.586 200.257 8.22 199.921 7.944C199.585 7.668 199.177 7.53 198.697 7.53C198.193 7.53 197.779 7.662 197.455 7.926C197.143 8.19 196.945 8.562 196.861 9.042H200.587ZM196.771 10.932C196.771 12.336 197.431 13.038 198.751 13.038C199.459 13.038 199.993 12.75 200.353 12.174H203.503C202.867 14.286 201.277 15.342 198.733 15.342C197.953 15.342 197.239 15.228 196.591 15C195.943 14.76 195.385 14.424 194.917 13.992C194.461 13.56 194.107 13.044 193.855 12.444C193.603 11.844 193.477 11.172 193.477 10.428C193.477 9.66 193.597 8.97 193.837 8.358C194.077 7.734 194.419 7.206 194.863 6.774C195.307 6.342 195.841 6.012 196.465 5.784C197.101 5.544 197.815 5.424 198.607 5.424C199.387 5.424 200.089 5.544 200.713 5.784C201.337 6.012 201.865 6.348 202.297 6.792C202.729 7.236 203.059 7.782 203.287 8.43C203.515 9.066 203.629 9.786 203.629 10.59V10.932H196.771ZM211.611 8.142C211.011 7.83 210.423 7.674 209.847 7.674C209.547 7.674 209.301 7.734 209.109 7.854C208.929 7.974 208.839 8.136 208.839 8.34C208.839 8.448 208.851 8.538 208.875 8.61C208.911 8.67 208.977 8.73 209.073 8.79C209.181 8.85 209.331 8.904 209.523 8.952C209.727 9 209.991 9.06 210.315 9.132C211.215 9.312 211.887 9.636 212.331 10.104C212.775 10.56 212.997 11.148 212.997 11.868C212.997 12.408 212.889 12.894 212.673 13.326C212.457 13.758 212.157 14.124 211.773 14.424C211.389 14.712 210.927 14.934 210.387 15.09C209.847 15.258 209.253 15.342 208.605 15.342C207.357 15.342 206.127 14.988 204.915 14.28L206.103 11.976C207.015 12.6 207.879 12.912 208.695 12.912C208.995 12.912 209.241 12.846 209.433 12.714C209.625 12.582 209.721 12.414 209.721 12.21C209.721 12.09 209.703 11.994 209.667 11.922C209.643 11.838 209.583 11.766 209.487 11.706C209.391 11.634 209.247 11.574 209.055 11.526C208.875 11.466 208.635 11.406 208.335 11.346C207.327 11.142 206.619 10.842 206.211 10.446C205.815 10.038 205.617 9.48 205.617 8.772C205.617 8.256 205.713 7.794 205.905 7.386C206.097 6.966 206.373 6.612 206.733 6.324C207.093 6.036 207.525 5.814 208.029 5.658C208.545 5.502 209.115 5.424 209.739 5.424C210.759 5.424 211.749 5.622 212.709 6.018L211.611 8.142ZM217.673 10.356C217.673 10.656 217.727 10.938 217.835 11.202C217.943 11.454 218.087 11.676 218.267 11.868C218.459 12.06 218.681 12.21 218.933 12.318C219.197 12.426 219.479 12.48 219.779 12.48C220.067 12.48 220.337 12.426 220.589 12.318C220.853 12.21 221.075 12.06 221.255 11.868C221.447 11.676 221.597 11.454 221.705 11.202C221.825 10.95 221.885 10.68 221.885 10.392C221.885 10.104 221.825 9.834 221.705 9.582C221.597 9.318 221.447 9.09 221.255 8.898C221.075 8.706 220.853 8.556 220.589 8.448C220.337 8.34 220.067 8.286 219.779 8.286C219.479 8.286 219.197 8.34 218.933 8.448C218.681 8.556 218.459 8.706 218.267 8.898C218.087 9.09 217.943 9.312 217.835 9.564C217.727 9.804 217.673 10.068 217.673 10.356ZM221.777 5.766H225.053V15H221.777V13.974C221.081 14.85 220.139 15.288 218.951 15.288C218.279 15.288 217.661 15.168 217.097 14.928C216.533 14.676 216.041 14.328 215.621 13.884C215.201 13.44 214.871 12.918 214.631 12.318C214.403 11.718 214.289 11.064 214.289 10.356C214.289 9.696 214.403 9.072 214.631 8.484C214.859 7.884 215.177 7.362 215.585 6.918C215.993 6.474 216.479 6.126 217.043 5.874C217.607 5.61 218.231 5.478 218.915 5.478C220.067 5.478 221.021 5.88 221.777 6.684V5.766ZM230.528 0.0599992V15H227.27V0.0599992H230.528ZM239.505 9.042C239.397 8.586 239.175 8.22 238.839 7.944C238.503 7.668 238.095 7.53 237.615 7.53C237.111 7.53 236.697 7.662 236.373 7.926C236.061 8.19 235.863 8.562 235.779 9.042H239.505ZM235.689 10.932C235.689 12.336 236.349 13.038 237.669 13.038C238.377 13.038 238.911 12.75 239.271 12.174H242.421C241.785 14.286 240.195 15.342 237.651 15.342C236.871 15.342 236.157 15.228 235.509 15C234.861 14.76 234.303 14.424 233.835 13.992C233.379 13.56 233.025 13.044 232.773 12.444C232.521 11.844 232.395 11.172 232.395 10.428C232.395 9.66 232.515 8.97 232.755 8.358C232.995 7.734 233.337 7.206 233.781 6.774C234.225 6.342 234.759 6.012 235.383 5.784C236.019 5.544 236.733 5.424 237.525 5.424C238.305 5.424 239.007 5.544 239.631 5.784C240.255 6.012 240.783 6.348 241.215 6.792C241.647 7.236 241.977 7.782 242.205 8.43C242.433 9.066 242.547 9.786 242.547 10.59V10.932H235.689ZM65.3877 26.4121V27.6152H63.7266L63.4805 29.5771H64.998V30.7803H63.3301L62.9268 34.0479L61.7236 33.8906L62.1133 30.7803H60.083L59.6729 34.0479L58.4561 33.8906L58.8457 30.7529H57.2871V29.5771H59.0166L59.2627 27.6152H57.6836V26.4121H59.4131L59.7891 23.3496L60.9854 23.5068L60.623 26.4121H62.6396L63.0225 23.3496L64.2188 23.5068L63.8564 26.4121H65.3877ZM62.4893 27.6152H60.4795L60.2334 29.5771H62.2568L62.4893 27.6152ZM69.2637 29.0986V27.7383C69.9382 27.7383 70.3916 27.6631 70.624 27.5127C71.0387 27.2484 71.2461 26.8245 71.2461 26.2412C71.2461 25.79 71.0957 25.4232 70.7949 25.1406C70.4987 24.8535 70.1136 24.71 69.6396 24.71C69.1976 24.71 68.8558 24.8171 68.6143 25.0312C68.3818 25.25 68.2087 25.6191 68.0947 26.1387H66.5088C66.6729 25.1452 67.0101 24.4183 67.5205 23.958C68.0309 23.4932 68.7441 23.2607 69.6602 23.2607C70.5853 23.2607 71.3395 23.5342 71.9229 24.0811C72.5062 24.6234 72.7979 25.3229 72.7979 26.1797C72.7979 27.1458 72.415 27.8978 71.6494 28.4355C72.5244 28.9505 72.9619 29.7868 72.9619 30.9443C72.9619 31.8923 72.6429 32.667 72.0049 33.2686C71.3669 33.8701 70.5488 34.1709 69.5508 34.1709C68.2793 34.1709 67.3359 33.7038 66.7207 32.7695C66.4655 32.3776 66.3037 31.8353 66.2354 31.1426H67.7734C67.8555 31.653 68.0537 32.0449 68.3682 32.3184C68.6872 32.5872 69.1019 32.7217 69.6123 32.7217C70.1273 32.7217 70.5534 32.5508 70.8906 32.209C71.2279 31.8581 71.3965 31.4137 71.3965 30.876C71.3965 30.165 71.1436 29.6592 70.6377 29.3584C70.3415 29.1852 69.8835 29.0986 69.2637 29.0986ZM74.876 28.6543C74.876 26.9727 75.2679 25.6305 76.0518 24.6279C76.7536 23.721 77.6035 23.2676 78.6016 23.2676C79.5996 23.2676 80.4495 23.721 81.1514 24.6279C81.9352 25.6305 82.3271 26.9954 82.3271 28.7227C82.3271 30.4453 81.9352 31.8079 81.1514 32.8105C80.4495 33.7174 79.6019 34.1709 78.6084 34.1709C77.6149 34.1709 76.7627 33.7174 76.0518 32.8105C75.2679 31.8079 74.876 30.4225 74.876 28.6543ZM76.4414 28.6611C76.4414 29.8324 76.6442 30.8053 77.0498 31.5801C77.4554 32.3411 77.9727 32.7217 78.6016 32.7217C79.2259 32.7217 79.7432 32.3411 80.1533 31.5801C80.5635 30.8236 80.7686 29.8688 80.7686 28.7158C80.7686 27.5628 80.5635 26.6058 80.1533 25.8447C79.7432 25.0882 79.2259 24.71 78.6016 24.71C77.9818 24.71 77.4668 25.0882 77.0566 25.8447C76.6465 26.5967 76.4414 27.5355 76.4414 28.6611ZM83.5166 28.6543C83.5166 26.9727 83.9085 25.6305 84.6924 24.6279C85.3942 23.721 86.2441 23.2676 87.2422 23.2676C88.2402 23.2676 89.0902 23.721 89.792 24.6279C90.5758 25.6305 90.9678 26.9954 90.9678 28.7227C90.9678 30.4453 90.5758 31.8079 89.792 32.8105C89.0902 33.7174 88.2425 34.1709 87.249 34.1709C86.2555 34.1709 85.4033 33.7174 84.6924 32.8105C83.9085 31.8079 83.5166 30.4225 83.5166 28.6543ZM85.082 28.6611C85.082 29.8324 85.2848 30.8053 85.6904 31.5801C86.096 32.3411 86.6133 32.7217 87.2422 32.7217C87.8665 32.7217 88.3838 32.3411 88.7939 31.5801C89.2041 30.8236 89.4092 29.8688 89.4092 28.7158C89.4092 27.5628 89.2041 26.6058 88.7939 25.8447C88.3838 25.0882 87.8665 24.71 87.2422 24.71C86.6224 24.71 86.1074 25.0882 85.6973 25.8447C85.2871 26.5967 85.082 27.5355 85.082 28.6611ZM92.1572 28.6543C92.1572 26.9727 92.5492 25.6305 93.333 24.6279C94.0348 23.721 94.8848 23.2676 95.8828 23.2676C96.8809 23.2676 97.7308 23.721 98.4326 24.6279C99.2165 25.6305 99.6084 26.9954 99.6084 28.7227C99.6084 30.4453 99.2165 31.8079 98.4326 32.8105C97.7308 33.7174 96.8831 34.1709 95.8896 34.1709C94.8962 34.1709 94.0439 33.7174 93.333 32.8105C92.5492 31.8079 92.1572 30.4225 92.1572 28.6543ZM93.7227 28.6611C93.7227 29.8324 93.9255 30.8053 94.3311 31.5801C94.7367 32.3411 95.2539 32.7217 95.8828 32.7217C96.5072 32.7217 97.0244 32.3411 97.4346 31.5801C97.8447 30.8236 98.0498 29.8688 98.0498 28.7158C98.0498 27.5628 97.8447 26.6058 97.4346 25.8447C97.0244 25.0882 96.5072 24.71 95.8828 24.71C95.263 24.71 94.748 25.0882 94.3379 25.8447C93.9277 26.5967 93.7227 27.5355 93.7227 28.6611Z" fill="black"/>
<rect y="1" width="20" height="20" rx="5" fill="#65E4FD"/>
</svg>
