<svg width="337" height="337" viewBox="0 0 337 337" fill="none" xmlns="http://www.w3.org/2000/svg">
<path d="M335.556 160.425C331.801 123.724 315.399 89.4713 289.161 63.5334L288.402 62.7745L287.643 62.0156L286.884 61.2567L286.13 60.503C285.876 60.2483 285.6 59.9724 285.371 59.7442L284.612 58.9852L283.853 58.2264L283.094 57.4674L282.335 56.7085L281.576 55.9496L280.823 55.196C280.568 54.9412 280.292 54.6653 280.064 54.4371L279.305 53.6781L278.546 52.9193L277.787 52.1603L277.028 51.4014L276.269 50.6425L275.515 49.8889C275.26 49.6341 274.984 49.3582 274.756 49.13L273.997 48.3711C271.417 45.7812 268.742 43.2745 265.971 40.851L265.441 40.3998L265.175 40.1716L265.239 40.092L261.115 36.7538L256.991 33.4157L256.938 33.4794C232.193 14.6286 204.922 4.16837 173.946 1.63689V1.55196L168.638 1.27598H168.611L165.559 1.11681V1.05837H164.445L163.335 1V1.05837H154.944V1.1433C132.264 1.83322 110.805 6.92271 91.0969 16.3216C69.8658 26.4528 51.2197 41.302 35.7104 60.45C10.676 91.3685 -1.964 130.491 0.248139 170.21C2.46028 209.93 19.3665 247.407 47.6794 275.355L48.4384 276.114L49.1974 276.868L49.9565 277.627C50.2112 277.881 50.4872 278.157 50.7154 278.385C50.9437 278.614 51.2462 278.916 51.4745 279.144C51.7027 279.373 51.9734 279.675 52.2282 279.903C52.483 280.132 52.7589 280.434 52.9872 280.662L53.7462 281.421L54.5052 282.175L55.2642 282.934C55.519 283.188 55.7949 283.464 56.0232 283.693C56.2514 283.921 56.554 284.223 56.7822 284.452C57.0105 284.68 57.2812 284.982 57.5359 285.21C57.7907 285.439 58.0667 285.741 58.2949 285.969L59.054 286.728L59.8129 287.482L60.572 288.241C60.8267 288.495 61.1027 288.771 61.3309 289C61.5592 289.228 61.8617 289.53 62.09 289.759C62.3182 289.987 62.5889 290.289 62.8437 290.517C66.8083 294.468 70.9732 298.213 75.3222 301.737C99.9537 321.682 129.948 333.876 161.511 336.777C193.074 339.678 224.788 333.154 252.643 318.032C280.498 302.91 303.243 279.868 318 251.821C332.758 223.774 338.865 191.98 335.551 160.462L335.556 160.425Z" fill="black" stroke="black" stroke-miterlimit="10"/>
<path d="M160.241 161.195L257.739 40.7926C324.24 94.6436 334.495 192.198 280.642 258.696C226.79 325.194 129.217 335.442 62.7164 281.596C-3.78447 227.751 -14.0443 130.19 39.8082 63.698C69.9668 26.4581 112.307 6.26999 160.225 6.26999L160.241 161.195Z" fill="#FF8ABC" stroke="black" stroke-width="5" stroke-miterlimit="10"/>
<path d="M160.24 161.194L168.35 6.46103C202.108 8.22829 231.432 18.7456 257.674 40.0111L160.24 161.194Z" fill="#65E4FD" stroke="black" stroke-width="5" stroke-miterlimit="10"/>
<path d="M160.719 161.682V5.7766C165.797 5.7766 166.655 5.56291 171.719 5.77654L160.719 161.682Z" fill="#FFF721" stroke="black" stroke-width="5" stroke-miterlimit="10"/>
</svg>
