<svg width="263" height="57" viewBox="0 0 263 57" fill="none" xmlns="http://www.w3.org/2000/svg">
<path d="M65.874 4.902C65.49 4.59 65.106 4.362 64.722 4.218C64.338 4.062 63.966 3.984 63.606 3.984C63.15 3.984 62.778 4.092 62.49 4.308C62.202 4.524 62.058 4.806 62.058 5.154C62.058 5.394 62.13 5.592 62.274 5.748C62.418 5.904 62.604 6.042 62.832 6.162C63.072 6.27 63.336 6.366 63.624 6.45C63.924 6.534 64.218 6.624 64.506 6.72C65.658 7.104 66.498 7.62 67.026 8.268C67.566 8.904 67.836 9.738 67.836 10.77C67.836 11.466 67.716 12.096 67.476 12.66C67.248 13.224 66.906 13.71 66.45 14.118C66.006 14.514 65.454 14.82 64.794 15.036C64.146 15.264 63.408 15.378 62.58 15.378C60.864 15.378 59.274 14.868 57.81 13.848L59.322 11.004C59.85 11.472 60.372 11.82 60.888 12.048C61.404 12.276 61.914 12.39 62.418 12.39C62.994 12.39 63.42 12.258 63.696 11.994C63.984 11.73 64.128 11.43 64.128 11.094C64.128 10.89 64.092 10.716 64.02 10.572C63.948 10.416 63.828 10.278 63.66 10.158C63.492 10.026 63.27 9.906 62.994 9.798C62.73 9.69 62.406 9.57 62.022 9.438C61.566 9.294 61.116 9.138 60.672 8.97C60.24 8.79 59.85 8.556 59.502 8.268C59.166 7.98 58.89 7.62 58.674 7.188C58.47 6.744 58.368 6.186 58.368 5.514C58.368 4.842 58.476 4.236 58.692 3.696C58.92 3.144 59.232 2.676 59.628 2.292C60.036 1.896 60.528 1.59 61.104 1.374C61.692 1.158 62.346 1.05 63.066 1.05C63.738 1.05 64.44 1.146 65.172 1.338C65.904 1.518 66.606 1.788 67.278 2.148L65.874 4.902ZM73.0107 5.766V15H69.7527V5.766H73.0107ZM69.5367 2.22C69.5367 1.968 69.5847 1.734 69.6807 1.518C69.7767 1.29 69.9087 1.092 70.0767 0.923999C70.2447 0.755999 70.4367 0.623999 70.6527 0.528C70.8807 0.431999 71.1207 0.383999 71.3727 0.383999C71.6247 0.383999 71.8587 0.431999 72.0747 0.528C72.3027 0.623999 72.5007 0.755999 72.6687 0.923999C72.8367 1.092 72.9687 1.29 73.0647 1.518C73.1607 1.734 73.2087 1.968 73.2087 2.22C73.2087 2.472 73.1607 2.712 73.0647 2.94C72.9687 3.156 72.8367 3.348 72.6687 3.516C72.5007 3.684 72.3027 3.816 72.0747 3.912C71.8587 4.008 71.6247 4.056 71.3727 4.056C71.1207 4.056 70.8807 4.008 70.6527 3.912C70.4367 3.816 70.2447 3.684 70.0767 3.516C69.9087 3.348 69.7767 3.156 69.6807 2.94C69.5847 2.712 69.5367 2.472 69.5367 2.22ZM75.2371 5.766H78.4951V6.9C79.3831 6.048 80.3791 5.622 81.4831 5.622C82.8511 5.622 83.8951 6.198 84.6151 7.35C85.3471 6.186 86.3911 5.604 87.7471 5.604C88.1791 5.604 88.5871 5.67 88.9711 5.802C89.3551 5.922 89.6851 6.12 89.9611 6.396C90.2371 6.66 90.4531 7.008 90.6091 7.44C90.7771 7.872 90.8611 8.394 90.8611 9.006V15H87.6031V10.446C87.6031 9.978 87.5671 9.594 87.4951 9.294C87.4351 8.994 87.3391 8.76 87.2071 8.592C87.0871 8.424 86.9431 8.31 86.7751 8.25C86.6071 8.19 86.4271 8.16 86.2351 8.16C85.1911 8.16 84.6691 8.922 84.6691 10.446V15H81.4111V10.446C81.4111 9.978 81.3811 9.594 81.3211 9.294C81.2611 8.982 81.1711 8.736 81.0511 8.556C80.9431 8.376 80.7991 8.256 80.6191 8.196C80.4391 8.124 80.2291 8.088 79.9891 8.088C79.7851 8.088 79.5931 8.118 79.4131 8.178C79.2331 8.238 79.0711 8.358 78.9271 8.538C78.7951 8.706 78.6871 8.946 78.6031 9.258C78.5311 9.558 78.4951 9.954 78.4951 10.446V15H75.2371V5.766ZM96.3545 5.766V10.968C96.3545 12.108 96.9065 12.678 98.0105 12.678C99.1145 12.678 99.6665 12.108 99.6665 10.968V5.766H102.924V11.598C102.924 12.846 102.51 13.782 101.682 14.406C100.866 15.03 99.6425 15.342 98.0105 15.342C96.3785 15.342 95.1485 15.03 94.3205 14.406C93.5045 13.782 93.0965 12.846 93.0965 11.598V5.766H96.3545ZM108.395 0.0599992V15H105.137V0.0599992H108.395ZM113.646 10.356C113.646 10.656 113.7 10.938 113.808 11.202C113.916 11.454 114.06 11.676 114.24 11.868C114.432 12.06 114.654 12.21 114.906 12.318C115.17 12.426 115.452 12.48 115.752 12.48C116.04 12.48 116.31 12.426 116.562 12.318C116.826 12.21 117.048 12.06 117.228 11.868C117.42 11.676 117.57 11.454 117.678 11.202C117.798 10.95 117.858 10.68 117.858 10.392C117.858 10.104 117.798 9.834 117.678 9.582C117.57 9.318 117.42 9.09 117.228 8.898C117.048 8.706 116.826 8.556 116.562 8.448C116.31 8.34 116.04 8.286 115.752 8.286C115.452 8.286 115.17 8.34 114.906 8.448C114.654 8.556 114.432 8.706 114.24 8.898C114.06 9.09 113.916 9.312 113.808 9.564C113.7 9.804 113.646 10.068 113.646 10.356ZM117.75 5.766H121.026V15H117.75V13.974C117.054 14.85 116.112 15.288 114.924 15.288C114.252 15.288 113.634 15.168 113.07 14.928C112.506 14.676 112.014 14.328 111.594 13.884C111.174 13.44 110.844 12.918 110.604 12.318C110.376 11.718 110.262 11.064 110.262 10.356C110.262 9.696 110.376 9.072 110.604 8.484C110.832 7.884 111.15 7.362 111.558 6.918C111.966 6.474 112.452 6.126 113.016 5.874C113.58 5.61 114.204 5.478 114.888 5.478C116.04 5.478 116.994 5.88 117.75 6.684V5.766ZM126.879 8.484V15H123.621V8.484H122.541V5.766H123.621V2.994H126.879V5.766H128.733V8.484H126.879ZM133.462 5.766V15H130.204V5.766H133.462ZM129.988 2.22C129.988 1.968 130.036 1.734 130.132 1.518C130.228 1.29 130.36 1.092 130.528 0.923999C130.696 0.755999 130.888 0.623999 131.104 0.528C131.332 0.431999 131.572 0.383999 131.824 0.383999C132.076 0.383999 132.31 0.431999 132.526 0.528C132.754 0.623999 132.952 0.755999 133.12 0.923999C133.288 1.092 133.42 1.29 133.516 1.518C133.612 1.734 133.66 1.968 133.66 2.22C133.66 2.472 133.612 2.712 133.516 2.94C133.42 3.156 133.288 3.348 133.12 3.516C132.952 3.684 132.754 3.816 132.526 3.912C132.31 4.008 132.076 4.056 131.824 4.056C131.572 4.056 131.332 4.008 131.104 3.912C130.888 3.816 130.696 3.684 130.528 3.516C130.36 3.348 130.228 3.156 130.132 2.94C130.036 2.712 129.988 2.472 129.988 2.22ZM138.766 10.338C138.766 10.65 138.82 10.938 138.928 11.202C139.048 11.454 139.198 11.676 139.378 11.868C139.57 12.06 139.792 12.21 140.044 12.318C140.308 12.426 140.584 12.48 140.872 12.48C141.16 12.48 141.43 12.426 141.682 12.318C141.946 12.21 142.168 12.06 142.348 11.868C142.54 11.676 142.69 11.454 142.798 11.202C142.918 10.938 142.978 10.656 142.978 10.356C142.978 10.068 142.918 9.798 142.798 9.546C142.69 9.282 142.54 9.054 142.348 8.862C142.168 8.67 141.946 8.52 141.682 8.412C141.43 8.304 141.16 8.25 140.872 8.25C140.584 8.25 140.308 8.304 140.044 8.412C139.792 8.52 139.57 8.67 139.378 8.862C139.198 9.054 139.048 9.276 138.928 9.528C138.82 9.78 138.766 10.05 138.766 10.338ZM135.328 10.302C135.328 9.618 135.466 8.982 135.742 8.394C136.018 7.794 136.402 7.278 136.894 6.846C137.386 6.402 137.968 6.054 138.64 5.802C139.324 5.55 140.068 5.424 140.872 5.424C141.664 5.424 142.396 5.55 143.068 5.802C143.752 6.042 144.34 6.384 144.832 6.828C145.336 7.26 145.726 7.782 146.002 8.394C146.278 8.994 146.416 9.66 146.416 10.392C146.416 11.124 146.272 11.796 145.984 12.408C145.708 13.008 145.324 13.53 144.832 13.974C144.34 14.406 143.746 14.742 143.05 14.982C142.366 15.222 141.622 15.342 140.818 15.342C140.026 15.342 139.294 15.222 138.622 14.982C137.95 14.742 137.368 14.4 136.876 13.956C136.396 13.512 136.018 12.984 135.742 12.372C135.466 11.748 135.328 11.058 135.328 10.302ZM148.292 5.766H151.55V6.936C151.994 6.396 152.444 6.036 152.9 5.856C153.356 5.664 153.89 5.568 154.502 5.568C155.15 5.568 155.702 5.676 156.158 5.892C156.626 6.096 157.022 6.39 157.346 6.774C157.61 7.086 157.79 7.434 157.886 7.818C157.982 8.202 158.03 8.64 158.03 9.132V15H154.772V10.338C154.772 9.882 154.736 9.516 154.664 9.24C154.604 8.952 154.49 8.724 154.322 8.556C154.178 8.412 154.016 8.31 153.836 8.25C153.656 8.19 153.464 8.16 153.26 8.16C152.708 8.16 152.282 8.328 151.982 8.664C151.694 8.988 151.55 9.456 151.55 10.068V15H148.292V5.766ZM170.196 1.428V12.012H174.426V15H166.668V1.428H170.196ZM178.966 10.356C178.966 10.656 179.02 10.938 179.128 11.202C179.236 11.454 179.38 11.676 179.56 11.868C179.752 12.06 179.974 12.21 180.226 12.318C180.49 12.426 180.772 12.48 181.072 12.48C181.36 12.48 181.63 12.426 181.882 12.318C182.146 12.21 182.368 12.06 182.548 11.868C182.74 11.676 182.89 11.454 182.998 11.202C183.118 10.95 183.178 10.68 183.178 10.392C183.178 10.104 183.118 9.834 182.998 9.582C182.89 9.318 182.74 9.09 182.548 8.898C182.368 8.706 182.146 8.556 181.882 8.448C181.63 8.34 181.36 8.286 181.072 8.286C180.772 8.286 180.49 8.34 180.226 8.448C179.974 8.556 179.752 8.706 179.56 8.898C179.38 9.09 179.236 9.312 179.128 9.564C179.02 9.804 178.966 10.068 178.966 10.356ZM183.07 5.766H186.346V15H183.07V13.974C182.374 14.85 181.432 15.288 180.244 15.288C179.572 15.288 178.954 15.168 178.39 14.928C177.826 14.676 177.334 14.328 176.914 13.884C176.494 13.44 176.164 12.918 175.924 12.318C175.696 11.718 175.582 11.064 175.582 10.356C175.582 9.696 175.696 9.072 175.924 8.484C176.152 7.884 176.47 7.362 176.878 6.918C177.286 6.474 177.772 6.126 178.336 5.874C178.9 5.61 179.524 5.478 180.208 5.478C181.36 5.478 182.314 5.88 183.07 6.684V5.766ZM195.925 10.41C195.925 10.122 195.871 9.852 195.763 9.6C195.655 9.336 195.505 9.108 195.313 8.916C195.121 8.724 194.899 8.574 194.647 8.466C194.395 8.346 194.119 8.286 193.819 8.286C193.531 8.286 193.261 8.34 193.009 8.448C192.757 8.556 192.535 8.706 192.343 8.898C192.163 9.09 192.013 9.318 191.893 9.582C191.785 9.834 191.731 10.104 191.731 10.392C191.731 10.68 191.785 10.95 191.893 11.202C192.001 11.454 192.151 11.676 192.343 11.868C192.535 12.048 192.757 12.198 193.009 12.318C193.273 12.426 193.549 12.48 193.837 12.48C194.125 12.48 194.395 12.426 194.647 12.318C194.899 12.21 195.115 12.06 195.295 11.868C195.487 11.676 195.637 11.454 195.745 11.202C195.865 10.95 195.925 10.686 195.925 10.41ZM191.821 0.0599992V6.684C192.589 5.88 193.549 5.478 194.701 5.478C195.385 5.478 196.009 5.61 196.573 5.874C197.149 6.126 197.635 6.474 198.031 6.918C198.439 7.35 198.757 7.866 198.985 8.466C199.213 9.054 199.327 9.684 199.327 10.356C199.327 11.04 199.207 11.682 198.967 12.282C198.739 12.882 198.415 13.404 197.995 13.848C197.575 14.292 197.077 14.646 196.501 14.91C195.937 15.162 195.325 15.288 194.665 15.288C193.465 15.288 192.517 14.85 191.821 13.974V15H188.563V0.0599992H191.821ZM65.3877 26.4121V27.6152H63.7266L63.4805 29.5771H64.998V30.7803H63.3301L62.9268 34.0479L61.7236 33.8906L62.1133 30.7803H60.083L59.6729 34.0479L58.4561 33.8906L58.8457 30.7529H57.2871V29.5771H59.0166L59.2627 27.6152H57.6836V26.4121H59.4131L59.7891 23.3496L60.9854 23.5068L60.623 26.4121H62.6396L63.0225 23.3496L64.2188 23.5068L63.8564 26.4121H65.3877ZM62.4893 27.6152H60.4795L60.2334 29.5771H62.2568L62.4893 27.6152ZM69.1475 32.5029H73.0781V34H65.9893L69.6533 29.5635C70.0133 29.1214 70.3141 28.7386 70.5557 28.415C70.8018 28.0915 70.9886 27.8203 71.1162 27.6016C71.376 27.1732 71.5059 26.7881 71.5059 26.4463C71.5059 25.9541 71.3327 25.5417 70.9863 25.209C70.64 24.8763 70.2116 24.71 69.7012 24.71C68.6348 24.71 68.0241 25.3411 67.8691 26.6035H66.2832C66.5384 24.3796 67.6618 23.2676 69.6533 23.2676C70.6149 23.2676 71.4215 23.5729 72.0732 24.1836C72.7295 24.7943 73.0576 25.5508 73.0576 26.4531C73.0576 27.0273 72.9049 27.5902 72.5996 28.1416C72.4447 28.4287 72.2168 28.7705 71.916 29.167C71.6198 29.5589 71.2438 30.0238 70.7881 30.5615L69.1475 32.5029ZM81.6436 24.9355H78.3896L77.8701 26.6855C77.9476 26.6764 78.0205 26.6696 78.0889 26.665C78.1618 26.6605 78.2279 26.6582 78.2871 26.6582C79.3125 26.6582 80.1533 27.0046 80.8096 27.6973C81.4704 28.3854 81.8008 29.2673 81.8008 30.3428C81.8008 31.4548 81.4271 32.3708 80.6797 33.0908C79.9323 33.8109 78.9912 34.1709 77.8564 34.1709C76.4574 34.1709 75.3545 33.5146 74.5479 32.2021L75.751 31.1836C76.0837 31.7487 76.4186 32.1475 76.7559 32.3799C77.0931 32.6077 77.5055 32.7217 77.9932 32.7217C78.6312 32.7217 79.1667 32.4984 79.5996 32.0518C80.0326 31.5915 80.249 31.0332 80.249 30.377C80.249 29.7025 80.0348 29.151 79.6064 28.7227C79.1781 28.2806 78.6426 28.0596 78 28.0596C77.2845 28.0596 76.667 28.3717 76.1475 28.9961H75.6211L77.2822 23.4453H81.6436V24.9355ZM83.5166 28.6543C83.5166 26.9727 83.9085 25.6305 84.6924 24.6279C85.3942 23.721 86.2441 23.2676 87.2422 23.2676C88.2402 23.2676 89.0902 23.721 89.792 24.6279C90.5758 25.6305 90.9678 26.9954 90.9678 28.7227C90.9678 30.4453 90.5758 31.8079 89.792 32.8105C89.0902 33.7174 88.2425 34.1709 87.249 34.1709C86.2555 34.1709 85.4033 33.7174 84.6924 32.8105C83.9085 31.8079 83.5166 30.4225 83.5166 28.6543ZM85.082 28.6611C85.082 29.8324 85.2848 30.8053 85.6904 31.5801C86.096 32.3411 86.6133 32.7217 87.2422 32.7217C87.8665 32.7217 88.3838 32.3411 88.7939 31.5801C89.2041 30.8236 89.4092 29.8688 89.4092 28.7158C89.4092 27.5628 89.2041 26.6058 88.7939 25.8447C88.3838 25.0882 87.8665 24.71 87.2422 24.71C86.6224 24.71 86.1074 25.0882 85.6973 25.8447C85.2871 26.5967 85.082 27.5355 85.082 28.6611ZM61.1768 43.9424V53H59.584V43.9424H57.1572V42.4453H63.5967V43.9424H61.1768ZM70.2139 50.0332H65.4424C65.4834 50.5801 65.6611 51.0153 65.9756 51.3389C66.29 51.6579 66.6934 51.8174 67.1855 51.8174C67.5684 51.8174 67.8851 51.7262 68.1357 51.5439C68.3818 51.3617 68.6621 51.0244 68.9766 50.5322L70.2754 51.2568C70.0749 51.5986 69.863 51.8926 69.6396 52.1387C69.4163 52.3802 69.1771 52.5807 68.9219 52.7402C68.6667 52.8952 68.391 53.0091 68.0947 53.082C67.7985 53.1549 67.4772 53.1914 67.1309 53.1914C66.1374 53.1914 65.3398 52.8724 64.7383 52.2344C64.1367 51.5918 63.8359 50.7396 63.8359 49.6777C63.8359 48.625 64.1276 47.7728 64.7109 47.1211C65.2988 46.4785 66.0781 46.1572 67.0488 46.1572C68.0286 46.1572 68.8034 46.4694 69.373 47.0938C69.9382 47.7135 70.2207 48.5726 70.2207 49.6709L70.2139 50.0332ZM68.6348 48.7754C68.4206 47.9551 67.9033 47.5449 67.083 47.5449C66.8962 47.5449 66.7207 47.5745 66.5566 47.6338C66.3926 47.6885 66.2422 47.7705 66.1055 47.8799C65.9733 47.9847 65.8594 48.1123 65.7637 48.2627C65.668 48.4131 65.5951 48.584 65.5449 48.7754H68.6348ZM76.8105 46.3418H78.3555V53H76.8105V52.3027C76.1771 52.8952 75.4958 53.1914 74.7666 53.1914C73.846 53.1914 73.085 52.8587 72.4834 52.1934C71.8864 51.5143 71.5879 50.6667 71.5879 49.6504C71.5879 48.6523 71.8864 47.8206 72.4834 47.1553C73.0804 46.4899 73.8278 46.1572 74.7256 46.1572C75.5003 46.1572 76.1953 46.4762 76.8105 47.1143V46.3418ZM73.1602 49.6504C73.1602 50.2884 73.3311 50.8079 73.6729 51.209C74.0238 51.6146 74.4658 51.8174 74.999 51.8174C75.5687 51.8174 76.029 51.6214 76.3799 51.2295C76.7308 50.8239 76.9062 50.3089 76.9062 49.6846C76.9062 49.0602 76.7308 48.5452 76.3799 48.1396C76.029 47.7432 75.5732 47.5449 75.0127 47.5449C74.484 47.5449 74.042 47.7454 73.6865 48.1465C73.3356 48.5521 73.1602 49.0534 73.1602 49.6504ZM80.2969 46.3418H81.835V46.957C82.1312 46.6471 82.3841 46.4375 82.5938 46.3281C82.8171 46.2142 83.0973 46.1572 83.4346 46.1572C84.1865 46.1572 84.7812 46.4854 85.2188 47.1416C85.7018 46.4854 86.3558 46.1572 87.1807 46.1572C88.68 46.1572 89.4297 47.0664 89.4297 48.8848V53H87.8848V49.3018C87.8848 48.6637 87.8073 48.2126 87.6523 47.9482C87.4928 47.6794 87.2308 47.5449 86.8662 47.5449C86.4424 47.5449 86.1325 47.7044 85.9365 48.0234C85.7451 48.3424 85.6494 48.8551 85.6494 49.5615V53H84.1045V49.3223C84.1045 48.1374 83.7627 47.5449 83.0791 47.5449C82.6462 47.5449 82.3294 47.7067 82.1289 48.0303C81.9329 48.3538 81.835 48.8643 81.835 49.5615V53H80.2969V46.3418ZM92.3213 51.0244L93.6885 51.5576L91.7402 55.4609L90.7012 55.0303L92.3213 51.0244ZM100.306 53V42.4453H102.521C103.582 42.4453 104.421 42.5501 105.036 42.7598C105.697 42.9648 106.296 43.3135 106.834 43.8057C107.923 44.7992 108.468 46.1048 108.468 47.7227C108.468 49.3451 107.9 50.6576 106.766 51.6602C106.196 52.1615 105.599 52.5101 104.975 52.7061C104.391 52.902 103.564 53 102.493 53H100.306ZM101.898 51.5029H102.616C103.332 51.5029 103.926 51.4277 104.4 51.2773C104.874 51.1178 105.303 50.8649 105.686 50.5186C106.469 49.8031 106.861 48.8711 106.861 47.7227C106.861 46.5651 106.474 45.6263 105.699 44.9062C105.002 44.2637 103.974 43.9424 102.616 43.9424H101.898V51.5029ZM116.247 50.0332H111.476C111.517 50.5801 111.694 51.0153 112.009 51.3389C112.323 51.6579 112.727 51.8174 113.219 51.8174C113.602 51.8174 113.918 51.7262 114.169 51.5439C114.415 51.3617 114.695 51.0244 115.01 50.5322L116.309 51.2568C116.108 51.5986 115.896 51.8926 115.673 52.1387C115.45 52.3802 115.21 52.5807 114.955 52.7402C114.7 52.8952 114.424 53.0091 114.128 53.082C113.832 53.1549 113.51 53.1914 113.164 53.1914C112.171 53.1914 111.373 52.8724 110.771 52.2344C110.17 51.5918 109.869 50.7396 109.869 49.6777C109.869 48.625 110.161 47.7728 110.744 47.1211C111.332 46.4785 112.111 46.1572 113.082 46.1572C114.062 46.1572 114.837 46.4694 115.406 47.0938C115.971 47.7135 116.254 48.5726 116.254 49.6709L116.247 50.0332ZM114.668 48.7754C114.454 47.9551 113.937 47.5449 113.116 47.5449C112.929 47.5449 112.754 47.5745 112.59 47.6338C112.426 47.6885 112.275 47.7705 112.139 47.8799C112.007 47.9847 111.893 48.1123 111.797 48.2627C111.701 48.4131 111.628 48.584 111.578 48.7754H114.668ZM121.805 47.4766L120.533 48.1533C120.333 47.7432 120.084 47.5381 119.788 47.5381C119.647 47.5381 119.526 47.5859 119.426 47.6816C119.326 47.7728 119.275 47.8913 119.275 48.0371C119.275 48.2923 119.572 48.5452 120.164 48.7959C120.98 49.1468 121.529 49.4704 121.812 49.7666C122.094 50.0628 122.235 50.4616 122.235 50.9629C122.235 51.6055 121.998 52.1432 121.524 52.5762C121.064 52.9863 120.508 53.1914 119.856 53.1914C118.74 53.1914 117.949 52.6468 117.484 51.5576L118.797 50.9492C118.979 51.2682 119.118 51.471 119.214 51.5576C119.401 51.7308 119.624 51.8174 119.884 51.8174C120.403 51.8174 120.663 51.5804 120.663 51.1064C120.663 50.833 120.463 50.5778 120.062 50.3408C119.907 50.2633 119.752 50.1882 119.597 50.1152C119.442 50.0423 119.285 49.9671 119.125 49.8896C118.678 49.6709 118.364 49.4521 118.182 49.2334C117.949 48.9554 117.833 48.5977 117.833 48.1602C117.833 47.5814 118.031 47.1029 118.428 46.7246C118.833 46.3464 119.326 46.1572 119.904 46.1572C120.757 46.1572 121.39 46.597 121.805 47.4766ZM125.161 46.3418V53H123.623V46.3418H125.161ZM123.391 43.5732C123.391 43.3044 123.489 43.0719 123.685 42.876C123.881 42.68 124.115 42.582 124.389 42.582C124.667 42.582 124.904 42.68 125.1 42.876C125.296 43.0674 125.394 43.3021 125.394 43.5801C125.394 43.8581 125.296 44.0951 125.1 44.291C124.908 44.487 124.674 44.585 124.396 44.585C124.118 44.585 123.881 44.487 123.685 44.291C123.489 44.0951 123.391 43.8558 123.391 43.5732ZM133.549 52.8428C133.549 53.1572 133.537 53.4329 133.515 53.6699C133.496 53.9115 133.469 54.1234 133.433 54.3057C133.323 54.807 133.109 55.2376 132.79 55.5977C132.188 56.2904 131.361 56.6367 130.309 56.6367C129.42 56.6367 128.688 56.3975 128.114 55.9189C127.522 55.4268 127.18 54.7454 127.089 53.875H128.634C128.693 54.2031 128.791 54.4561 128.928 54.6338C129.247 55.0485 129.712 55.2559 130.322 55.2559C131.448 55.2559 132.011 54.5654 132.011 53.1846V52.2549C131.4 52.8792 130.696 53.1914 129.898 53.1914C128.992 53.1914 128.249 52.8633 127.67 52.207C127.087 51.5417 126.795 50.71 126.795 49.7119C126.795 48.7412 127.066 47.9163 127.608 47.2373C128.192 46.5173 128.962 46.1572 129.919 46.1572C130.757 46.1572 131.455 46.4694 132.011 47.0938V46.3418H133.549V52.8428ZM132.072 49.6846C132.072 49.0374 131.899 48.5202 131.553 48.1328C131.202 47.7363 130.753 47.5381 130.206 47.5381C129.623 47.5381 129.162 47.7546 128.825 48.1875C128.52 48.5749 128.367 49.0762 128.367 49.6914C128.367 50.2975 128.52 50.7943 128.825 51.1816C129.158 51.6055 129.618 51.8174 130.206 51.8174C130.794 51.8174 131.259 51.6032 131.601 51.1748C131.915 50.7874 132.072 50.2907 132.072 49.6846ZM135.49 46.3418H137.035V46.957C137.573 46.4238 138.179 46.1572 138.854 46.1572C139.628 46.1572 140.232 46.401 140.665 46.8887C141.039 47.3034 141.226 47.9801 141.226 48.9189V53H139.681V49.2812C139.681 48.625 139.59 48.1715 139.407 47.9209C139.229 47.6657 138.906 47.5381 138.437 47.5381C137.926 47.5381 137.564 47.7067 137.35 48.0439C137.14 48.3766 137.035 48.9577 137.035 49.7871V53H135.49V46.3418ZM149.237 50.0332H144.466C144.507 50.5801 144.685 51.0153 144.999 51.3389C145.313 51.6579 145.717 51.8174 146.209 51.8174C146.592 51.8174 146.909 51.7262 147.159 51.5439C147.405 51.3617 147.686 51.0244 148 50.5322L149.299 51.2568C149.098 51.5986 148.886 51.8926 148.663 52.1387C148.44 52.3802 148.201 52.5807 147.945 52.7402C147.69 52.8952 147.414 53.0091 147.118 53.082C146.822 53.1549 146.501 53.1914 146.154 53.1914C145.161 53.1914 144.363 52.8724 143.762 52.2344C143.16 51.5918 142.859 50.7396 142.859 49.6777C142.859 48.625 143.151 47.7728 143.734 47.1211C144.322 46.4785 145.102 46.1572 146.072 46.1572C147.052 46.1572 147.827 46.4694 148.396 47.0938C148.962 47.7135 149.244 48.5726 149.244 49.6709L149.237 50.0332ZM147.658 48.7754C147.444 47.9551 146.927 47.5449 146.106 47.5449C145.92 47.5449 145.744 47.5745 145.58 47.6338C145.416 47.6885 145.266 47.7705 145.129 47.8799C144.997 47.9847 144.883 48.1123 144.787 48.2627C144.691 48.4131 144.618 48.584 144.568 48.7754H147.658ZM150.926 46.3418H152.464V46.9365C152.746 46.6403 152.997 46.4375 153.216 46.3281C153.439 46.2142 153.703 46.1572 154.009 46.1572C154.414 46.1572 154.838 46.2894 155.28 46.5537L154.576 47.9619C154.285 47.7523 154 47.6475 153.722 47.6475C152.883 47.6475 152.464 48.2809 152.464 49.5479V53H150.926V46.3418ZM160.605 47.1279L162.506 49.4248L162.567 49.3564C162.772 49.1331 162.966 48.9144 163.148 48.7002C163.331 48.486 163.506 48.2695 163.675 48.0508L164.714 49.1172C164.586 49.2995 164.418 49.5114 164.208 49.7529C164.003 49.9945 163.757 50.2725 163.47 50.5869L165.425 53H163.442L162.39 51.708C161.424 52.7061 160.419 53.2051 159.375 53.2051C158.441 53.2051 157.648 52.9066 156.996 52.3096C156.358 51.708 156.039 50.9652 156.039 50.0811C156.039 49.0283 156.545 48.1533 157.557 47.4561L158.247 46.9844C158.256 46.9798 158.272 46.9684 158.295 46.9502C158.318 46.932 158.35 46.9069 158.391 46.875C157.693 46.1322 157.345 45.4007 157.345 44.6807C157.345 43.9697 157.577 43.391 158.042 42.9443C158.516 42.4977 159.127 42.2744 159.874 42.2744C160.599 42.2744 161.198 42.4909 161.672 42.9238C162.146 43.3568 162.383 43.9036 162.383 44.5645C162.383 45.0202 162.253 45.4326 161.993 45.8018C161.738 46.1709 161.275 46.613 160.605 47.1279ZM159.341 48.0234L159.252 48.085C158.6 48.5361 158.156 48.8984 157.919 49.1719C157.687 49.4453 157.57 49.7347 157.57 50.04C157.57 50.4775 157.746 50.8786 158.097 51.2432C158.461 51.5941 158.862 51.7695 159.3 51.7695C159.915 51.7695 160.624 51.3662 161.426 50.5596L159.341 48.0234ZM159.683 46.0068L159.812 45.9111C160.036 45.7425 160.22 45.5967 160.366 45.4736C160.512 45.346 160.617 45.2389 160.681 45.1523C160.817 44.9837 160.886 44.7764 160.886 44.5303C160.886 44.2523 160.792 44.0267 160.605 43.8535C160.419 43.6803 160.168 43.5938 159.854 43.5938C159.566 43.5938 159.325 43.6826 159.129 43.8604C158.933 44.029 158.835 44.2454 158.835 44.5098C158.835 44.8197 158.958 45.125 159.204 45.4258L159.601 45.9043C159.614 45.9271 159.642 45.9613 159.683 46.0068ZM171.967 43.9424H168.289V46.4785H171.837V47.9756H168.289V53H166.696V42.4453H171.967V43.9424ZM174.927 46.3418V50.1631C174.927 51.266 175.362 51.8174 176.232 51.8174C177.103 51.8174 177.538 51.266 177.538 50.1631V46.3418H179.076V50.1973C179.076 50.7305 179.01 51.1908 178.878 51.5781C178.75 51.9245 178.529 52.2367 178.215 52.5146C177.695 52.9658 177.035 53.1914 176.232 53.1914C175.435 53.1914 174.776 52.9658 174.257 52.5146C173.938 52.2367 173.712 51.9245 173.58 51.5781C173.452 51.2682 173.389 50.8079 173.389 50.1973V46.3418H174.927ZM182.604 47.7773V53H181.065V47.7773H180.409V46.3418H181.065V43.9014H182.604V46.3418H183.8V47.7773H182.604ZM186.384 46.3418V50.1631C186.384 51.266 186.819 51.8174 187.689 51.8174C188.56 51.8174 188.995 51.266 188.995 50.1631V46.3418H190.533V50.1973C190.533 50.7305 190.467 51.1908 190.335 51.5781C190.207 51.9245 189.986 52.2367 189.672 52.5146C189.152 52.9658 188.492 53.1914 187.689 53.1914C186.892 53.1914 186.233 52.9658 185.714 52.5146C185.395 52.2367 185.169 51.9245 185.037 51.5781C184.91 51.2682 184.846 50.8079 184.846 50.1973V46.3418H186.384ZM192.475 46.3418H194.013V46.9365C194.295 46.6403 194.546 46.4375 194.765 46.3281C194.988 46.2142 195.252 46.1572 195.558 46.1572C195.963 46.1572 196.387 46.2894 196.829 46.5537L196.125 47.9619C195.833 47.7523 195.549 47.6475 195.271 47.6475C194.432 47.6475 194.013 48.2809 194.013 49.5479V53H192.475V46.3418ZM203.679 50.0332H198.907C198.948 50.5801 199.126 51.0153 199.44 51.3389C199.755 51.6579 200.158 51.8174 200.65 51.8174C201.033 51.8174 201.35 51.7262 201.601 51.5439C201.847 51.3617 202.127 51.0244 202.441 50.5322L203.74 51.2568C203.54 51.5986 203.328 51.8926 203.104 52.1387C202.881 52.3802 202.642 52.5807 202.387 52.7402C202.132 52.8952 201.856 53.0091 201.56 53.082C201.263 53.1549 200.942 53.1914 200.596 53.1914C199.602 53.1914 198.805 52.8724 198.203 52.2344C197.602 51.5918 197.301 50.7396 197.301 49.6777C197.301 48.625 197.592 47.7728 198.176 47.1211C198.764 46.4785 199.543 46.1572 200.514 46.1572C201.493 46.1572 202.268 46.4694 202.838 47.0938C203.403 47.7135 203.686 48.5726 203.686 49.6709L203.679 50.0332ZM202.1 48.7754C201.885 47.9551 201.368 47.5449 200.548 47.5449C200.361 47.5449 200.186 47.5745 200.021 47.6338C199.857 47.6885 199.707 47.7705 199.57 47.8799C199.438 47.9847 199.324 48.1123 199.229 48.2627C199.133 48.4131 199.06 48.584 199.01 48.7754H202.1ZM211.273 47.7773V53H209.735V47.7773H209.079V46.3418H209.735V43.9014H211.273V46.3418H212.47V47.7773H211.273ZM219.702 50.0332H214.931C214.972 50.5801 215.149 51.0153 215.464 51.3389C215.778 51.6579 216.182 51.8174 216.674 51.8174C217.057 51.8174 217.373 51.7262 217.624 51.5439C217.87 51.3617 218.15 51.0244 218.465 50.5322L219.764 51.2568C219.563 51.5986 219.351 51.8926 219.128 52.1387C218.905 52.3802 218.665 52.5807 218.41 52.7402C218.155 52.8952 217.879 53.0091 217.583 53.082C217.287 53.1549 216.965 53.1914 216.619 53.1914C215.626 53.1914 214.828 52.8724 214.227 52.2344C213.625 51.5918 213.324 50.7396 213.324 49.6777C213.324 48.625 213.616 47.7728 214.199 47.1211C214.787 46.4785 215.566 46.1572 216.537 46.1572C217.517 46.1572 218.292 46.4694 218.861 47.0938C219.426 47.7135 219.709 48.5726 219.709 49.6709L219.702 50.0332ZM218.123 48.7754C217.909 47.9551 217.392 47.5449 216.571 47.5449C216.384 47.5449 216.209 47.5745 216.045 47.6338C215.881 47.6885 215.73 47.7705 215.594 47.8799C215.462 47.9847 215.348 48.1123 215.252 48.2627C215.156 48.4131 215.083 48.584 215.033 48.7754H218.123ZM226.299 46.3418H227.844V53H226.299V52.3027C225.665 52.8952 224.984 53.1914 224.255 53.1914C223.334 53.1914 222.573 52.8587 221.972 52.1934C221.375 51.5143 221.076 50.6667 221.076 49.6504C221.076 48.6523 221.375 47.8206 221.972 47.1553C222.569 46.4899 223.316 46.1572 224.214 46.1572C224.989 46.1572 225.684 46.4762 226.299 47.1143V46.3418ZM222.648 49.6504C222.648 50.2884 222.819 50.8079 223.161 51.209C223.512 51.6146 223.954 51.8174 224.487 51.8174C225.057 51.8174 225.517 51.6214 225.868 51.2295C226.219 50.8239 226.395 50.3089 226.395 49.6846C226.395 49.0602 226.219 48.5452 225.868 48.1396C225.517 47.7432 225.062 47.5449 224.501 47.5449C223.972 47.5449 223.53 47.7454 223.175 48.1465C222.824 48.5521 222.648 49.0534 222.648 49.6504ZM229.785 46.3418H231.323V46.957C231.619 46.6471 231.872 46.4375 232.082 46.3281C232.305 46.2142 232.586 46.1572 232.923 46.1572C233.675 46.1572 234.27 46.4854 234.707 47.1416C235.19 46.4854 235.844 46.1572 236.669 46.1572C238.168 46.1572 238.918 47.0664 238.918 48.8848V53H237.373V49.3018C237.373 48.6637 237.296 48.2126 237.141 47.9482C236.981 47.6794 236.719 47.5449 236.354 47.5449C235.931 47.5449 235.621 47.7044 235.425 48.0234C235.233 48.3424 235.138 48.8551 235.138 49.5615V53H233.593V49.3223C233.593 48.1374 233.251 47.5449 232.567 47.5449C232.134 47.5449 231.818 47.7067 231.617 48.0303C231.421 48.3538 231.323 48.8643 231.323 49.5615V53H229.785V46.3418Z" fill="black"/>
<rect y="1" width="20" height="20" rx="5" fill="#FFF721"/>
</svg>
