<svg width="263" height="35" viewBox="0 0 263 35" fill="none" xmlns="http://www.w3.org/2000/svg">
<path d="M61.95 7.656H63.12C64.416 7.656 65.064 7.092 65.064 5.964C65.064 4.836 64.416 4.272 63.12 4.272H61.95V7.656ZM61.95 15H58.422V1.428H64.038C65.562 1.428 66.726 1.824 67.53 2.616C68.346 3.408 68.754 4.524 68.754 5.964C68.754 7.404 68.346 8.52 67.53 9.312C66.726 10.104 65.562 10.5 64.038 10.5H61.95V15ZM73.5732 5.766V10.968C73.5732 12.108 74.1252 12.678 75.2292 12.678C76.3332 12.678 76.8852 12.108 76.8852 10.968V5.766H80.1432V11.598C80.1432 12.846 79.7292 13.782 78.9012 14.406C78.0852 15.03 76.8612 15.342 75.2292 15.342C73.5972 15.342 72.3672 15.03 71.5392 14.406C70.7232 13.782 70.3152 12.846 70.3152 11.598V5.766H73.5732ZM89.7182 10.41C89.7182 10.122 89.6642 9.852 89.5562 9.6C89.4482 9.336 89.2982 9.108 89.1062 8.916C88.9142 8.724 88.6922 8.574 88.4402 8.466C88.1882 8.346 87.9122 8.286 87.6122 8.286C87.3242 8.286 87.0542 8.34 86.8022 8.448C86.5502 8.556 86.3282 8.706 86.1362 8.898C85.9562 9.09 85.8062 9.318 85.6862 9.582C85.5782 9.834 85.5242 10.104 85.5242 10.392C85.5242 10.68 85.5782 10.95 85.6862 11.202C85.7942 11.454 85.9442 11.676 86.1362 11.868C86.3282 12.048 86.5502 12.198 86.8022 12.318C87.0662 12.426 87.3422 12.48 87.6302 12.48C87.9182 12.48 88.1882 12.426 88.4402 12.318C88.6922 12.21 88.9082 12.06 89.0882 11.868C89.2802 11.676 89.4302 11.454 89.5382 11.202C89.6582 10.95 89.7182 10.686 89.7182 10.41ZM85.6142 0.0599992V6.684C86.3822 5.88 87.3422 5.478 88.4942 5.478C89.1782 5.478 89.8022 5.61 90.3662 5.874C90.9422 6.126 91.4282 6.474 91.8242 6.918C92.2322 7.35 92.5502 7.866 92.7782 8.466C93.0062 9.054 93.1202 9.684 93.1202 10.356C93.1202 11.04 93.0002 11.682 92.7602 12.282C92.5322 12.882 92.2082 13.404 91.7882 13.848C91.3682 14.292 90.8702 14.646 90.2942 14.91C89.7302 15.162 89.1182 15.288 88.4582 15.288C87.2582 15.288 86.3102 14.85 85.6142 13.974V15H82.3562V0.0599992H85.6142ZM98.2353 0.0599992V15H94.9773V0.0599992H98.2353ZM103.72 5.766V15H100.462V5.766H103.72ZM100.246 2.22C100.246 1.968 100.294 1.734 100.39 1.518C100.486 1.29 100.618 1.092 100.786 0.923999C100.954 0.755999 101.146 0.623999 101.362 0.528C101.59 0.431999 101.83 0.383999 102.082 0.383999C102.334 0.383999 102.568 0.431999 102.784 0.528C103.012 0.623999 103.21 0.755999 103.378 0.923999C103.546 1.092 103.678 1.29 103.774 1.518C103.87 1.734 103.918 1.968 103.918 2.22C103.918 2.472 103.87 2.712 103.774 2.94C103.678 3.156 103.546 3.348 103.378 3.516C103.21 3.684 103.012 3.816 102.784 3.912C102.568 4.008 102.334 4.056 102.082 4.056C101.83 4.056 101.59 4.008 101.362 3.912C101.146 3.816 100.954 3.684 100.786 3.516C100.618 3.348 100.486 3.156 100.39 2.94C100.294 2.712 100.246 2.472 100.246 2.22ZM112.912 8.754C112.348 8.37 111.778 8.178 111.202 8.178C110.89 8.178 110.596 8.232 110.32 8.34C110.056 8.448 109.822 8.604 109.618 8.808C109.414 9 109.252 9.234 109.132 9.51C109.024 9.774 108.97 10.074 108.97 10.41C108.97 10.734 109.024 11.034 109.132 11.31C109.252 11.574 109.408 11.808 109.6 12.012C109.804 12.204 110.044 12.354 110.32 12.462C110.596 12.57 110.89 12.624 111.202 12.624C111.814 12.624 112.384 12.414 112.912 11.994V14.766C112.108 15.114 111.346 15.288 110.626 15.288C109.954 15.288 109.312 15.174 108.7 14.946C108.1 14.718 107.566 14.394 107.098 13.974C106.642 13.542 106.276 13.032 106 12.444C105.724 11.844 105.586 11.178 105.586 10.446C105.586 9.714 105.718 9.048 105.982 8.448C106.246 7.836 106.606 7.314 107.062 6.882C107.518 6.438 108.058 6.096 108.682 5.856C109.318 5.604 109.996 5.478 110.716 5.478C111.508 5.478 112.24 5.646 112.912 5.982V8.754ZM128.645 4.902C128.261 4.59 127.877 4.362 127.493 4.218C127.109 4.062 126.737 3.984 126.377 3.984C125.921 3.984 125.549 4.092 125.261 4.308C124.973 4.524 124.829 4.806 124.829 5.154C124.829 5.394 124.901 5.592 125.045 5.748C125.189 5.904 125.375 6.042 125.603 6.162C125.843 6.27 126.107 6.366 126.395 6.45C126.695 6.534 126.989 6.624 127.277 6.72C128.429 7.104 129.269 7.62 129.797 8.268C130.337 8.904 130.607 9.738 130.607 10.77C130.607 11.466 130.487 12.096 130.247 12.66C130.019 13.224 129.677 13.71 129.221 14.118C128.777 14.514 128.225 14.82 127.565 15.036C126.917 15.264 126.179 15.378 125.351 15.378C123.635 15.378 122.045 14.868 120.581 13.848L122.093 11.004C122.621 11.472 123.143 11.82 123.659 12.048C124.175 12.276 124.685 12.39 125.189 12.39C125.765 12.39 126.191 12.258 126.467 11.994C126.755 11.73 126.899 11.43 126.899 11.094C126.899 10.89 126.863 10.716 126.791 10.572C126.719 10.416 126.599 10.278 126.431 10.158C126.263 10.026 126.041 9.906 125.765 9.798C125.501 9.69 125.177 9.57 124.793 9.438C124.337 9.294 123.887 9.138 123.443 8.97C123.011 8.79 122.621 8.556 122.273 8.268C121.937 7.98 121.661 7.62 121.445 7.188C121.241 6.744 121.139 6.186 121.139 5.514C121.139 4.842 121.247 4.236 121.463 3.696C121.691 3.144 122.003 2.676 122.399 2.292C122.807 1.896 123.299 1.59 123.875 1.374C124.463 1.158 125.117 1.05 125.837 1.05C126.509 1.05 127.211 1.146 127.943 1.338C128.675 1.518 129.377 1.788 130.049 2.148L128.645 4.902ZM135.548 10.356C135.548 10.656 135.602 10.938 135.71 11.202C135.818 11.454 135.962 11.676 136.142 11.868C136.334 12.06 136.556 12.21 136.808 12.318C137.072 12.426 137.354 12.48 137.654 12.48C137.942 12.48 138.212 12.426 138.464 12.318C138.728 12.21 138.95 12.06 139.13 11.868C139.322 11.676 139.472 11.454 139.58 11.202C139.7 10.95 139.76 10.68 139.76 10.392C139.76 10.104 139.7 9.834 139.58 9.582C139.472 9.318 139.322 9.09 139.13 8.898C138.95 8.706 138.728 8.556 138.464 8.448C138.212 8.34 137.942 8.286 137.654 8.286C137.354 8.286 137.072 8.34 136.808 8.448C136.556 8.556 136.334 8.706 136.142 8.898C135.962 9.09 135.818 9.312 135.71 9.564C135.602 9.804 135.548 10.068 135.548 10.356ZM139.652 5.766H142.928V15H139.652V13.974C138.956 14.85 138.014 15.288 136.826 15.288C136.154 15.288 135.536 15.168 134.972 14.928C134.408 14.676 133.916 14.328 133.496 13.884C133.076 13.44 132.746 12.918 132.506 12.318C132.278 11.718 132.164 11.064 132.164 10.356C132.164 9.696 132.278 9.072 132.506 8.484C132.734 7.884 133.052 7.362 133.46 6.918C133.868 6.474 134.354 6.126 134.918 5.874C135.482 5.61 136.106 5.478 136.79 5.478C137.942 5.478 138.896 5.88 139.652 6.684V5.766ZM148.403 0.0599992V15H145.145V0.0599992H148.403ZM157.38 9.042C157.272 8.586 157.05 8.22 156.714 7.944C156.378 7.668 155.97 7.53 155.49 7.53C154.986 7.53 154.572 7.662 154.248 7.926C153.936 8.19 153.738 8.562 153.654 9.042H157.38ZM153.564 10.932C153.564 12.336 154.224 13.038 155.544 13.038C156.252 13.038 156.786 12.75 157.146 12.174H160.296C159.66 14.286 158.07 15.342 155.526 15.342C154.746 15.342 154.032 15.228 153.384 15C152.736 14.76 152.178 14.424 151.71 13.992C151.254 13.56 150.9 13.044 150.648 12.444C150.396 11.844 150.27 11.172 150.27 10.428C150.27 9.66 150.39 8.97 150.63 8.358C150.87 7.734 151.212 7.206 151.656 6.774C152.1 6.342 152.634 6.012 153.258 5.784C153.894 5.544 154.608 5.424 155.4 5.424C156.18 5.424 156.882 5.544 157.506 5.784C158.13 6.012 158.658 6.348 159.09 6.792C159.522 7.236 159.852 7.782 160.08 8.43C160.308 9.066 160.422 9.786 160.422 10.59V10.932H153.564ZM65.3877 26.4121V27.6152H63.7266L63.4805 29.5771H64.998V30.7803H63.3301L62.9268 34.0479L61.7236 33.8906L62.1133 30.7803H60.083L59.6729 34.0479L58.4561 33.8906L58.8457 30.7529H57.2871V29.5771H59.0166L59.2627 27.6152H57.6836V26.4121H59.4131L59.7891 23.3496L60.9854 23.5068L60.623 26.4121H62.6396L63.0225 23.3496L64.2188 23.5068L63.8564 26.4121H65.3877ZM62.4893 27.6152H60.4795L60.2334 29.5771H62.2568L62.4893 27.6152ZM71.1367 23.0762L72.3057 23.9512L69.7832 27.3828C69.9199 27.3646 70.0361 27.3509 70.1318 27.3418C70.2275 27.3327 70.3027 27.3281 70.3574 27.3281C71.2142 27.3281 71.9548 27.6562 72.5791 28.3125C73.1989 28.9596 73.5088 29.7389 73.5088 30.6504C73.5088 31.6165 73.1624 32.446 72.4697 33.1387C71.7816 33.8268 70.9544 34.1709 69.9883 34.1709C69.0312 34.1709 68.1927 33.8314 67.4727 33.1523C66.7663 32.4733 66.4131 31.6689 66.4131 30.7393C66.4131 29.9053 66.7572 29.0212 67.4453 28.0869L71.1367 23.0762ZM71.957 30.7529C71.957 30.1924 71.7633 29.7184 71.376 29.3311C70.984 28.9391 70.5124 28.7432 69.9609 28.7432C69.4049 28.7432 68.9333 28.9368 68.5459 29.3242C68.1585 29.7116 67.9648 30.181 67.9648 30.7324C67.9648 31.2839 68.1585 31.7533 68.5459 32.1406C68.9333 32.528 69.4072 32.7217 69.9678 32.7217C70.5146 32.7217 70.9818 32.528 71.3691 32.1406C71.7611 31.7487 71.957 31.2861 71.957 30.7529ZM79.5176 24.9355H74.3086V23.4453H82.1768L75.5186 34.3623L74.2539 33.5625L79.5176 24.9355ZM89.5869 24.9355H86.333L85.8135 26.6855C85.891 26.6764 85.9639 26.6696 86.0322 26.665C86.1051 26.6605 86.1712 26.6582 86.2305 26.6582C87.2559 26.6582 88.0967 27.0046 88.7529 27.6973C89.4137 28.3854 89.7441 29.2673 89.7441 30.3428C89.7441 31.4548 89.3704 32.3708 88.623 33.0908C87.8757 33.8109 86.9346 34.1709 85.7998 34.1709C84.4007 34.1709 83.2979 33.5146 82.4912 32.2021L83.6943 31.1836C84.027 31.7487 84.362 32.1475 84.6992 32.3799C85.0365 32.6077 85.4489 32.7217 85.9365 32.7217C86.5745 32.7217 87.11 32.4984 87.543 32.0518C87.9759 31.5915 88.1924 31.0332 88.1924 30.377C88.1924 29.7025 87.9782 29.151 87.5498 28.7227C87.1214 28.2806 86.5859 28.0596 85.9434 28.0596C85.2279 28.0596 84.6104 28.3717 84.0908 28.9961H83.5645L85.2256 23.4453H89.5869V24.9355ZM91.46 28.6543C91.46 26.9727 91.8519 25.6305 92.6357 24.6279C93.3376 23.721 94.1875 23.2676 95.1855 23.2676C96.1836 23.2676 97.0335 23.721 97.7354 24.6279C98.5192 25.6305 98.9111 26.9954 98.9111 28.7227C98.9111 30.4453 98.5192 31.8079 97.7354 32.8105C97.0335 33.7174 96.1859 34.1709 95.1924 34.1709C94.1989 34.1709 93.3467 33.7174 92.6357 32.8105C91.8519 31.8079 91.46 30.4225 91.46 28.6543ZM93.0254 28.6611C93.0254 29.8324 93.2282 30.8053 93.6338 31.5801C94.0394 32.3411 94.5566 32.7217 95.1855 32.7217C95.8099 32.7217 96.3271 32.3411 96.7373 31.5801C97.1475 30.8236 97.3525 29.8688 97.3525 28.7158C97.3525 27.5628 97.1475 26.6058 96.7373 25.8447C96.3271 25.0882 95.8099 24.71 95.1855 24.71C94.5658 24.71 94.0508 25.0882 93.6406 25.8447C93.2305 26.5967 93.0254 27.5355 93.0254 28.6611Z" fill="black"/>
<rect y="1" width="20" height="20" rx="5" fill="#FF8ABC"/>
</svg>
