<svg width="744" height="513" viewBox="0 0 744 513" fill="none" xmlns="http://www.w3.org/2000/svg">
<g clip-path="url(#clip0_922_197)">
<path d="M583.493 283.145C578.623 235.554 557.355 191.137 523.331 157.502L522.347 156.518L521.362 155.534L520.378 154.55L519.401 153.573C519.07 153.242 518.712 152.885 518.417 152.589L517.432 151.604L516.448 150.62L515.464 149.636L514.48 148.652L513.495 147.668L512.518 146.691C512.188 146.36 511.83 146.003 511.534 145.707L510.549 144.723L509.565 143.739L508.581 142.754L507.597 141.77L506.613 140.786L505.635 139.809C505.305 139.479 504.947 139.121 504.651 138.825L503.667 137.841C500.322 134.482 496.853 131.232 493.26 128.089L492.572 127.504L492.228 127.208L492.31 127.105L486.962 122.776L481.614 118.448L481.546 118.53C449.458 94.0857 414.095 80.5215 373.927 77.2388V77.1287L367.044 76.7708H367.01L363.052 76.5644V76.4887H361.607L360.168 76.413V76.4887H349.286V76.5988C319.876 77.4934 292.049 84.0931 266.494 96.281C238.963 109.419 214.784 128.674 194.672 153.504C162.209 193.597 145.818 244.329 148.687 295.834C151.556 347.34 173.478 395.938 210.193 432.179L211.177 433.163L212.161 434.141L213.146 435.125C213.476 435.455 213.834 435.813 214.13 436.109C214.426 436.405 214.818 436.797 215.114 437.093C215.41 437.389 215.761 437.781 216.091 438.077C216.422 438.373 216.78 438.765 217.076 439.061L218.06 440.045L219.044 441.022L220.028 442.006C220.359 442.337 220.717 442.695 221.012 442.991C221.308 443.286 221.701 443.679 221.997 443.975C222.293 444.271 222.644 444.663 222.974 444.959C223.305 445.255 223.662 445.647 223.958 445.943L224.943 446.927L225.927 447.904L226.911 448.888C227.241 449.219 227.599 449.576 227.895 449.872C228.191 450.168 228.584 450.561 228.88 450.857C229.175 451.153 229.527 451.545 229.857 451.841C234.998 456.964 240.399 461.82 246.038 466.389C277.979 492.253 316.873 508.066 357.802 511.827C398.731 515.589 439.856 507.13 475.977 487.52C512.097 467.911 541.591 438.032 560.728 401.662C579.864 365.291 587.784 324.064 583.486 283.193L583.493 283.145Z" fill="black" stroke="black" stroke-miterlimit="10"/>
<path d="M356.155 284.143L482.584 128.013C568.818 197.844 582.116 324.347 512.283 410.577C442.451 496.807 315.925 510.096 229.691 440.272C143.457 370.449 130.153 243.939 199.985 157.716C239.093 109.425 293.997 83.2467 356.134 83.2467L356.155 284.143Z" fill="#FF8ABC" stroke="black" stroke-width="5" stroke-miterlimit="10"/>
<path d="M356.154 284.143L366.671 83.4944C410.445 85.7861 448.472 99.4243 482.5 127L356.154 284.143Z" fill="#65E4FD" stroke="black" stroke-width="5" stroke-miterlimit="10"/>
<path d="M356.154 284.143V83.2467C360.931 83.2467 361.737 82.9713 366.5 83.2466L356.154 284.143Z" fill="#FFF721" stroke="black" stroke-width="5" stroke-miterlimit="10"/>
</g>
<path d="M213 328.5H75" stroke="black" stroke-width="5" stroke-linecap="round"/>
<path d="M56.3926 278.76L75.0006 328.5" stroke="black" stroke-width="5" stroke-linecap="round" stroke-linejoin="round"/>
<path d="M416 135.401L485.343 16.0878" stroke="black" stroke-width="5" stroke-linecap="round"/>
<path d="M537.697 24.9935L485.343 16.0884" stroke="black" stroke-width="5" stroke-linecap="round" stroke-linejoin="round"/>
<path d="M360.955 88.0645L364.078 38.9999" stroke="black" stroke-width="5" stroke-linecap="round"/>
<path d="M336.076 31.0001L364.047 38.9086" stroke="black" stroke-width="5" stroke-linecap="round" stroke-linejoin="round"/>
<path d="M5.36602 238.656H6.53602C7.83202 238.656 8.48002 238.092 8.48002 236.964C8.48002 235.836 7.83202 235.272 6.53602 235.272H5.36602V238.656ZM5.36602 246H1.83802V232.428H7.45402C8.97802 232.428 10.142 232.824 10.946 233.616C11.762 234.408 12.17 235.524 12.17 236.964C12.17 238.404 11.762 239.52 10.946 240.312C10.142 241.104 8.97802 241.5 7.45402 241.5H5.36602V246ZM16.9892 236.766V241.968C16.9892 243.108 17.5412 243.678 18.6452 243.678C19.7492 243.678 20.3012 243.108 20.3012 241.968V236.766H23.5592V242.598C23.5592 243.846 23.1452 244.782 22.3172 245.406C21.5012 246.03 20.2772 246.342 18.6452 246.342C17.0132 246.342 15.7832 246.03 14.9552 245.406C14.1392 244.782 13.7312 243.846 13.7312 242.598V236.766H16.9892ZM33.1343 241.41C33.1343 241.122 33.0803 240.852 32.9723 240.6C32.8643 240.336 32.7143 240.108 32.5223 239.916C32.3303 239.724 32.1083 239.574 31.8563 239.466C31.6043 239.346 31.3283 239.286 31.0283 239.286C30.7403 239.286 30.4703 239.34 30.2183 239.448C29.9663 239.556 29.7443 239.706 29.5523 239.898C29.3723 240.09 29.2223 240.318 29.1023 240.582C28.9943 240.834 28.9403 241.104 28.9403 241.392C28.9403 241.68 28.9943 241.95 29.1023 242.202C29.2103 242.454 29.3603 242.676 29.5523 242.868C29.7443 243.048 29.9663 243.198 30.2183 243.318C30.4823 243.426 30.7583 243.48 31.0463 243.48C31.3343 243.48 31.6043 243.426 31.8563 243.318C32.1083 243.21 32.3243 243.06 32.5043 242.868C32.6963 242.676 32.8463 242.454 32.9543 242.202C33.0743 241.95 33.1343 241.686 33.1343 241.41ZM29.0303 231.06V237.684C29.7983 236.88 30.7583 236.478 31.9103 236.478C32.5943 236.478 33.2183 236.61 33.7823 236.874C34.3583 237.126 34.8443 237.474 35.2402 237.918C35.6483 238.35 35.9663 238.866 36.1943 239.466C36.4223 240.054 36.5363 240.684 36.5363 241.356C36.5363 242.04 36.4163 242.682 36.1763 243.282C35.9483 243.882 35.6243 244.404 35.2043 244.848C34.7843 245.292 34.2863 245.646 33.7103 245.91C33.1463 246.162 32.5343 246.288 31.8743 246.288C30.6743 246.288 29.7263 245.85 29.0303 244.974V246H25.7723V231.06H29.0303ZM41.6513 231.06V246H38.3933V231.06H41.6513ZM47.1357 236.766V246H43.8777V236.766H47.1357ZM43.6617 233.22C43.6617 232.968 43.7097 232.734 43.8057 232.518C43.9017 232.29 44.0337 232.092 44.2017 231.924C44.3697 231.756 44.5617 231.624 44.7777 231.528C45.0057 231.432 45.2457 231.384 45.4977 231.384C45.7497 231.384 45.9837 231.432 46.1997 231.528C46.4277 231.624 46.6257 231.756 46.7937 231.924C46.9617 232.092 47.0937 232.29 47.1897 232.518C47.2857 232.734 47.3337 232.968 47.3337 233.22C47.3337 233.472 47.2857 233.712 47.1897 233.94C47.0937 234.156 46.9617 234.348 46.7937 234.516C46.6257 234.684 46.4277 234.816 46.1997 234.912C45.9837 235.008 45.7497 235.056 45.4977 235.056C45.2457 235.056 45.0057 235.008 44.7777 234.912C44.5617 234.816 44.3697 234.684 44.2017 234.516C44.0337 234.348 43.9017 234.156 43.8057 233.94C43.7097 233.712 43.6617 233.472 43.6617 233.22ZM56.3281 239.754C55.7641 239.37 55.1941 239.178 54.6181 239.178C54.3061 239.178 54.0121 239.232 53.7361 239.34C53.4721 239.448 53.2381 239.604 53.0341 239.808C52.8301 240 52.6681 240.234 52.5481 240.51C52.4401 240.774 52.3861 241.074 52.3861 241.41C52.3861 241.734 52.4401 242.034 52.5481 242.31C52.6681 242.574 52.8241 242.808 53.0161 243.012C53.2201 243.204 53.4601 243.354 53.7361 243.462C54.0121 243.57 54.3061 243.624 54.6181 243.624C55.2301 243.624 55.8001 243.414 56.3281 242.994V245.766C55.5241 246.114 54.7621 246.288 54.0421 246.288C53.3701 246.288 52.7281 246.174 52.1161 245.946C51.5161 245.718 50.9821 245.394 50.5141 244.974C50.0581 244.542 49.6921 244.032 49.4161 243.444C49.1401 242.844 49.0021 242.178 49.0021 241.446C49.0021 240.714 49.1341 240.048 49.3981 239.448C49.6621 238.836 50.0221 238.314 50.4781 237.882C50.9341 237.438 51.4741 237.096 52.0981 236.856C52.7341 236.604 53.4121 236.478 54.1321 236.478C54.9241 236.478 55.6561 236.646 56.3281 236.982V239.754ZM72.0615 235.902C71.6775 235.59 71.2935 235.362 70.9095 235.218C70.5255 235.062 70.1535 234.984 69.7935 234.984C69.3375 234.984 68.9655 235.092 68.6775 235.308C68.3895 235.524 68.2455 235.806 68.2455 236.154C68.2455 236.394 68.3175 236.592 68.4615 236.748C68.6055 236.904 68.7915 237.042 69.0195 237.162C69.2595 237.27 69.5235 237.366 69.8115 237.45C70.1115 237.534 70.4055 237.624 70.6935 237.72C71.8455 238.104 72.6855 238.62 73.2135 239.268C73.7535 239.904 74.0235 240.738 74.0235 241.77C74.0235 242.466 73.9035 243.096 73.6635 243.66C73.4355 244.224 73.0935 244.71 72.6375 245.118C72.1935 245.514 71.6415 245.82 70.9815 246.036C70.3335 246.264 69.5955 246.378 68.7675 246.378C67.0515 246.378 65.4615 245.868 63.9975 244.848L65.5095 242.004C66.0375 242.472 66.5595 242.82 67.0755 243.048C67.5915 243.276 68.1015 243.39 68.6055 243.39C69.1815 243.39 69.6075 243.258 69.8835 242.994C70.1715 242.73 70.3155 242.43 70.3155 242.094C70.3155 241.89 70.2795 241.716 70.2075 241.572C70.1355 241.416 70.0155 241.278 69.8475 241.158C69.6795 241.026 69.4575 240.906 69.1815 240.798C68.9175 240.69 68.5935 240.57 68.2095 240.438C67.7535 240.294 67.3035 240.138 66.8595 239.97C66.4275 239.79 66.0375 239.556 65.6895 239.268C65.3535 238.98 65.0775 238.62 64.8615 238.188C64.6575 237.744 64.5555 237.186 64.5555 236.514C64.5555 235.842 64.6635 235.236 64.8795 234.696C65.1075 234.144 65.4195 233.676 65.8155 233.292C66.2235 232.896 66.7155 232.59 67.2915 232.374C67.8795 232.158 68.5335 232.05 69.2535 232.05C69.9255 232.05 70.6275 232.146 71.3595 232.338C72.0915 232.518 72.7935 232.788 73.4655 233.148L72.0615 235.902ZM78.9642 241.356C78.9642 241.656 79.0182 241.938 79.1262 242.202C79.2342 242.454 79.3782 242.676 79.5582 242.868C79.7502 243.06 79.9722 243.21 80.2242 243.318C80.4882 243.426 80.7702 243.48 81.0702 243.48C81.3582 243.48 81.6282 243.426 81.8802 243.318C82.1442 243.21 82.3662 243.06 82.5462 242.868C82.7382 242.676 82.8882 242.454 82.9962 242.202C83.1162 241.95 83.1762 241.68 83.1762 241.392C83.1762 241.104 83.1162 240.834 82.9962 240.582C82.8882 240.318 82.7382 240.09 82.5462 239.898C82.3662 239.706 82.1442 239.556 81.8802 239.448C81.6282 239.34 81.3582 239.286 81.0702 239.286C80.7702 239.286 80.4882 239.34 80.2242 239.448C79.9722 239.556 79.7502 239.706 79.5582 239.898C79.3782 240.09 79.2342 240.312 79.1262 240.564C79.0182 240.804 78.9642 241.068 78.9642 241.356ZM83.0682 236.766H86.3442V246H83.0682V244.974C82.3722 245.85 81.4302 246.288 80.2422 246.288C79.5702 246.288 78.9522 246.168 78.3882 245.928C77.8242 245.676 77.3322 245.328 76.9122 244.884C76.4922 244.44 76.1622 243.918 75.9222 243.318C75.6942 242.718 75.5802 242.064 75.5802 241.356C75.5802 240.696 75.6942 240.072 75.9222 239.484C76.1502 238.884 76.4682 238.362 76.8762 237.918C77.2842 237.474 77.7702 237.126 78.3342 236.874C78.8982 236.61 79.5222 236.478 80.2062 236.478C81.3582 236.478 82.3122 236.88 83.0682 237.684V236.766ZM91.8193 231.06V246H88.5613V231.06H91.8193ZM100.796 240.042C100.688 239.586 100.466 239.22 100.13 238.944C99.7937 238.668 99.3857 238.53 98.9057 238.53C98.4017 238.53 97.9877 238.662 97.6637 238.926C97.3517 239.19 97.1537 239.562 97.0697 240.042H100.796ZM96.9797 241.932C96.9797 243.336 97.6397 244.038 98.9597 244.038C99.6677 244.038 100.202 243.75 100.562 243.174H103.712C103.076 245.286 101.486 246.342 98.9417 246.342C98.1617 246.342 97.4477 246.228 96.7997 246C96.1517 245.76 95.5937 245.424 95.1257 244.992C94.6697 244.56 94.3157 244.044 94.0637 243.444C93.8117 242.844 93.6857 242.172 93.6857 241.428C93.6857 240.66 93.8057 239.97 94.0457 239.358C94.2857 238.734 94.6277 238.206 95.0717 237.774C95.5157 237.342 96.0497 237.012 96.6737 236.784C97.3097 236.544 98.0237 236.424 98.8157 236.424C99.5957 236.424 100.298 236.544 100.922 236.784C101.546 237.012 102.074 237.348 102.506 237.792C102.938 238.236 103.268 238.782 103.496 239.43C103.724 240.066 103.838 240.786 103.838 241.59V241.932H96.9797ZM39.1836 257.412V258.615H37.5225L37.2764 260.577H38.7939V261.78H37.126L36.7227 265.048L35.5195 264.891L35.9092 261.78H33.8789L33.4688 265.048L32.252 264.891L32.6416 261.753H31.083V260.577H32.8125L33.0586 258.615H31.4795V257.412H33.209L33.585 254.35L34.7812 254.507L34.4189 257.412H36.4355L36.8184 254.35L38.0146 254.507L37.6523 257.412H39.1836ZM36.2852 258.615H34.2754L34.0293 260.577H36.0527L36.2852 258.615ZM45.3701 255.936H40.1611V254.445H48.0293L41.3711 265.362L40.1064 264.563L45.3701 255.936ZM54.2158 255.936H49.0068V254.445H56.875L50.2168 265.362L48.9521 264.563L54.2158 255.936ZM64.2852 255.936H61.0312L60.5117 257.686C60.5892 257.676 60.6621 257.67 60.7305 257.665C60.8034 257.661 60.8695 257.658 60.9287 257.658C61.9541 257.658 62.7949 258.005 63.4512 258.697C64.112 259.385 64.4424 260.267 64.4424 261.343C64.4424 262.455 64.0687 263.371 63.3213 264.091C62.5739 264.811 61.6328 265.171 60.498 265.171C59.099 265.171 57.9961 264.515 57.1895 263.202L58.3926 262.184C58.7253 262.749 59.0602 263.148 59.3975 263.38C59.7347 263.608 60.1471 263.722 60.6348 263.722C61.2728 263.722 61.8083 263.498 62.2412 263.052C62.6742 262.592 62.8906 262.033 62.8906 261.377C62.8906 260.703 62.6764 260.151 62.248 259.723C61.8197 259.281 61.2842 259.06 60.6416 259.06C59.9261 259.06 59.3086 259.372 58.7891 259.996H58.2627L59.9238 254.445H64.2852V255.936ZM66.1582 259.654C66.1582 257.973 66.5501 256.631 67.334 255.628C68.0358 254.721 68.8857 254.268 69.8838 254.268C70.8818 254.268 71.7318 254.721 72.4336 255.628C73.2174 256.631 73.6094 257.996 73.6094 259.723C73.6094 261.445 73.2174 262.808 72.4336 263.811C71.7318 264.718 70.8841 265.171 69.8906 265.171C68.8971 265.171 68.0449 264.718 67.334 263.811C66.5501 262.808 66.1582 261.423 66.1582 259.654ZM67.7236 259.661C67.7236 260.832 67.9264 261.805 68.332 262.58C68.7376 263.341 69.2549 263.722 69.8838 263.722C70.5081 263.722 71.0254 263.341 71.4355 262.58C71.8457 261.824 72.0508 260.869 72.0508 259.716C72.0508 258.563 71.8457 257.606 71.4355 256.845C71.0254 256.088 70.5081 255.71 69.8838 255.71C69.264 255.71 68.749 256.088 68.3389 256.845C67.9287 257.597 67.7236 258.536 67.7236 259.661Z" fill="black"/>
<path d="M568.55 25.9641C567.734 24.9681 566.726 24.4701 565.526 24.4701C564.998 24.4701 564.506 24.5661 564.05 24.7581C563.606 24.9501 563.222 25.2141 562.898 25.5501C562.574 25.8741 562.316 26.2641 562.124 26.7201C561.944 27.1761 561.854 27.6681 561.854 28.1961C561.854 28.7361 561.944 29.2341 562.124 29.6901C562.316 30.1461 562.574 30.5421 562.898 30.8781C563.234 31.2141 563.624 31.4781 564.068 31.6701C564.512 31.8621 564.992 31.9581 565.508 31.9581C566.636 31.9581 567.65 31.4781 568.55 30.5181V34.6941L568.19 34.8201C567.65 35.0121 567.146 35.1501 566.678 35.2341C566.21 35.3301 565.748 35.3781 565.292 35.3781C564.356 35.3781 563.456 35.2041 562.592 34.8561C561.74 34.4961 560.984 33.9981 560.324 33.3621C559.676 32.7141 559.154 31.9521 558.758 31.0761C558.362 30.1881 558.164 29.2221 558.164 28.1781C558.164 27.1341 558.356 26.1801 558.74 25.3161C559.136 24.4401 559.658 23.6901 560.306 23.0661C560.966 22.4301 561.728 21.9381 562.592 21.5901C563.456 21.2301 564.362 21.0501 565.31 21.0501C565.85 21.0501 566.378 21.1101 566.894 21.2301C567.422 21.3381 567.974 21.5121 568.55 21.7521V25.9641ZM573.553 30.3381C573.553 30.6501 573.607 30.9381 573.715 31.2021C573.835 31.4541 573.985 31.6761 574.165 31.8681C574.357 32.0601 574.579 32.2101 574.831 32.3181C575.095 32.4261 575.371 32.4801 575.659 32.4801C575.947 32.4801 576.217 32.4261 576.469 32.3181C576.733 32.2101 576.955 32.0601 577.135 31.8681C577.327 31.6761 577.477 31.4541 577.585 31.2021C577.705 30.9381 577.765 30.6561 577.765 30.3561C577.765 30.0681 577.705 29.7981 577.585 29.5461C577.477 29.2821 577.327 29.0541 577.135 28.8621C576.955 28.6701 576.733 28.5201 576.469 28.4121C576.217 28.3041 575.947 28.2501 575.659 28.2501C575.371 28.2501 575.095 28.3041 574.831 28.4121C574.579 28.5201 574.357 28.6701 574.165 28.8621C573.985 29.0541 573.835 29.2761 573.715 29.5281C573.607 29.7801 573.553 30.0501 573.553 30.3381ZM570.115 30.3021C570.115 29.6181 570.253 28.9821 570.529 28.3941C570.805 27.7941 571.189 27.2781 571.681 26.8461C572.173 26.4021 572.755 26.0541 573.427 25.8021C574.111 25.5501 574.855 25.4241 575.659 25.4241C576.451 25.4241 577.183 25.5501 577.855 25.8021C578.539 26.0421 579.127 26.3841 579.619 26.8281C580.123 27.2601 580.513 27.7821 580.789 28.3941C581.065 28.9941 581.203 29.6601 581.203 30.3921C581.203 31.1241 581.059 31.7961 580.771 32.4081C580.495 33.0081 580.111 33.5301 579.619 33.9741C579.127 34.4061 578.533 34.7421 577.837 34.9821C577.153 35.2221 576.409 35.3421 575.605 35.3421C574.813 35.3421 574.081 35.2221 573.409 34.9821C572.737 34.7421 572.155 34.4001 571.663 33.9561C571.183 33.5121 570.805 32.9841 570.529 32.3721C570.253 31.7481 570.115 31.0581 570.115 30.3021ZM583.079 25.7661H586.337V26.9001C587.225 26.0481 588.221 25.6221 589.325 25.6221C590.693 25.6221 591.737 26.1981 592.457 27.3501C593.189 26.1861 594.233 25.6041 595.589 25.6041C596.021 25.6041 596.429 25.6701 596.813 25.8021C597.197 25.9221 597.527 26.1201 597.803 26.3961C598.079 26.6601 598.295 27.0081 598.451 27.4401C598.619 27.8721 598.703 28.3941 598.703 29.0061V35.0001H595.445V30.4461C595.445 29.9781 595.409 29.5941 595.337 29.2941C595.277 28.9941 595.181 28.7601 595.049 28.5921C594.929 28.4241 594.785 28.3101 594.617 28.2501C594.449 28.1901 594.269 28.1601 594.077 28.1601C593.033 28.1601 592.511 28.9221 592.511 30.4461V35.0001H589.253V30.4461C589.253 29.9781 589.223 29.5941 589.163 29.2941C589.103 28.9821 589.013 28.7361 588.893 28.5561C588.785 28.3761 588.641 28.2561 588.461 28.1961C588.281 28.1241 588.071 28.0881 587.831 28.0881C587.627 28.0881 587.435 28.1181 587.255 28.1781C587.075 28.2381 586.913 28.3581 586.769 28.5381C586.637 28.7061 586.529 28.9461 586.445 29.2581C586.373 29.5581 586.337 29.9541 586.337 30.4461V35.0001H583.079V25.7661ZM600.938 25.7661H604.196V26.9001C605.084 26.0481 606.08 25.6221 607.184 25.6221C608.552 25.6221 609.596 26.1981 610.316 27.3501C611.048 26.1861 612.092 25.6041 613.448 25.6041C613.88 25.6041 614.288 25.6701 614.672 25.8021C615.056 25.9221 615.386 26.1201 615.662 26.3961C615.938 26.6601 616.154 27.0081 616.31 27.4401C616.478 27.8721 616.562 28.3941 616.562 29.0061V35.0001H613.304V30.4461C613.304 29.9781 613.268 29.5941 613.196 29.2941C613.136 28.9941 613.04 28.7601 612.908 28.5921C612.788 28.4241 612.644 28.3101 612.476 28.2501C612.308 28.1901 612.128 28.1601 611.936 28.1601C610.892 28.1601 610.37 28.9221 610.37 30.4461V35.0001H607.112V30.4461C607.112 29.9781 607.082 29.5941 607.022 29.2941C606.962 28.9821 606.872 28.7361 606.752 28.5561C606.644 28.3761 606.5 28.2561 606.32 28.1961C606.14 28.1241 605.93 28.0881 605.69 28.0881C605.486 28.0881 605.294 28.1181 605.114 28.1781C604.934 28.2381 604.772 28.3581 604.628 28.5381C604.496 28.7061 604.388 28.9461 604.304 29.2581C604.232 29.5581 604.196 29.9541 604.196 30.4461V35.0001H600.938V25.7661ZM622.056 25.7661V30.9681C622.056 32.1081 622.608 32.6781 623.712 32.6781C624.816 32.6781 625.368 32.1081 625.368 30.9681V25.7661H628.626V31.5981C628.626 32.8461 628.212 33.7821 627.384 34.4061C626.568 35.0301 625.344 35.3421 623.712 35.3421C622.08 35.3421 620.85 35.0301 620.022 34.4061C619.206 33.7821 618.798 32.8461 618.798 31.5981V25.7661H622.056ZM630.839 25.7661H634.097V26.9361C634.541 26.3961 634.991 26.0361 635.447 25.8561C635.903 25.6641 636.437 25.5681 637.049 25.5681C637.697 25.5681 638.249 25.6761 638.705 25.8921C639.173 26.0961 639.569 26.3901 639.893 26.7741C640.157 27.0861 640.337 27.4341 640.433 27.8181C640.529 28.2021 640.577 28.6401 640.577 29.1321V35.0001H637.319V30.3381C637.319 29.8821 637.283 29.5161 637.211 29.2401C637.151 28.9521 637.037 28.7241 636.869 28.5561C636.725 28.4121 636.563 28.3101 636.383 28.2501C636.203 28.1901 636.011 28.1601 635.807 28.1601C635.255 28.1601 634.829 28.3281 634.529 28.6641C634.241 28.9881 634.097 29.4561 634.097 30.0681V35.0001H630.839V25.7661ZM646.05 25.7661V35.0001H642.792V25.7661H646.05ZM642.576 22.2201C642.576 21.9681 642.624 21.7341 642.72 21.5181C642.816 21.2901 642.948 21.0921 643.116 20.9241C643.284 20.7561 643.476 20.6241 643.692 20.5281C643.92 20.4321 644.16 20.3841 644.412 20.3841C644.664 20.3841 644.898 20.4321 645.114 20.5281C645.342 20.6241 645.54 20.7561 645.708 20.9241C645.876 21.0921 646.008 21.2901 646.104 21.5181C646.2 21.7341 646.248 21.9681 646.248 22.2201C646.248 22.4721 646.2 22.7121 646.104 22.9401C646.008 23.1561 645.876 23.3481 645.708 23.5161C645.54 23.6841 645.342 23.8161 645.114 23.9121C644.898 24.0081 644.664 24.0561 644.412 24.0561C644.16 24.0561 643.92 24.0081 643.692 23.9121C643.476 23.8161 643.284 23.6841 643.116 23.5161C642.948 23.3481 642.816 23.1561 642.72 22.9401C642.624 22.7121 642.576 22.4721 642.576 22.2201ZM651.912 28.4841V35.0001H648.654V28.4841H647.574V25.7661H648.654V22.9941H651.912V25.7661H653.766V28.4841H651.912ZM658.339 33.7401L653.875 25.7661H657.655L660.121 30.5001L662.515 25.7661H666.259L658.843 39.6081H655.189L658.339 33.7401ZM677.335 27.6561H678.505C679.801 27.6561 680.449 27.0921 680.449 25.9641C680.449 24.8361 679.801 24.2721 678.505 24.2721H677.335V27.6561ZM677.335 35.0001H673.807V21.4281H679.423C680.947 21.4281 682.111 21.8241 682.915 22.6161C683.731 23.4081 684.139 24.5241 684.139 25.9641C684.139 27.4041 683.731 28.5201 682.915 29.3121C682.111 30.1041 680.947 30.5001 679.423 30.5001H677.335V35.0001ZM685.7 25.7661H688.958V27.2781C689.306 26.7261 689.732 26.3061 690.236 26.0181C690.74 25.7181 691.328 25.5681 692 25.5681C692.084 25.5681 692.174 25.5681 692.27 25.5681C692.378 25.5681 692.498 25.5801 692.63 25.6041V28.7181C692.198 28.5021 691.73 28.3941 691.226 28.3941C690.47 28.3941 689.9 28.6221 689.516 29.0781C689.144 29.5221 688.958 30.1761 688.958 31.0401V35.0001H685.7V25.7661ZM700.94 29.0421C700.832 28.5861 700.61 28.2201 700.274 27.9441C699.938 27.6681 699.53 27.5301 699.05 27.5301C698.546 27.5301 698.132 27.6621 697.808 27.9261C697.496 28.1901 697.298 28.5621 697.214 29.0421H700.94ZM697.124 30.9321C697.124 32.3361 697.784 33.0381 699.104 33.0381C699.812 33.0381 700.346 32.7501 700.706 32.1741H703.856C703.22 34.2861 701.63 35.3421 699.086 35.3421C698.306 35.3421 697.592 35.2281 696.944 35.0001C696.296 34.7601 695.738 34.4241 695.27 33.9921C694.814 33.5601 694.46 33.0441 694.208 32.4441C693.956 31.8441 693.83 31.1721 693.83 30.4281C693.83 29.6601 693.95 28.9701 694.19 28.3581C694.43 27.7341 694.772 27.2061 695.216 26.7741C695.66 26.3421 696.194 26.0121 696.818 25.7841C697.454 25.5441 698.168 25.4241 698.96 25.4241C699.74 25.4241 700.442 25.5441 701.066 25.7841C701.69 26.0121 702.218 26.3481 702.65 26.7921C703.082 27.2361 703.412 27.7821 703.64 28.4301C703.868 29.0661 703.982 29.7861 703.982 30.5901V30.9321H697.124ZM711.965 28.1421C711.365 27.8301 710.777 27.6741 710.201 27.6741C709.901 27.6741 709.655 27.7341 709.463 27.8541C709.283 27.9741 709.193 28.1361 709.193 28.3401C709.193 28.4481 709.205 28.5381 709.229 28.6101C709.265 28.6701 709.331 28.7301 709.427 28.7901C709.535 28.8501 709.685 28.9041 709.877 28.9521C710.081 29.0001 710.345 29.0601 710.669 29.1321C711.569 29.3121 712.241 29.6361 712.685 30.1041C713.129 30.5601 713.351 31.1481 713.351 31.8681C713.351 32.4081 713.243 32.8941 713.027 33.3261C712.811 33.7581 712.511 34.1241 712.127 34.4241C711.743 34.7121 711.281 34.9341 710.741 35.0901C710.201 35.2581 709.607 35.3421 708.959 35.3421C707.711 35.3421 706.481 34.9881 705.269 34.2801L706.457 31.9761C707.369 32.6001 708.233 32.9121 709.049 32.9121C709.349 32.9121 709.595 32.8461 709.787 32.7141C709.979 32.5821 710.075 32.4141 710.075 32.2101C710.075 32.0901 710.057 31.9941 710.021 31.9221C709.997 31.8381 709.937 31.7661 709.841 31.7061C709.745 31.6341 709.601 31.5741 709.409 31.5261C709.229 31.4661 708.989 31.4061 708.689 31.3461C707.681 31.1421 706.973 30.8421 706.565 30.4461C706.169 30.0381 705.971 29.4801 705.971 28.7721C705.971 28.2561 706.067 27.7941 706.259 27.3861C706.451 26.9661 706.727 26.6121 707.087 26.3241C707.447 26.0361 707.879 25.8141 708.383 25.6581C708.899 25.5021 709.469 25.4241 710.093 25.4241C711.113 25.4241 712.103 25.6221 713.063 26.0181L711.965 28.1421ZM718.027 30.3561C718.027 30.6561 718.081 30.9381 718.189 31.2021C718.297 31.4541 718.441 31.6761 718.621 31.8681C718.813 32.0601 719.035 32.2101 719.287 32.3181C719.551 32.4261 719.833 32.4801 720.133 32.4801C720.421 32.4801 720.691 32.4261 720.943 32.3181C721.207 32.2101 721.429 32.0601 721.609 31.8681C721.801 31.6761 721.951 31.4541 722.059 31.2021C722.179 30.9501 722.239 30.6801 722.239 30.3921C722.239 30.1041 722.179 29.8341 722.059 29.5821C721.951 29.3181 721.801 29.0901 721.609 28.8981C721.429 28.7061 721.207 28.5561 720.943 28.4481C720.691 28.3401 720.421 28.2861 720.133 28.2861C719.833 28.2861 719.551 28.3401 719.287 28.4481C719.035 28.5561 718.813 28.7061 718.621 28.8981C718.441 29.0901 718.297 29.3121 718.189 29.5641C718.081 29.8041 718.027 30.0681 718.027 30.3561ZM722.131 25.7661H725.407V35.0001H722.131V33.9741C721.435 34.8501 720.493 35.2881 719.305 35.2881C718.633 35.2881 718.015 35.1681 717.451 34.9281C716.887 34.6761 716.395 34.3281 715.975 33.8841C715.555 33.4401 715.225 32.9181 714.985 32.3181C714.757 31.7181 714.643 31.0641 714.643 30.3561C714.643 29.6961 714.757 29.0721 714.985 28.4841C715.213 27.8841 715.531 27.3621 715.939 26.9181C716.347 26.4741 716.833 26.1261 717.397 25.8741C717.961 25.6101 718.585 25.4781 719.269 25.4781C720.421 25.4781 721.375 25.8801 722.131 26.6841V25.7661ZM730.882 20.0601V35.0001H727.624V20.0601H730.882ZM739.858 29.0421C739.75 28.5861 739.528 28.2201 739.192 27.9441C738.856 27.6681 738.448 27.5301 737.968 27.5301C737.464 27.5301 737.05 27.6621 736.726 27.9261C736.414 28.1901 736.216 28.5621 736.132 29.0421H739.858ZM736.042 30.9321C736.042 32.3361 736.702 33.0381 738.022 33.0381C738.73 33.0381 739.264 32.7501 739.624 32.1741H742.774C742.138 34.2861 740.548 35.3421 738.004 35.3421C737.224 35.3421 736.51 35.2281 735.862 35.0001C735.214 34.7601 734.656 34.4241 734.188 33.9921C733.732 33.5601 733.378 33.0441 733.126 32.4441C732.874 31.8441 732.748 31.1721 732.748 30.4281C732.748 29.6601 732.868 28.9701 733.108 28.3581C733.348 27.7341 733.69 27.2061 734.134 26.7741C734.578 26.3421 735.112 26.0121 735.736 25.7841C736.372 25.5441 737.086 25.4241 737.878 25.4241C738.658 25.4241 739.36 25.5441 739.984 25.7841C740.608 26.0121 741.136 26.3481 741.568 26.7921C742 27.2361 742.33 27.7821 742.558 28.4301C742.786 29.0661 742.9 29.7861 742.9 30.5901V30.9321H736.042ZM637.286 46.4122V47.6153H635.625L635.379 49.5772H636.896V50.7803H635.229L634.825 54.0479L633.622 53.8907L634.012 50.7803H631.981L631.571 54.0479L630.354 53.8907L630.744 50.753H629.186V49.5772H630.915L631.161 47.6153H629.582V46.4122H631.312L631.688 43.3497L632.884 43.5069L632.521 46.4122H634.538L634.921 43.3497L636.117 43.5069L635.755 46.4122H637.286ZM634.388 47.6153H632.378L632.132 49.5772H634.155L634.388 47.6153ZM641.046 52.503H644.977V54.0001H637.888L641.552 49.5635C641.912 49.1215 642.213 48.7387 642.454 48.4151C642.7 48.0915 642.887 47.8204 643.015 47.6016C643.274 47.1732 643.404 46.7881 643.404 46.4464C643.404 45.9542 643.231 45.5417 642.885 45.209C642.538 44.8764 642.11 44.71 641.6 44.71C640.533 44.71 639.923 45.3412 639.768 46.6036H638.182C638.437 44.3796 639.56 43.2676 641.552 43.2676C642.513 43.2676 643.32 43.573 643.972 44.1837C644.628 44.7943 644.956 45.5508 644.956 46.4532C644.956 47.0274 644.803 47.5902 644.498 48.1417C644.343 48.4288 644.115 48.7706 643.814 49.1671C643.518 49.559 643.142 50.0238 642.687 50.5616L641.046 52.503ZM646.774 48.6544C646.774 46.9727 647.166 45.6306 647.95 44.628C648.652 43.7211 649.502 43.2676 650.5 43.2676C651.498 43.2676 652.348 43.7211 653.05 44.628C653.834 45.6306 654.226 46.9955 654.226 48.7227C654.226 50.4454 653.834 51.808 653.05 52.8106C652.348 53.7175 651.5 54.171 650.507 54.171C649.513 54.171 648.661 53.7175 647.95 52.8106C647.166 51.808 646.774 50.4226 646.774 48.6544ZM648.34 48.6612C648.34 49.8324 648.543 50.8054 648.948 51.5801C649.354 52.3412 649.871 52.7217 650.5 52.7217C651.124 52.7217 651.642 52.3412 652.052 51.5801C652.462 50.8236 652.667 49.8689 652.667 48.7159C652.667 47.5629 652.462 46.6059 652.052 45.8448C651.642 45.0883 651.124 44.71 650.5 44.71C649.88 44.71 649.365 45.0883 648.955 45.8448C648.545 46.5967 648.34 47.5355 648.34 48.6612ZM655.415 48.6544C655.415 46.9727 655.807 45.6306 656.591 44.628C657.293 43.7211 658.143 43.2676 659.141 43.2676C660.139 43.2676 660.989 43.7211 661.69 44.628C662.474 45.6306 662.866 46.9955 662.866 48.7227C662.866 50.4454 662.474 51.808 661.69 52.8106C660.989 53.7175 660.141 54.171 659.147 54.171C658.154 54.171 657.302 53.7175 656.591 52.8106C655.807 51.808 655.415 50.4226 655.415 48.6544ZM656.98 48.6612C656.98 49.8324 657.183 50.8054 657.589 51.5801C657.994 52.3412 658.512 52.7217 659.141 52.7217C659.765 52.7217 660.282 52.3412 660.692 51.5801C661.103 50.8236 661.308 49.8689 661.308 48.7159C661.308 47.5629 661.103 46.6059 660.692 45.8448C660.282 45.0883 659.765 44.71 659.141 44.71C658.521 44.71 658.006 45.0883 657.596 45.8448C657.186 46.5967 656.98 47.5355 656.98 48.6612ZM664.056 48.6544C664.056 46.9727 664.448 45.6306 665.231 44.628C665.933 43.7211 666.783 43.2676 667.781 43.2676C668.779 43.2676 669.629 43.7211 670.331 44.628C671.115 45.6306 671.507 46.9955 671.507 48.7227C671.507 50.4454 671.115 51.808 670.331 52.8106C669.629 53.7175 668.782 54.171 667.788 54.171C666.795 54.171 665.942 53.7175 665.231 52.8106C664.448 51.808 664.056 50.4226 664.056 48.6544ZM665.621 48.6612C665.621 49.8324 665.824 50.8054 666.229 51.5801C666.635 52.3412 667.152 52.7217 667.781 52.7217C668.406 52.7217 668.923 52.3412 669.333 51.5801C669.743 50.8236 669.948 49.8689 669.948 48.7159C669.948 47.5629 669.743 46.6059 669.333 45.8448C668.923 45.0883 668.406 44.71 667.781 44.71C667.161 44.71 666.646 45.0883 666.236 45.8448C665.826 46.5967 665.621 47.5355 665.621 48.6612Z" fill="black"/>
<path d="M147 18.9021C146.616 18.5901 146.232 18.3621 145.848 18.2181C145.464 18.0621 145.092 17.9841 144.732 17.9841C144.276 17.9841 143.904 18.0921 143.616 18.3081C143.328 18.5241 143.184 18.8061 143.184 19.1541C143.184 19.3941 143.256 19.5921 143.4 19.7481C143.544 19.9041 143.73 20.0421 143.958 20.1621C144.198 20.2701 144.462 20.3661 144.75 20.4501C145.05 20.5341 145.344 20.6241 145.632 20.7201C146.784 21.1041 147.624 21.6201 148.152 22.2681C148.692 22.9041 148.962 23.7381 148.962 24.7701C148.962 25.4661 148.842 26.0961 148.602 26.6601C148.374 27.2241 148.032 27.7101 147.576 28.1181C147.132 28.5141 146.58 28.8201 145.92 29.0361C145.272 29.2641 144.534 29.3781 143.706 29.3781C141.99 29.3781 140.4 28.8681 138.936 27.8481L140.448 25.0041C140.976 25.4721 141.498 25.8201 142.014 26.0481C142.53 26.2761 143.04 26.3901 143.544 26.3901C144.12 26.3901 144.546 26.2581 144.822 25.9941C145.11 25.7301 145.254 25.4301 145.254 25.0941C145.254 24.8901 145.218 24.7161 145.146 24.5721C145.074 24.4161 144.954 24.2781 144.786 24.1581C144.618 24.0261 144.396 23.9061 144.12 23.7981C143.856 23.6901 143.532 23.5701 143.148 23.4381C142.692 23.2941 142.242 23.1381 141.798 22.9701C141.366 22.7901 140.976 22.5561 140.628 22.2681C140.292 21.9801 140.016 21.6201 139.8 21.1881C139.596 20.7441 139.494 20.1861 139.494 19.5141C139.494 18.8421 139.602 18.2361 139.818 17.6961C140.046 17.1441 140.358 16.6761 140.754 16.2921C141.162 15.8961 141.654 15.5901 142.23 15.3741C142.818 15.1581 143.472 15.0501 144.192 15.0501C144.864 15.0501 145.566 15.1461 146.298 15.3381C147.03 15.5181 147.732 15.7881 148.404 16.1481L147 18.9021ZM154.137 19.7661V29.0001H150.879V19.7661H154.137ZM150.663 16.2201C150.663 15.9681 150.711 15.7341 150.807 15.5181C150.903 15.2901 151.035 15.0921 151.203 14.9241C151.371 14.7561 151.563 14.6241 151.779 14.5281C152.007 14.4321 152.247 14.3841 152.499 14.3841C152.751 14.3841 152.985 14.4321 153.201 14.5281C153.429 14.6241 153.627 14.7561 153.795 14.9241C153.963 15.0921 154.095 15.2901 154.191 15.5181C154.287 15.7341 154.335 15.9681 154.335 16.2201C154.335 16.4721 154.287 16.7121 154.191 16.9401C154.095 17.1561 153.963 17.3481 153.795 17.5161C153.627 17.6841 153.429 17.8161 153.201 17.9121C152.985 18.0081 152.751 18.0561 152.499 18.0561C152.247 18.0561 152.007 18.0081 151.779 17.9121C151.563 17.8161 151.371 17.6841 151.203 17.5161C151.035 17.3481 150.903 17.1561 150.807 16.9401C150.711 16.7121 150.663 16.4721 150.663 16.2201ZM156.363 19.7661H159.621V20.9001C160.509 20.0481 161.505 19.6221 162.609 19.6221C163.977 19.6221 165.021 20.1981 165.741 21.3501C166.473 20.1861 167.517 19.6041 168.873 19.6041C169.305 19.6041 169.713 19.6701 170.097 19.8021C170.481 19.9221 170.811 20.1201 171.087 20.3961C171.363 20.6601 171.579 21.0081 171.735 21.4401C171.903 21.8721 171.987 22.3941 171.987 23.0061V29.0001H168.729V24.4461C168.729 23.9781 168.693 23.5941 168.621 23.2941C168.561 22.9941 168.465 22.7601 168.333 22.5921C168.213 22.4241 168.069 22.3101 167.901 22.2501C167.733 22.1901 167.553 22.1601 167.361 22.1601C166.317 22.1601 165.795 22.9221 165.795 24.4461V29.0001H162.537V24.4461C162.537 23.9781 162.507 23.5941 162.447 23.2941C162.387 22.9821 162.297 22.7361 162.177 22.5561C162.069 22.3761 161.925 22.2561 161.745 22.1961C161.565 22.1241 161.355 22.0881 161.115 22.0881C160.911 22.0881 160.719 22.1181 160.539 22.1781C160.359 22.2381 160.197 22.3581 160.053 22.5381C159.921 22.7061 159.813 22.9461 159.729 23.2581C159.657 23.5581 159.621 23.9541 159.621 24.4461V29.0001H156.363V19.7661ZM177.48 19.7661V24.9681C177.48 26.1081 178.032 26.6781 179.136 26.6781C180.24 26.6781 180.792 26.1081 180.792 24.9681V19.7661H184.05V25.5981C184.05 26.8461 183.636 27.7821 182.808 28.4061C181.992 29.0301 180.768 29.3421 179.136 29.3421C177.504 29.3421 176.274 29.0301 175.446 28.4061C174.63 27.7821 174.222 26.8461 174.222 25.5981V19.7661H177.48ZM189.521 14.0601V29.0001H186.263V14.0601H189.521ZM194.772 24.3561C194.772 24.6561 194.826 24.9381 194.934 25.2021C195.042 25.4541 195.186 25.6761 195.366 25.8681C195.558 26.0601 195.78 26.2101 196.032 26.3181C196.296 26.4261 196.578 26.4801 196.878 26.4801C197.166 26.4801 197.436 26.4261 197.688 26.3181C197.952 26.2101 198.174 26.0601 198.354 25.8681C198.546 25.6761 198.696 25.4541 198.804 25.2021C198.924 24.9501 198.984 24.6801 198.984 24.3921C198.984 24.1041 198.924 23.8341 198.804 23.5821C198.696 23.3181 198.546 23.0901 198.354 22.8981C198.174 22.7061 197.952 22.5561 197.688 22.4481C197.436 22.3401 197.166 22.2861 196.878 22.2861C196.578 22.2861 196.296 22.3401 196.032 22.4481C195.78 22.5561 195.558 22.7061 195.366 22.8981C195.186 23.0901 195.042 23.3121 194.934 23.5641C194.826 23.8041 194.772 24.0681 194.772 24.3561ZM198.876 19.7661H202.152V29.0001H198.876V27.9741C198.18 28.8501 197.238 29.2881 196.05 29.2881C195.378 29.2881 194.76 29.1681 194.196 28.9281C193.632 28.6761 193.14 28.3281 192.72 27.8841C192.3 27.4401 191.97 26.9181 191.73 26.3181C191.502 25.7181 191.388 25.0641 191.388 24.3561C191.388 23.6961 191.502 23.0721 191.73 22.4841C191.958 21.8841 192.276 21.3621 192.684 20.9181C193.092 20.4741 193.578 20.1261 194.142 19.8741C194.706 19.6101 195.33 19.4781 196.014 19.4781C197.166 19.4781 198.12 19.8801 198.876 20.6841V19.7661ZM208.005 22.4841V29.0001H204.747V22.4841H203.667V19.7661H204.747V16.9941H208.005V19.7661H209.859V22.4841H208.005ZM214.588 19.7661V29.0001H211.33V19.7661H214.588ZM211.114 16.2201C211.114 15.9681 211.162 15.7341 211.258 15.5181C211.354 15.2901 211.486 15.0921 211.654 14.9241C211.822 14.7561 212.014 14.6241 212.23 14.5281C212.458 14.4321 212.698 14.3841 212.95 14.3841C213.202 14.3841 213.436 14.4321 213.652 14.5281C213.88 14.6241 214.078 14.7561 214.246 14.9241C214.414 15.0921 214.546 15.2901 214.642 15.5181C214.738 15.7341 214.786 15.9681 214.786 16.2201C214.786 16.4721 214.738 16.7121 214.642 16.9401C214.546 17.1561 214.414 17.3481 214.246 17.5161C214.078 17.6841 213.88 17.8161 213.652 17.9121C213.436 18.0081 213.202 18.0561 212.95 18.0561C212.698 18.0561 212.458 18.0081 212.23 17.9121C212.014 17.8161 211.822 17.6841 211.654 17.5161C211.486 17.3481 211.354 17.1561 211.258 16.9401C211.162 16.7121 211.114 16.4721 211.114 16.2201ZM219.892 24.3381C219.892 24.6501 219.946 24.9381 220.054 25.2021C220.174 25.4541 220.324 25.6761 220.504 25.8681C220.696 26.0601 220.918 26.2101 221.17 26.3181C221.434 26.4261 221.71 26.4801 221.998 26.4801C222.286 26.4801 222.556 26.4261 222.808 26.3181C223.072 26.2101 223.294 26.0601 223.474 25.8681C223.666 25.6761 223.816 25.4541 223.924 25.2021C224.044 24.9381 224.104 24.6561 224.104 24.3561C224.104 24.0681 224.044 23.7981 223.924 23.5461C223.816 23.2821 223.666 23.0541 223.474 22.8621C223.294 22.6701 223.072 22.5201 222.808 22.4121C222.556 22.3041 222.286 22.2501 221.998 22.2501C221.71 22.2501 221.434 22.3041 221.17 22.4121C220.918 22.5201 220.696 22.6701 220.504 22.8621C220.324 23.0541 220.174 23.2761 220.054 23.5281C219.946 23.7801 219.892 24.0501 219.892 24.3381ZM216.454 24.3021C216.454 23.6181 216.592 22.9821 216.868 22.3941C217.144 21.7941 217.528 21.2781 218.02 20.8461C218.512 20.4021 219.094 20.0541 219.766 19.8021C220.45 19.5501 221.194 19.4241 221.998 19.4241C222.79 19.4241 223.522 19.5501 224.194 19.8021C224.878 20.0421 225.466 20.3841 225.958 20.8281C226.462 21.2601 226.852 21.7821 227.128 22.3941C227.404 22.9941 227.542 23.6601 227.542 24.3921C227.542 25.1241 227.398 25.7961 227.11 26.4081C226.834 27.0081 226.45 27.5301 225.958 27.9741C225.466 28.4061 224.872 28.7421 224.176 28.9821C223.492 29.2221 222.748 29.3421 221.944 29.3421C221.152 29.3421 220.42 29.2221 219.748 28.9821C219.076 28.7421 218.494 28.4001 218.002 27.9561C217.522 27.5121 217.144 26.9841 216.868 26.3721C216.592 25.7481 216.454 25.0581 216.454 24.3021ZM229.418 19.7661H232.676V20.9361C233.12 20.3961 233.57 20.0361 234.026 19.8561C234.482 19.6641 235.016 19.5681 235.628 19.5681C236.276 19.5681 236.828 19.6761 237.284 19.8921C237.752 20.0961 238.148 20.3901 238.472 20.7741C238.736 21.0861 238.916 21.4341 239.012 21.8181C239.108 22.2021 239.156 22.6401 239.156 23.1321V29.0001H235.898V24.3381C235.898 23.8821 235.862 23.5161 235.79 23.2401C235.73 22.9521 235.616 22.7241 235.448 22.5561C235.304 22.4121 235.142 22.3101 234.962 22.2501C234.782 22.1901 234.59 22.1601 234.386 22.1601C233.834 22.1601 233.408 22.3281 233.108 22.6641C232.82 22.9881 232.676 23.4561 232.676 24.0681V29.0001H229.418V19.7661ZM251.322 15.4281V26.0121H255.552V29.0001H247.794V15.4281H251.322ZM260.092 24.3561C260.092 24.6561 260.146 24.9381 260.254 25.2021C260.362 25.4541 260.506 25.6761 260.686 25.8681C260.878 26.0601 261.1 26.2101 261.352 26.3181C261.616 26.4261 261.898 26.4801 262.198 26.4801C262.486 26.4801 262.756 26.4261 263.008 26.3181C263.272 26.2101 263.494 26.0601 263.674 25.8681C263.866 25.6761 264.016 25.4541 264.124 25.2021C264.244 24.9501 264.304 24.6801 264.304 24.3921C264.304 24.1041 264.244 23.8341 264.124 23.5821C264.016 23.3181 263.866 23.0901 263.674 22.8981C263.494 22.7061 263.272 22.5561 263.008 22.4481C262.756 22.3401 262.486 22.2861 262.198 22.2861C261.898 22.2861 261.616 22.3401 261.352 22.4481C261.1 22.5561 260.878 22.7061 260.686 22.8981C260.506 23.0901 260.362 23.3121 260.254 23.5641C260.146 23.8041 260.092 24.0681 260.092 24.3561ZM264.196 19.7661H267.472V29.0001H264.196V27.9741C263.5 28.8501 262.558 29.2881 261.37 29.2881C260.698 29.2881 260.08 29.1681 259.516 28.9281C258.952 28.6761 258.46 28.3281 258.04 27.8841C257.62 27.4401 257.29 26.9181 257.05 26.3181C256.822 25.7181 256.708 25.0641 256.708 24.3561C256.708 23.6961 256.822 23.0721 257.05 22.4841C257.278 21.8841 257.596 21.3621 258.004 20.9181C258.412 20.4741 258.898 20.1261 259.462 19.8741C260.026 19.6101 260.65 19.4781 261.334 19.4781C262.486 19.4781 263.44 19.8801 264.196 20.6841V19.7661ZM277.051 24.4101C277.051 24.1221 276.997 23.8521 276.889 23.6001C276.781 23.3361 276.631 23.1081 276.439 22.9161C276.247 22.7241 276.025 22.5741 275.773 22.4661C275.521 22.3461 275.245 22.2861 274.945 22.2861C274.657 22.2861 274.387 22.3401 274.135 22.4481C273.883 22.5561 273.661 22.7061 273.469 22.8981C273.289 23.0901 273.139 23.3181 273.019 23.5821C272.911 23.8341 272.857 24.1041 272.857 24.3921C272.857 24.6801 272.911 24.9501 273.019 25.2021C273.127 25.4541 273.277 25.6761 273.469 25.8681C273.661 26.0481 273.883 26.1981 274.135 26.3181C274.399 26.4261 274.675 26.4801 274.963 26.4801C275.251 26.4801 275.521 26.4261 275.773 26.3181C276.025 26.2101 276.241 26.0601 276.421 25.8681C276.613 25.6761 276.763 25.4541 276.871 25.2021C276.991 24.9501 277.051 24.6861 277.051 24.4101ZM272.947 14.0601V20.6841C273.715 19.8801 274.675 19.4781 275.827 19.4781C276.511 19.4781 277.135 19.6101 277.699 19.8741C278.275 20.1261 278.761 20.4741 279.157 20.9181C279.565 21.3501 279.883 21.8661 280.111 22.4661C280.339 23.0541 280.453 23.6841 280.453 24.3561C280.453 25.0401 280.333 25.6821 280.093 26.2821C279.865 26.8821 279.541 27.4041 279.121 27.8481C278.701 28.2921 278.203 28.6461 277.627 28.9101C277.063 29.1621 276.451 29.2881 275.791 29.2881C274.591 29.2881 273.643 28.8501 272.947 27.9741V29.0001H269.689V14.0601H272.947ZM295.699 21.4122V22.6153H294.038L293.792 24.5772H295.31V25.7803H293.642L293.238 29.0479L292.035 28.8907L292.425 25.7803H290.395L289.984 29.0479L288.768 28.8907L289.157 25.753H287.599V24.5772H289.328L289.574 22.6153H287.995V21.4122H289.725L290.101 18.3497L291.297 18.5069L290.935 21.4122H292.951L293.334 18.3497L294.53 18.5069L294.168 21.4122H295.699ZM292.801 22.6153H290.791L290.545 24.5772H292.568L292.801 22.6153ZM299.459 27.503H303.39V29.0001H296.301L299.965 24.5635C300.325 24.1215 300.626 23.7387 300.867 23.4151C301.113 23.0915 301.3 22.8204 301.428 22.6016C301.688 22.1732 301.817 21.7881 301.817 21.4464C301.817 20.9542 301.644 20.5417 301.298 20.209C300.951 19.8764 300.523 19.71 300.013 19.71C298.946 19.71 298.336 20.3412 298.181 21.6036H296.595C296.85 19.3796 297.973 18.2676 299.965 18.2676C300.926 18.2676 301.733 18.573 302.385 19.1837C303.041 19.7943 303.369 20.5508 303.369 21.4532C303.369 22.0274 303.216 22.5902 302.911 23.1417C302.756 23.4288 302.528 23.7706 302.228 24.1671C301.931 24.559 301.555 25.0238 301.1 25.5616L299.459 27.503ZM311.955 19.9356H308.701L308.182 21.6856C308.259 21.6765 308.332 21.6697 308.4 21.6651C308.473 21.6605 308.539 21.6583 308.599 21.6583C309.624 21.6583 310.465 22.0046 311.121 22.6973C311.782 23.3855 312.112 24.2673 312.112 25.3428C312.112 26.4548 311.739 27.3708 310.991 28.0909C310.244 28.8109 309.303 29.171 308.168 29.171C306.769 29.171 305.666 28.5147 304.859 27.2022L306.062 26.1837C306.395 26.7488 306.73 27.1475 307.067 27.3799C307.405 27.6078 307.817 27.7217 308.305 27.7217C308.943 27.7217 309.478 27.4984 309.911 27.0518C310.344 26.5915 310.561 26.0333 310.561 25.377C310.561 24.7025 310.346 24.1511 309.918 23.7227C309.49 23.2807 308.954 23.0596 308.312 23.0596C307.596 23.0596 306.979 23.3718 306.459 23.9962H305.933L307.594 18.4454H311.955V19.9356ZM313.828 23.6544C313.828 21.9727 314.22 20.6306 315.004 19.628C315.706 18.7211 316.556 18.2676 317.554 18.2676C318.552 18.2676 319.402 18.7211 320.104 19.628C320.887 20.6306 321.279 21.9955 321.279 23.7227C321.279 25.4454 320.887 26.808 320.104 27.8106C319.402 28.7175 318.554 29.171 317.561 29.171C316.567 29.171 315.715 28.7175 315.004 27.8106C314.22 26.808 313.828 25.4226 313.828 23.6544ZM315.394 23.6612C315.394 24.8324 315.596 25.8054 316.002 26.5801C316.408 27.3412 316.925 27.7217 317.554 27.7217C318.178 27.7217 318.695 27.3412 319.105 26.5801C319.516 25.8236 319.721 24.8689 319.721 23.7159C319.721 22.5629 319.516 21.6059 319.105 20.8448C318.695 20.0883 318.178 19.71 317.554 19.71C316.934 19.71 316.419 20.0883 316.009 20.8448C315.599 21.5967 315.394 22.5355 315.394 23.6612ZM137.968 38.2999L137.865 36.4542H139.239L139.13 38.2999L140.859 37.6299L141.283 38.9356L139.492 39.4005L140.661 40.836L139.554 41.6426L138.549 40.084L137.551 41.6426L136.437 40.836L137.612 39.4073L135.821 38.9356L136.245 37.6299L137.968 38.2999ZM147.053 38.9424V48.0001H145.46V38.9424H143.033V37.4454H149.473V38.9424H147.053ZM156.09 45.0333H151.318C151.359 45.5801 151.537 46.0154 151.852 46.3389C152.166 46.6579 152.569 46.8174 153.062 46.8174C153.444 46.8174 153.761 46.7263 154.012 46.544C154.258 46.3617 154.538 46.0245 154.853 45.5323L156.151 46.2569C155.951 46.5987 155.739 46.8926 155.516 47.1387C155.292 47.3803 155.053 47.5808 154.798 47.7403C154.543 47.8952 154.267 48.0092 153.971 48.0821C153.674 48.155 153.353 48.1915 153.007 48.1915C152.013 48.1915 151.216 47.8725 150.614 47.2344C150.013 46.5919 149.712 45.7396 149.712 44.6778C149.712 43.6251 150.004 42.7728 150.587 42.1212C151.175 41.4786 151.954 41.1573 152.925 41.1573C153.905 41.1573 154.679 41.4695 155.249 42.0938C155.814 42.7136 156.097 43.5727 156.097 44.671L156.09 45.0333ZM154.511 43.7755C154.297 42.9551 153.779 42.545 152.959 42.545C152.772 42.545 152.597 42.5746 152.433 42.6339C152.269 42.6885 152.118 42.7706 151.981 42.8799C151.849 42.9848 151.735 43.1124 151.64 43.2628C151.544 43.4131 151.471 43.584 151.421 43.7755H154.511ZM162.687 41.3419H164.231V48.0001H162.687V47.3028C162.053 47.8952 161.372 48.1915 160.643 48.1915C159.722 48.1915 158.961 47.8588 158.359 47.1934C157.762 46.5144 157.464 45.6667 157.464 44.6505C157.464 43.6524 157.762 42.8207 158.359 42.1553C158.956 41.49 159.704 41.1573 160.602 41.1573C161.376 41.1573 162.071 41.4763 162.687 42.1143V41.3419ZM159.036 44.6505C159.036 45.2885 159.207 45.808 159.549 46.209C159.9 46.6146 160.342 46.8174 160.875 46.8174C161.445 46.8174 161.905 46.6215 162.256 46.2296C162.607 45.824 162.782 45.309 162.782 44.6846C162.782 44.0603 162.607 43.5453 162.256 43.1397C161.905 42.7432 161.449 42.545 160.889 42.545C160.36 42.545 159.918 42.7455 159.562 43.1465C159.212 43.5521 159.036 44.0534 159.036 44.6505ZM166.173 41.3419H167.711V41.9571C168.007 41.6472 168.26 41.4376 168.47 41.3282C168.693 41.2143 168.973 41.1573 169.311 41.1573C170.062 41.1573 170.657 41.4854 171.095 42.1417C171.578 41.4854 172.232 41.1573 173.057 41.1573C174.556 41.1573 175.306 42.0665 175.306 43.8848V48.0001H173.761V44.3018C173.761 43.6638 173.683 43.2126 173.528 42.9483C173.369 42.6794 173.107 42.545 172.742 42.545C172.318 42.545 172.008 42.7045 171.812 43.0235C171.621 43.3425 171.525 43.8552 171.525 44.5616V48.0001H169.98V44.3223C169.98 43.1374 169.639 42.545 168.955 42.545C168.522 42.545 168.205 42.7068 168.005 43.0303C167.809 43.3539 167.711 43.8643 167.711 44.5616V48.0001H166.173V41.3419ZM178.197 46.0245L179.564 46.5577L177.616 50.461L176.577 50.0303L178.197 46.0245ZM186.182 48.0001V37.4454H188.396C189.458 37.4454 190.297 37.5502 190.912 37.7598C191.573 37.9649 192.172 38.3135 192.71 38.8057C193.799 39.7992 194.344 41.1049 194.344 42.7227C194.344 44.3451 193.776 45.6576 192.642 46.6602C192.072 47.1615 191.475 47.5102 190.851 47.7061C190.267 47.9021 189.44 48.0001 188.369 48.0001H186.182ZM187.774 46.503H188.492C189.208 46.503 189.802 46.4278 190.276 46.2774C190.75 46.1179 191.179 45.865 191.562 45.5186C192.345 44.8031 192.737 43.8712 192.737 42.7227C192.737 41.5652 192.35 40.6264 191.575 39.9063C190.878 39.2637 189.85 38.9424 188.492 38.9424H187.774V46.503ZM202.123 45.0333H197.352C197.393 45.5801 197.57 46.0154 197.885 46.3389C198.199 46.6579 198.603 46.8174 199.095 46.8174C199.478 46.8174 199.794 46.7263 200.045 46.544C200.291 46.3617 200.571 46.0245 200.886 45.5323L202.185 46.2569C201.984 46.5987 201.772 46.8926 201.549 47.1387C201.326 47.3803 201.086 47.5808 200.831 47.7403C200.576 47.8952 200.3 48.0092 200.004 48.0821C199.708 48.155 199.386 48.1915 199.04 48.1915C198.047 48.1915 197.249 47.8725 196.647 47.2344C196.046 46.5919 195.745 45.7396 195.745 44.6778C195.745 43.6251 196.037 42.7728 196.62 42.1212C197.208 41.4786 197.987 41.1573 198.958 41.1573C199.938 41.1573 200.713 41.4695 201.282 42.0938C201.847 42.7136 202.13 43.5727 202.13 44.671L202.123 45.0333ZM200.544 43.7755C200.33 42.9551 199.812 42.545 198.992 42.545C198.805 42.545 198.63 42.5746 198.466 42.6339C198.302 42.6885 198.151 42.7706 198.015 42.8799C197.882 42.9848 197.769 43.1124 197.673 43.2628C197.577 43.4131 197.504 43.584 197.454 43.7755H200.544ZM207.681 42.4766L206.409 43.1534C206.209 42.7432 205.96 42.5381 205.664 42.5381C205.523 42.5381 205.402 42.586 205.302 42.6817C205.201 42.7728 205.151 42.8913 205.151 43.0372C205.151 43.2924 205.448 43.5453 206.04 43.796C206.856 44.1469 207.405 44.4704 207.688 44.7667C207.97 45.0629 208.111 45.4616 208.111 45.963C208.111 46.6055 207.874 47.1433 207.4 47.5762C206.94 47.9864 206.384 48.1915 205.732 48.1915C204.616 48.1915 203.825 47.6469 203.36 46.5577L204.673 45.9493C204.855 46.2683 204.994 46.4711 205.09 46.5577C205.277 46.7309 205.5 46.8174 205.76 46.8174C206.279 46.8174 206.539 46.5805 206.539 46.1065C206.539 45.8331 206.339 45.5779 205.938 45.3409C205.783 45.2634 205.628 45.1882 205.473 45.1153C205.318 45.0424 205.16 44.9672 205.001 44.8897C204.554 44.671 204.24 44.4522 204.058 44.2335C203.825 43.9555 203.709 43.5977 203.709 43.1602C203.709 42.5814 203.907 42.1029 204.304 41.7247C204.709 41.3464 205.201 41.1573 205.78 41.1573C206.632 41.1573 207.266 41.5971 207.681 42.4766ZM211.037 41.3419V48.0001H209.499V41.3419H211.037ZM209.267 38.5733C209.267 38.3044 209.365 38.072 209.561 37.876C209.757 37.6801 209.991 37.5821 210.265 37.5821C210.543 37.5821 210.78 37.6801 210.976 37.876C211.172 38.0674 211.27 38.3021 211.27 38.5801C211.27 38.8581 211.172 39.0951 210.976 39.2911C210.784 39.487 210.549 39.585 210.271 39.585C209.993 39.585 209.757 39.487 209.561 39.2911C209.365 39.0951 209.267 38.8559 209.267 38.5733ZM219.425 47.8428C219.425 48.1573 219.413 48.433 219.391 48.67C219.372 48.9115 219.345 49.1234 219.309 49.3057C219.199 49.807 218.985 50.2377 218.666 50.5977C218.064 51.2904 217.237 51.6368 216.185 51.6368C215.296 51.6368 214.564 51.3975 213.99 50.919C213.398 50.4268 213.056 49.7455 212.965 48.8751H214.51C214.569 49.2032 214.667 49.4561 214.804 49.6339C215.123 50.0486 215.588 50.2559 216.198 50.2559C217.324 50.2559 217.887 49.5655 217.887 48.1846V47.2549C217.276 47.8793 216.572 48.1915 215.774 48.1915C214.868 48.1915 214.125 47.8633 213.546 47.2071C212.963 46.5417 212.671 45.71 212.671 44.712C212.671 43.7413 212.942 42.9164 213.484 42.2374C214.068 41.5173 214.838 41.1573 215.795 41.1573C216.633 41.1573 217.331 41.4695 217.887 42.0938V41.3419H219.425V47.8428ZM217.948 44.6846C217.948 44.0375 217.775 43.5202 217.429 43.1329C217.078 42.7364 216.629 42.5381 216.082 42.5381C215.499 42.5381 215.038 42.7546 214.701 43.1876C214.396 43.5749 214.243 44.0762 214.243 44.6915C214.243 45.2976 214.396 45.7943 214.701 46.1817C215.034 46.6055 215.494 46.8174 216.082 46.8174C216.67 46.8174 217.135 46.6033 217.477 46.1749C217.791 45.7875 217.948 45.2908 217.948 44.6846ZM221.366 41.3419H222.911V41.9571C223.449 41.4239 224.055 41.1573 224.729 41.1573C225.504 41.1573 226.108 41.4011 226.541 41.8887C226.915 42.3034 227.102 42.9802 227.102 43.919V48.0001H225.557V44.2813C225.557 43.6251 225.465 43.1716 225.283 42.921C225.105 42.6658 224.782 42.5381 224.312 42.5381C223.802 42.5381 223.44 42.7068 223.226 43.044C223.016 43.3767 222.911 43.9577 222.911 44.7872V48.0001H221.366V41.3419ZM235.113 45.0333H230.342C230.383 45.5801 230.561 46.0154 230.875 46.3389C231.189 46.6579 231.593 46.8174 232.085 46.8174C232.468 46.8174 232.785 46.7263 233.035 46.544C233.281 46.3617 233.562 46.0245 233.876 45.5323L235.175 46.2569C234.974 46.5987 234.762 46.8926 234.539 47.1387C234.316 47.3803 234.076 47.5808 233.821 47.7403C233.566 47.8952 233.29 48.0092 232.994 48.0821C232.698 48.155 232.377 48.1915 232.03 48.1915C231.037 48.1915 230.239 47.8725 229.638 47.2344C229.036 46.5919 228.735 45.7396 228.735 44.6778C228.735 43.6251 229.027 42.7728 229.61 42.1212C230.198 41.4786 230.978 41.1573 231.948 41.1573C232.928 41.1573 233.703 41.4695 234.272 42.0938C234.838 42.7136 235.12 43.5727 235.12 44.671L235.113 45.0333ZM233.534 43.7755C233.32 42.9551 232.803 42.545 231.982 42.545C231.796 42.545 231.62 42.5746 231.456 42.6339C231.292 42.6885 231.142 42.7706 231.005 42.8799C230.873 42.9848 230.759 43.1124 230.663 43.2628C230.567 43.4131 230.494 43.584 230.444 43.7755H233.534ZM236.802 41.3419H238.34V41.9366C238.622 41.6404 238.873 41.4376 239.092 41.3282C239.315 41.2143 239.579 41.1573 239.885 41.1573C240.29 41.1573 240.714 41.2894 241.156 41.5538L240.452 42.962C240.16 42.7523 239.876 42.6475 239.598 42.6475C238.759 42.6475 238.34 43.281 238.34 44.5479V48.0001H236.802V41.3419ZM246.481 42.128L248.382 44.4249L248.443 44.3565C248.648 44.1332 248.842 43.9144 249.024 43.7003C249.207 43.4861 249.382 43.2696 249.551 43.0508L250.59 44.1172C250.462 44.2995 250.294 44.5115 250.084 44.753C249.879 44.9945 249.633 45.2725 249.346 45.587L251.301 48.0001H249.318L248.266 46.7081C247.299 47.7061 246.295 48.2051 245.251 48.2051C244.317 48.2051 243.524 47.9066 242.872 47.3096C242.234 46.7081 241.915 45.9652 241.915 45.0811C241.915 44.0284 242.421 43.1534 243.433 42.4561L244.123 41.9844C244.132 41.9799 244.148 41.9685 244.171 41.9503C244.194 41.932 244.226 41.907 244.267 41.8751C243.569 41.1322 243.221 40.4008 243.221 39.6807C243.221 38.9698 243.453 38.391 243.918 37.9444C244.392 37.4978 245.003 37.2745 245.75 37.2745C246.475 37.2745 247.074 37.4909 247.548 37.9239C248.022 38.3568 248.259 38.9037 248.259 39.5645C248.259 40.0202 248.129 40.4327 247.869 40.8018C247.614 41.171 247.151 41.613 246.481 42.128ZM245.217 43.0235L245.128 43.085C244.476 43.5362 244.032 43.8985 243.795 44.1719C243.562 44.4454 243.446 44.7348 243.446 45.0401C243.446 45.4776 243.622 45.8786 243.973 46.2432C244.337 46.5941 244.738 46.7696 245.176 46.7696C245.791 46.7696 246.5 46.3663 247.302 45.5596L245.217 43.0235ZM245.559 41.0069L245.688 40.9112C245.912 40.7426 246.096 40.5967 246.242 40.4737C246.388 40.3461 246.493 40.239 246.557 40.1524C246.693 39.9838 246.762 39.7764 246.762 39.5303C246.762 39.2523 246.668 39.0268 246.481 38.8536C246.295 38.6804 246.044 38.5938 245.729 38.5938C245.442 38.5938 245.201 38.6827 245.005 38.8604C244.809 39.029 244.711 39.2455 244.711 39.5098C244.711 39.8197 244.834 40.1251 245.08 40.4258L245.477 40.9044C245.49 40.9271 245.518 40.9613 245.559 41.0069ZM257.843 38.9424H254.165V41.4786H257.713V42.9756H254.165V48.0001H252.572V37.4454H257.843V38.9424ZM260.803 41.3419V45.1631C260.803 46.266 261.238 46.8174 262.108 46.8174C262.979 46.8174 263.414 46.266 263.414 45.1631V41.3419H264.952V45.1973C264.952 45.7305 264.886 46.1908 264.754 46.5782C264.626 46.9245 264.405 47.2367 264.091 47.5147C263.571 47.9659 262.91 48.1915 262.108 48.1915C261.311 48.1915 260.652 47.9659 260.133 47.5147C259.814 47.2367 259.588 46.9245 259.456 46.5782C259.328 46.2683 259.265 45.808 259.265 45.1973V41.3419H260.803ZM268.479 42.7774V48.0001H266.941V42.7774H266.285V41.3419H266.941V38.9014H268.479V41.3419H269.676V42.7774H268.479ZM272.26 41.3419V45.1631C272.26 46.266 272.695 46.8174 273.565 46.8174C274.436 46.8174 274.871 46.266 274.871 45.1631V41.3419H276.409V45.1973C276.409 45.7305 276.343 46.1908 276.211 46.5782C276.083 46.9245 275.862 47.2367 275.548 47.5147C275.028 47.9659 274.368 48.1915 273.565 48.1915C272.768 48.1915 272.109 47.9659 271.59 47.5147C271.271 47.2367 271.045 46.9245 270.913 46.5782C270.785 46.2683 270.722 45.808 270.722 45.1973V41.3419H272.26ZM278.351 41.3419H279.889V41.9366C280.171 41.6404 280.422 41.4376 280.641 41.3282C280.864 41.2143 281.128 41.1573 281.434 41.1573C281.839 41.1573 282.263 41.2894 282.705 41.5538L282.001 42.962C281.709 42.7523 281.424 42.6475 281.146 42.6475C280.308 42.6475 279.889 43.281 279.889 44.5479V48.0001H278.351V41.3419ZM289.555 45.0333H284.783C284.824 45.5801 285.002 46.0154 285.316 46.3389C285.631 46.6579 286.034 46.8174 286.526 46.8174C286.909 46.8174 287.226 46.7263 287.477 46.544C287.723 46.3617 288.003 46.0245 288.317 45.5323L289.616 46.2569C289.416 46.5987 289.204 46.8926 288.98 47.1387C288.757 47.3803 288.518 47.5808 288.263 47.7403C288.007 47.8952 287.732 48.0092 287.436 48.0821C287.139 48.155 286.818 48.1915 286.472 48.1915C285.478 48.1915 284.681 47.8725 284.079 47.2344C283.478 46.5919 283.177 45.7396 283.177 44.6778C283.177 43.6251 283.468 42.7728 284.052 42.1212C284.64 41.4786 285.419 41.1573 286.39 41.1573C287.369 41.1573 288.144 41.4695 288.714 42.0938C289.279 42.7136 289.562 43.5727 289.562 44.671L289.555 45.0333ZM287.976 43.7755C287.761 42.9551 287.244 42.545 286.424 42.545C286.237 42.545 286.062 42.5746 285.897 42.6339C285.733 42.6885 285.583 42.7706 285.446 42.8799C285.314 42.9848 285.2 43.1124 285.104 43.2628C285.009 43.4131 284.936 43.584 284.886 43.7755H287.976ZM297.149 42.7774V48.0001H295.611V42.7774H294.955V41.3419H295.611V38.9014H297.149V41.3419H298.346V42.7774H297.149ZM305.578 45.0333H300.807C300.848 45.5801 301.025 46.0154 301.34 46.3389C301.654 46.6579 302.058 46.8174 302.55 46.8174C302.933 46.8174 303.249 46.7263 303.5 46.544C303.746 46.3617 304.026 46.0245 304.341 45.5323L305.64 46.2569C305.439 46.5987 305.227 46.8926 305.004 47.1387C304.781 47.3803 304.541 47.5808 304.286 47.7403C304.031 47.8952 303.755 48.0092 303.459 48.0821C303.163 48.155 302.841 48.1915 302.495 48.1915C301.502 48.1915 300.704 47.8725 300.103 47.2344C299.501 46.5919 299.2 45.7396 299.2 44.6778C299.2 43.6251 299.492 42.7728 300.075 42.1212C300.663 41.4786 301.442 41.1573 302.413 41.1573C303.393 41.1573 304.168 41.4695 304.737 42.0938C305.302 42.7136 305.585 43.5727 305.585 44.671L305.578 45.0333ZM303.999 43.7755C303.785 42.9551 303.268 42.545 302.447 42.545C302.26 42.545 302.085 42.5746 301.921 42.6339C301.757 42.6885 301.606 42.7706 301.47 42.8799C301.338 42.9848 301.224 43.1124 301.128 43.2628C301.032 43.4131 300.959 43.584 300.909 43.7755H303.999ZM312.175 41.3419H313.72V48.0001H312.175V47.3028C311.541 47.8952 310.86 48.1915 310.131 48.1915C309.21 48.1915 308.449 47.8588 307.848 47.1934C307.251 46.5144 306.952 45.6667 306.952 44.6505C306.952 43.6524 307.251 42.8207 307.848 42.1553C308.445 41.49 309.192 41.1573 310.09 41.1573C310.865 41.1573 311.56 41.4763 312.175 42.1143V41.3419ZM308.524 44.6505C308.524 45.2885 308.695 45.808 309.037 46.209C309.388 46.6146 309.83 46.8174 310.363 46.8174C310.933 46.8174 311.393 46.6215 311.744 46.2296C312.095 45.824 312.271 45.309 312.271 44.6846C312.271 44.0603 312.095 43.5453 311.744 43.1397C311.393 42.7432 310.938 42.545 310.377 42.545C309.848 42.545 309.406 42.7455 309.051 43.1465C308.7 43.5521 308.524 44.0534 308.524 44.6505ZM315.661 41.3419H317.199V41.9571C317.495 41.6472 317.748 41.4376 317.958 41.3282C318.181 41.2143 318.462 41.1573 318.799 41.1573C319.551 41.1573 320.146 41.4854 320.583 42.1417C321.066 41.4854 321.72 41.1573 322.545 41.1573C324.044 41.1573 324.794 42.0665 324.794 43.8848V48.0001H323.249V44.3018C323.249 43.6638 323.172 43.2126 323.017 42.9483C322.857 42.6794 322.595 42.545 322.23 42.545C321.807 42.545 321.497 42.7045 321.301 43.0235C321.109 43.3425 321.014 43.8552 321.014 44.5616V48.0001H319.469V44.3223C319.469 43.1374 319.127 42.545 318.443 42.545C318.01 42.545 317.694 42.7068 317.493 43.0303C317.297 43.3539 317.199 43.8643 317.199 44.5616V48.0001H315.661V41.3419Z" fill="black"/>
<defs>
<clipPath id="clip0_922_197">
<rect width="437" height="437" fill="white" transform="translate(148 76.0001)"/>
</clipPath>
</defs>
</svg>
