<svg width="52" height="53" viewBox="0 0 52 53" fill="none" xmlns="http://www.w3.org/2000/svg">
<circle cx="27" cy="28" r="25" fill="black"/>
<circle cx="25" cy="25" r="23.5" fill="white" stroke="black" stroke-width="3"/>
<path d="M37 17.4861C36.117 17.9082 35.168 18.1924 34.172 18.3205C35.189 17.6648 35.97 16.6258 36.337 15.3876C35.386 15.9949 34.332 16.4363 33.21 16.6743C32.313 15.6439 31.032 15 29.616 15C26.437 15 24.101 18.1935 24.819 21.5087C20.728 21.2879 17.1 19.1776 14.671 15.9701C13.381 18.3529 14.002 21.4699 16.194 23.0483C15.388 23.0204 14.628 22.7824 13.965 22.3851C13.911 24.8411 15.546 27.1387 17.914 27.6502C17.221 27.8526 16.462 27.9 15.69 27.7406C16.316 29.8466 18.134 31.3788 20.29 31.4219C18.22 33.1693 15.612 33.95 13 33.6183C15.179 35.1225 17.768 36 20.548 36C29.69 36 34.855 27.6868 34.543 20.2306C35.505 19.4823 36.34 18.5488 37 17.4861Z" fill="black"/>
</svg>
