<svg width="52" height="53" viewBox="0 0 52 53" fill="none" xmlns="http://www.w3.org/2000/svg">
<circle cx="27" cy="28" r="25" fill="black"/>
<circle cx="25" cy="25" r="23.5" fill="white" stroke="black" stroke-width="3"/>
<path d="M37.9227 20.0837C37.9093 19.076 37.7203 18.0783 37.3643 17.1353C37.0556 16.3398 36.584 15.6174 35.9798 15.0142C35.3756 14.411 34.652 13.9402 33.8552 13.632C32.9227 13.2825 31.9376 13.0936 30.9418 13.0732C29.6597 13.016 29.2532 13 25.9987 13C22.7441 13 22.327 13 21.0542 13.0732C20.0589 13.0937 19.0742 13.2827 18.1422 13.632C17.3453 13.94 16.6215 14.4107 16.0173 15.0139C15.413 15.6172 14.9416 16.3397 14.6331 17.1353C14.2823 18.0655 14.0935 19.0487 14.0746 20.0425C14.0173 21.3238 14 21.7296 14 24.9787C14 28.2279 14 28.643 14.0746 29.915C14.0946 30.9102 14.2825 31.8921 14.6331 32.8248C14.9421 33.6202 15.4139 34.3424 16.0184 34.9454C16.6228 35.5484 17.3466 36.0188 18.1435 36.3268C19.073 36.6903 20.0578 36.8927 21.0555 36.9255C22.339 36.9827 22.7454 37 26 37C29.2546 37 29.6717 37 30.9445 36.9255C31.9402 36.9059 32.9254 36.7174 33.8578 36.368C34.6544 36.0594 35.3778 35.5885 35.982 34.9854C36.5862 34.3822 37.0579 33.66 37.3669 32.8647C37.7175 31.9334 37.9054 30.9514 37.9254 29.9549C37.9827 28.6749 38 28.2691 38 25.0186C37.9973 21.7695 37.9973 21.357 37.9227 20.0837ZM25.9907 31.1231C22.5869 31.1231 19.8294 28.3702 19.8294 24.9721C19.8294 21.5739 22.5869 18.821 25.9907 18.821C27.6247 18.821 29.1919 19.4691 30.3473 20.6226C31.5028 21.7762 32.1519 23.3407 32.1519 24.9721C32.1519 26.6034 31.5028 28.1679 30.3473 29.3215C29.1919 30.475 27.6247 31.1231 25.9907 31.1231ZM32.3972 20.0278C32.2084 20.028 32.0215 19.991 31.8472 19.919C31.6728 19.847 31.5143 19.7413 31.3809 19.6081C31.2474 19.4749 31.1416 19.3167 31.0695 19.1426C30.9973 18.9685 30.9603 18.7819 30.9605 18.5935C30.9605 18.4053 30.9976 18.2188 31.0698 18.0449C31.1419 17.871 31.2477 17.7129 31.3811 17.5798C31.5144 17.4467 31.6727 17.3411 31.8469 17.269C32.0212 17.197 32.2079 17.1599 32.3965 17.1599C32.5851 17.1599 32.7718 17.197 32.946 17.269C33.1203 17.3411 33.2786 17.4467 33.4119 17.5798C33.5453 17.7129 33.651 17.871 33.7232 18.0449C33.7954 18.2188 33.8325 18.4053 33.8325 18.5935C33.8325 19.3865 33.1901 20.0278 32.3972 20.0278Z" fill="black"/>
<path d="M25.9905 28.9677C28.2009 28.9677 29.9927 27.1788 29.9927 24.9721C29.9927 22.7654 28.2009 20.9766 25.9905 20.9766C23.7801 20.9766 21.9883 22.7654 21.9883 24.9721C21.9883 27.1788 23.7801 28.9677 25.9905 28.9677Z" fill="black"/>
</svg>
