<svg width="52" height="53" viewBox="0 0 52 53" fill="none" xmlns="http://www.w3.org/2000/svg">
<circle cx="27" cy="28" r="25" fill="black"/>
<circle cx="25" cy="25" r="23.5" fill="white" stroke="black" stroke-width="3"/>
<path d="M33.317 16.6579C31.7873 15.8905 30.147 15.3252 28.4319 15.0014C28.4007 14.9951 28.3695 15.0107 28.3534 15.042C28.1424 15.4522 27.9087 15.9874 27.7451 16.408C25.9004 16.1061 24.0652 16.1061 22.2583 16.408C22.0946 15.978 21.8525 15.4522 21.6406 15.042C21.6245 15.0118 21.5933 14.9962 21.5621 15.0014C19.8479 15.3241 18.2076 15.8895 16.6769 16.6579C16.6637 16.6641 16.6523 16.6746 16.6448 16.6881C13.5334 21.7701 12.681 26.7273 13.0992 31.6229C13.1011 31.6469 13.1134 31.6698 13.1304 31.6843C15.1832 33.3325 17.1717 34.3331 19.1233 34.9964C19.1545 35.0068 19.1876 34.9943 19.2075 34.9662C19.6691 34.2769 20.0806 33.5502 20.4335 32.7859C20.4543 32.7412 20.4344 32.688 20.3919 32.6703C19.7391 32.3996 19.1176 32.0696 18.5197 31.6948C18.4724 31.6646 18.4687 31.5906 18.5122 31.5552C18.638 31.4521 18.7638 31.3449 18.884 31.2366C18.9057 31.2168 18.936 31.2127 18.9615 31.2252C22.8893 33.1857 27.1415 33.1857 31.023 31.2252C31.0485 31.2116 31.0788 31.2158 31.1015 31.2356C31.2216 31.3439 31.3475 31.4521 31.4742 31.5552C31.5177 31.5906 31.5149 31.6646 31.4676 31.6948C30.8697 32.0769 30.2482 32.3996 29.5945 32.6693C29.552 32.687 29.533 32.7412 29.5538 32.7859C29.9143 33.5491 30.3258 34.2759 30.7789 34.9651C30.7978 34.9943 30.8319 35.0068 30.8631 34.9964C32.8241 34.3331 34.8126 33.3325 36.8654 31.6843C36.8834 31.6698 36.8948 31.6479 36.8967 31.624C37.3971 25.964 36.0585 21.0476 33.3482 16.6891C33.3416 16.6746 33.3303 16.6641 33.317 16.6579ZM21.02 28.642C19.8375 28.642 18.8631 27.455 18.8631 25.9974C18.8631 24.5397 19.8186 23.3528 21.02 23.3528C22.2309 23.3528 23.1958 24.5501 23.1769 25.9974C23.1769 27.455 22.2214 28.642 21.02 28.642ZM28.9947 28.642C27.8123 28.642 26.8379 27.455 26.8379 25.9974C26.8379 24.5397 27.7933 23.3528 28.9947 23.3528C30.2056 23.3528 31.1705 24.5501 31.1516 25.9974C31.1516 27.455 30.2056 28.642 28.9947 28.642Z" fill="black"/>
</svg>
