<svg width="61" height="61" viewBox="0 0 61 61" fill="none" xmlns="http://www.w3.org/2000/svg">
<path d="M59.9703 20.4535C59.9193 18.0529 59.4658 15.678 58.6287 13.4283C57.8889 11.4593 56.7308 9.67514 55.2347 8.19945L54.7342 7.70769L54.3437 7.31627L53.8832 6.8446C53.8832 6.8446 51.9609 4.92767 51.9609 4.91764C50.4888 3.41793 48.709 2.25708 46.7448 1.51546C44.5019 0.671499 42.1319 0.21669 39.7366 0.170596C36.8031 0.0401271 35.832 0 28.4333 0C21.0346 0 20.0635 -1.71533e-05 17.1201 0.170596C14.7247 0.216494 12.3547 0.67131 10.1118 1.51546C8.15504 2.2717 6.37785 3.43042 4.89491 4.91696C3.41196 6.40351 2.25618 8.18489 1.50176 10.1464C0.664507 12.3962 0.210892 14.7711 0.1601 17.1717C0.0299473 20.1123 1.05625e-10 21.0958 1.05625e-10 28.5124C1.05625e-10 35.9291 -8.79903e-05 36.9026 0.1601 39.8432C0.211082 42.2438 0.664691 44.6187 1.50176 46.8684C2.24094 48.8295 3.39533 50.6065 4.88562 52.0772L5.24615 52.4384L5.92688 53.1209L6.50764 53.703L6.89799 54.0944L7.28846 54.4858L8.17952 55.379C9.64874 56.8775 11.4251 58.0383 13.3857 58.7813C15.63 59.6204 17.9991 60.0749 20.3939 60.126C23.3274 60.2565 24.2984 60.2867 31.6971 60.2867C39.0958 60.2867 40.067 60.2866 43.0104 60.126C45.4052 60.0751 47.7744 59.6205 50.0187 58.7813C51.9755 58.025 53.7525 56.8663 55.2355 55.3797C56.7184 53.8932 57.8743 52.1118 58.6287 50.1502C59.4658 47.9004 59.9193 45.5255 59.9703 43.1249C60.1004 40.1844 60.1405 39.2109 60.1405 31.7943C60.1405 24.3776 60.1004 23.3941 59.9703 20.4535Z" fill="#231815"/>
<path d="M28.463 7.92846C35.1408 7.92846 35.9317 7.92849 38.5748 8.07903C40.1612 8.09782 41.7326 8.38976 43.2203 8.94211C44.3104 9.34153 45.2962 9.98314 46.1037 10.8189C46.9306 11.6299 47.5698 12.6132 47.9759 13.6992C48.5265 15.1941 48.8177 16.7725 48.8369 18.366C48.957 21.0055 48.977 21.7983 48.977 28.5024C48.977 35.2065 48.977 35.9893 48.8369 38.6389C48.8181 40.2291 48.5269 41.8043 47.9759 43.2956C47.5605 44.3798 46.9226 45.3644 46.1033 46.1856C45.2841 47.0069 44.3019 47.6464 43.2203 48.0627C41.7326 48.6151 40.1612 48.907 38.5748 48.9258C35.9417 49.0463 35.1408 49.0664 28.463 49.0664C21.7851 49.0664 20.9842 49.0663 18.3511 48.9258C16.7617 48.9048 15.1874 48.613 13.6956 48.0627C12.6139 47.6525 11.6337 47.0122 10.8223 46.186C9.99177 45.3739 9.35221 44.3865 8.95008 43.2956C8.39906 41.8043 8.10783 40.2291 8.08908 38.6389C7.96894 35.9893 7.93888 35.1965 7.93888 28.5024C7.93888 21.8083 7.93891 21.0055 8.08908 18.366C8.10827 16.7725 8.39947 15.1941 8.95008 13.6992C9.36764 12.6191 10.0054 11.6382 10.8225 10.8191C11.6396 10 12.6181 9.36069 13.6956 8.94211C15.1874 8.39187 16.7617 8.10003 18.3511 8.07903C20.9842 7.95859 21.7751 7.92846 28.463 7.92846V7.92846ZM28.463 3.41223C21.665 3.41223 20.8141 3.41226 18.1409 3.5628C16.064 3.60231 14.0088 3.99597 12.0637 4.72695C10.3957 5.35478 8.88519 6.34139 7.63848 7.61735C6.36453 8.87208 5.37747 10.389 4.74519 12.0634C4.01598 14.0132 3.62322 16.0732 3.58379 18.1552C3.46365 20.8348 3.43359 21.6879 3.43359 28.5024C3.43359 35.3169 3.43362 36.17 3.58379 38.8496C3.62318 40.9283 4.01597 42.9851 4.74519 44.9315C5.39173 46.5969 6.37593 48.1097 7.63567 49.3742C8.89541 50.6387 10.4032 51.6275 12.0637 52.2778C14.0102 53.004 16.0645 53.3975 18.1409 53.4421C20.8141 53.5625 21.665 53.5926 28.463 53.5926C35.261 53.5926 36.112 53.5926 38.7852 53.4421C40.8615 53.3964 42.9155 53.0029 44.8622 52.2778C46.5227 51.6275 48.0305 50.6387 49.2903 49.3742C50.55 48.1097 51.5343 46.5969 52.1809 44.9315C52.9054 42.9838 53.298 40.9278 53.3422 38.8496C53.4623 36.17 53.4924 35.3169 53.4924 28.5024C53.4924 21.6879 53.4923 20.8348 53.3422 18.1552C53.2978 16.0738 52.9053 14.0146 52.1809 12.0634C51.5364 10.3979 50.5527 8.88539 49.2926 7.62225C48.0325 6.3591 46.5236 5.37301 44.8622 4.72695C42.9168 3.9971 40.862 3.60348 38.7852 3.5628C36.112 3.44236 35.261 3.41223 28.463 3.41223V3.41223Z" fill="white"/>
<path d="M28.4625 15.6161C25.92 15.6161 23.4346 16.3719 21.3206 17.7879C19.2065 19.2039 17.559 21.2164 16.586 23.5711C15.613 25.9257 15.3584 28.5168 15.8544 31.0165C16.3504 33.5162 17.5748 35.8123 19.3726 37.6145C21.1704 39.4166 23.4609 40.6439 25.9545 41.1412C28.4482 41.6384 31.033 41.3832 33.382 40.4078C35.7309 39.4325 37.7385 37.7808 39.1511 35.6617C40.5636 33.5426 41.3175 31.0511 41.3175 28.5024C41.3175 25.0848 39.9632 21.8071 37.5524 19.3905C35.1416 16.9738 31.8719 15.6161 28.4625 15.6161V15.6161ZM28.4625 36.8625C26.8102 36.8645 25.1945 36.375 23.8198 35.4561C22.4452 34.5371 21.3734 33.23 20.7402 31.7001C20.1069 30.1703 19.9408 28.4865 20.2627 26.8619C20.5845 25.2374 21.38 23.7451 22.5483 22.5739C23.7167 21.4027 25.2053 20.6053 26.8259 20.2827C28.4466 19.9601 30.1262 20.1267 31.6524 20.7614C33.1785 21.3962 34.4825 22.4705 35.3992 23.8485C36.3159 25.2265 36.8042 26.8461 36.8022 28.5024C36.8022 30.7196 35.9237 32.8461 34.3597 34.4139C32.7956 35.9817 30.6743 36.8625 28.4625 36.8625Z" fill="white"/>
<path d="M41.818 18.1151C43.4768 18.1151 44.8215 16.7671 44.8215 15.1043C44.8215 13.4414 43.4768 12.0934 41.818 12.0934C40.1592 12.0934 38.8145 13.4414 38.8145 15.1043C38.8145 16.7671 40.1592 18.1151 41.818 18.1151Z" fill="white"/>
</svg>
