<svg width="293" height="140" viewBox="0 0 293 140" fill="none" xmlns="http://www.w3.org/2000/svg">
<path d="M51.5296 0H29.9165V14.4378C30.0804 14.4378 30.2327 14.4027 30.3966 14.4027C32.2251 14.4036 34.0121 14.8104 35.5319 15.5719C37.0516 16.3334 38.2358 17.4152 38.9347 18.6807C39.6336 19.9461 39.8159 21.3384 39.4585 22.6814C39.101 24.0245 38.22 25.258 36.9267 26.226C35.6333 27.1941 33.9858 27.8532 32.1924 28.12C30.399 28.3869 28.5403 28.2495 26.8511 27.7252C25.162 27.2009 23.7183 26.3133 22.7026 25.1746C21.6868 24.0359 21.1447 22.6972 21.1447 21.3277V21.3277V0H9.23435C6.78525 0 4.43645 0.728676 2.70468 2.02573C0.972902 3.32278 0 5.08196 0 6.91627L0 36.5944H30.3966C32.2251 36.5953 34.0121 37.0021 35.5319 37.7636C37.0516 38.5251 38.2358 39.6069 38.9347 40.8724C39.6336 42.1378 39.8159 43.5301 39.4585 44.8731C39.101 46.2162 38.22 47.4497 36.9267 48.4177C35.6333 49.3858 33.9858 50.0449 32.1924 50.3117C30.399 50.5786 28.5403 50.4412 26.8511 49.9169C25.162 49.3927 23.7183 48.505 22.7026 47.3663C21.6868 46.2276 21.1447 44.8889 21.1447 43.5194C21.1447 43.3966 21.1857 43.2826 21.1974 43.1598H0V57.9309C0 59.7652 0.972902 61.5244 2.70468 62.8214C4.43645 64.1185 6.78525 64.8472 9.23435 64.8472H51.5296C53.9788 64.8472 56.3275 64.1185 58.0593 62.8214C59.7911 61.5244 60.764 59.7652 60.764 57.9309V6.91627C60.764 5.08196 59.7911 3.32278 58.0593 2.02573C56.3275 0.728676 53.9788 0 51.5296 0Z" fill="#231815"/>
<path d="M117.201 1.39242e-06H74.8945C73.6813 -0.000574782 72.4799 0.177895 71.3589 0.525212C70.2378 0.872529 69.2192 1.38189 68.361 2.02418C67.5029 2.66647 66.8222 3.42911 66.3578 4.26852C65.8933 5.10792 65.6543 6.00765 65.6543 6.91627V57.9309C65.6543 58.8395 65.8933 59.7392 66.3578 60.5786C66.8222 61.4181 67.5029 62.1807 68.361 62.823C69.2192 63.4653 70.2378 63.9746 71.3589 64.3219C72.4799 64.6693 73.6813 64.8477 74.8945 64.8472H117.201C118.414 64.8477 119.616 64.6692 120.736 64.3219C121.857 63.9745 122.875 63.4651 123.733 62.8227C124.591 62.1804 125.271 61.4177 125.734 60.5783C126.198 59.7389 126.437 58.8393 126.436 57.9309V6.91627C126.437 6.00785 126.198 5.10823 125.734 4.26885C125.271 3.42947 124.591 2.66679 123.733 2.02444C122.875 1.38209 121.857 0.872668 120.736 0.525297C119.616 0.177926 118.414 -0.000575199 117.201 1.39242e-06V1.39242e-06ZM105.297 43.5194C105.305 44.7451 104.879 45.9505 104.062 47.0125C103.245 48.0745 102.066 48.955 100.646 49.5641C99.2257 50.1732 97.6151 50.4891 95.9787 50.4795C94.3422 50.4699 92.7384 50.1352 91.3312 49.5095C89.924 48.8838 88.7637 47.9896 87.9688 46.9182C87.1739 45.8467 86.773 44.6365 86.807 43.411C86.8409 42.1856 87.3085 40.9888 88.162 39.943C89.0155 38.8972 90.2244 38.0398 91.665 37.4584V27.3712C89.854 26.6391 88.4208 25.4753 87.5925 24.0642C86.7643 22.6531 86.5883 21.0754 87.0924 19.5809C87.5965 18.0865 88.752 16.7607 90.3757 15.8136C91.9995 14.8665 93.9987 14.3522 96.0568 14.3522C98.1148 14.3522 100.114 14.8665 101.738 15.8136C103.362 16.7607 104.517 18.0865 105.021 19.5809C105.525 21.0754 105.349 22.6531 104.521 24.0642C103.693 25.4753 102.26 26.6391 100.448 27.3712V37.4584C101.912 38.0464 103.136 38.9204 103.99 39.9876C104.844 41.0548 105.295 42.2753 105.297 43.5194V43.5194Z" fill="#231815"/>
<path d="M248.512 0H206.199C203.75 0 201.401 0.728676 199.67 2.02573C197.938 3.32278 196.965 5.08196 196.965 6.91627V57.9309C196.965 59.7652 197.938 61.5244 199.67 62.8214C201.401 64.1185 203.75 64.8472 206.199 64.8472H222.976V49.5805C221.165 48.8483 219.731 47.6845 218.903 46.2735C218.075 44.8624 217.899 43.2846 218.403 41.7902C218.907 40.2957 220.063 38.9699 221.686 38.0228C223.31 37.0757 225.309 36.5615 227.367 36.5615C229.425 36.5615 231.425 37.0757 233.048 38.0228C234.672 38.9699 235.828 40.2957 236.332 41.7902C236.836 43.2846 236.66 44.8624 235.832 46.2735C235.003 47.6845 233.57 48.8483 231.759 49.5805V64.8472H248.512C250.961 64.8472 253.31 64.1185 255.042 62.8214C256.774 61.5244 257.746 59.7652 257.746 57.9309V6.91627C257.746 5.08196 256.774 3.32278 255.042 2.02573C253.31 0.728676 250.961 0 248.512 0ZM227.361 28.2528C225.533 28.2536 223.744 27.8482 222.223 27.0878C220.702 26.3274 219.516 25.2462 218.815 23.9809C218.114 22.7156 217.93 21.323 218.287 19.9794C218.643 18.6358 219.523 17.4015 220.816 16.4325C222.108 15.4636 223.756 14.8036 225.55 14.5361C227.343 14.2685 229.203 14.4054 230.893 14.9294C232.582 15.4534 234.027 16.341 235.043 17.4799C236.059 18.6188 236.602 19.9579 236.602 21.3277C236.602 23.1636 235.628 24.9243 233.896 26.2229C232.163 27.5215 229.813 28.2516 227.361 28.2528V28.2528Z" fill="#231815"/>
<path d="M182.85 32.4236C182.849 31.514 183.088 30.6132 183.552 29.7728C184.017 28.9324 184.698 28.1687 185.556 27.5256C186.415 26.8824 187.435 26.3723 188.557 26.0245C189.679 25.6767 190.882 25.498 192.096 25.4985V6.91627C192.096 5.08196 191.123 3.32278 189.391 2.02573C187.66 0.728676 185.311 0 182.862 0H161.231V14.4378C161.389 14.4378 161.547 14.4027 161.705 14.4027C163.534 14.4027 165.322 14.8088 166.842 15.5698C168.363 16.3307 169.548 17.4122 170.247 18.6776C170.947 19.943 171.13 21.3354 170.774 22.6787C170.417 24.0221 169.536 25.256 168.243 26.2245C166.95 27.193 165.303 27.8525 163.509 28.1197C161.715 28.3869 159.856 28.2498 158.167 27.7256C156.477 27.2015 155.033 26.3139 154.017 25.1751C153.001 24.0363 152.459 22.6974 152.459 21.3277V21.3277V0H140.537C138.088 0 135.739 0.728676 134.007 2.02573C132.276 3.32278 131.303 5.08196 131.303 6.91627V57.9309C131.303 59.7652 132.276 61.5244 134.007 62.8214C135.739 64.1185 138.088 64.8472 140.537 64.8472H162.203V50.4094C162.045 50.4094 161.893 50.4445 161.729 50.4445C159.9 50.4445 158.112 50.0383 156.592 49.2774C155.071 48.5165 153.886 47.4349 153.186 46.1695C152.487 44.9041 152.303 43.5118 152.66 42.1684C153.017 40.8251 153.898 39.5912 155.191 38.6227C156.484 37.6542 158.131 36.9947 159.925 36.7275C161.718 36.4603 163.577 36.5974 165.267 37.1215C166.956 37.6457 168.401 38.5333 169.416 39.6721C170.432 40.8109 170.975 42.1498 170.975 43.5194V43.5194V64.8472H182.885C184.098 64.8472 185.299 64.6683 186.419 64.3207C187.539 63.9731 188.557 63.4637 189.415 62.8214C190.272 62.1792 190.952 61.4168 191.417 60.5776C191.881 59.7385 192.119 58.8391 192.119 57.9309V39.3486C190.903 39.3509 189.698 39.1735 188.574 38.8265C187.449 38.4795 186.427 37.9698 185.566 37.3265C184.705 36.6833 184.022 35.9191 183.556 35.0777C183.09 34.2364 182.85 33.3345 182.85 32.4236V32.4236Z" fill="#231815"/>
<path d="M283.766 0H271.855C266.755 0 262.621 3.09652 262.621 6.91627V57.9309C262.621 61.7506 266.755 64.8472 271.855 64.8472H283.766C288.866 64.8472 293 61.7506 293 57.9309V6.91627C293 3.09652 288.866 0 283.766 0Z" fill="#231815"/>
<path d="M41.6368 117.936C41.6368 119.306 41.0945 120.645 40.0786 121.784C39.0626 122.922 37.6186 123.81 35.9291 124.334C34.2396 124.858 32.3805 124.995 30.587 124.728C28.7934 124.461 27.1459 123.801 25.8528 122.833C24.5597 121.864 23.6791 120.631 23.3224 119.287C22.9656 117.944 23.1487 116.551 23.8485 115.286C24.5483 114.021 25.7334 112.939 27.2539 112.178C28.7744 111.417 30.5621 111.011 32.3908 111.011C32.5547 111.011 32.707 111.037 32.8651 111.046V74.4167H11.2343C8.78522 74.4167 6.43644 75.1454 4.70466 76.4425C2.97288 77.7395 2 79.4987 2 81.333V132.348C2 134.182 2.97288 135.941 4.70466 137.238C6.43644 138.535 8.78522 139.264 11.2343 139.264H53.5472C55.9963 139.264 58.3451 138.535 60.0768 137.238C61.8086 135.941 62.7815 134.182 62.7815 132.348V111.011H41.6368V117.936Z" fill="#231815"/>
<path d="M250.516 74.4167H198.986V139.264H250.516C252.965 139.264 255.314 138.535 257.046 137.238C258.777 135.941 259.75 134.182 259.75 132.348V81.333C259.75 79.4987 258.777 77.7395 257.046 76.4425C255.314 75.1454 252.965 74.4167 250.516 74.4167ZM238.606 117.936C238.615 119.162 238.189 120.368 237.372 121.43C236.555 122.493 235.376 123.374 233.955 123.983C232.535 124.592 230.924 124.908 229.287 124.899C227.65 124.889 226.046 124.554 224.638 123.928C223.231 123.302 222.071 122.407 221.276 121.335C220.481 120.263 220.081 119.053 220.116 117.827C220.15 116.601 220.619 115.404 221.474 114.359C222.328 113.313 223.538 112.456 224.98 111.875V101.788C223.17 101.056 221.739 99.8927 220.911 98.4826C220.084 97.0724 219.909 95.4959 220.413 94.0026C220.917 92.5093 222.072 91.1847 223.694 90.2384C225.317 89.2921 227.315 88.7783 229.371 88.7783C231.428 88.7783 233.425 89.2921 235.048 90.2384C236.671 91.1847 237.825 92.5093 238.33 94.0026C238.834 95.4959 238.658 97.0724 237.831 98.4826C237.004 99.8927 235.572 101.056 233.763 101.788V111.875C235.225 112.464 236.448 113.338 237.3 114.406C238.153 115.473 238.604 116.693 238.606 117.936Z" fill="#231815"/>
<path d="M184.858 74.4167H165.938V89.0475C167.531 89.3349 168.993 89.9361 170.172 90.7888C171.351 91.6416 172.204 92.7148 172.643 93.8975C173.082 95.0801 173.091 96.3291 172.669 97.5152C172.247 98.7013 171.409 99.7813 170.242 100.643L157.166 90.8456V74.4167H142.527C141.314 74.4162 140.113 74.5946 138.992 74.942C137.871 75.2893 136.852 75.7986 135.994 76.4409C135.136 77.0832 134.455 77.8459 133.991 78.6853C133.526 79.5247 133.287 80.4244 133.287 81.333V132.348C133.287 133.256 133.526 134.156 133.991 134.995C134.455 135.835 135.136 136.597 135.994 137.24C136.852 137.882 137.871 138.391 138.992 138.739C140.113 139.086 141.314 139.265 142.527 139.264H161.453V124.633C159.861 124.345 158.4 123.743 157.223 122.89C156.045 122.037 155.193 120.964 154.754 119.782C154.315 118.6 154.306 117.351 154.727 116.166C155.148 114.98 155.984 113.9 157.149 113.037L170.213 122.826V139.264H184.852C186.065 139.265 187.266 139.086 188.388 138.739C189.509 138.391 190.527 137.882 191.385 137.24C192.243 136.597 192.924 135.835 193.389 134.995C193.853 134.156 194.092 133.256 194.092 132.348V81.333C194.092 79.4987 193.119 77.7395 191.387 76.4425C189.656 75.1454 187.307 74.4167 184.858 74.4167Z" fill="#231815"/>
<path d="M119.213 74.4167H76.8886C74.4446 74.4226 72.1034 75.1538 70.3779 76.4502C68.6525 77.7466 67.6836 79.5025 67.6836 81.333V132.348C67.6836 134.182 68.6565 135.941 70.3883 137.238C72.12 138.535 74.4689 139.264 76.918 139.264H93.6943V123.997C91.8815 123.265 90.4468 122.101 89.6174 120.689C88.7881 119.277 88.6115 117.698 89.1157 116.202C89.6198 114.706 90.7759 113.379 92.4008 112.432C94.0257 111.484 96.0264 110.969 98.0861 110.969C100.146 110.969 102.146 111.484 103.771 112.432C105.396 113.379 106.552 114.706 107.057 116.202C107.561 117.698 107.384 119.277 106.555 120.689C105.725 122.101 104.291 123.265 102.478 123.997V139.264H119.213C121.662 139.264 124.011 138.535 125.743 137.238C127.475 135.941 128.448 134.182 128.448 132.348V81.333C128.448 79.4987 127.475 77.7395 125.743 76.4425C124.011 75.1454 121.662 74.4167 119.213 74.4167ZM98.0509 102.67C96.2222 102.67 94.4346 102.263 92.9141 101.502C91.3936 100.742 90.2085 99.66 89.5087 98.3946C88.8089 97.1292 88.6258 95.7368 88.9826 94.3935C89.3393 93.0501 90.2199 91.8162 91.513 90.8477C92.8061 89.8793 94.4536 89.2197 96.2471 88.9525C98.0407 88.6853 99.8998 88.8224 101.589 89.3466C103.279 89.8707 104.723 90.7583 105.739 91.8971C106.755 93.036 107.297 94.3748 107.297 95.7445C107.297 97.5811 106.323 99.3425 104.589 100.641C102.855 101.94 100.503 102.67 98.0509 102.67Z" fill="#231815"/>
</svg>
