<svg width="980" height="151" viewBox="0 0 980 151" fill="none" xmlns="http://www.w3.org/2000/svg">
<path d="M88 0.203369H51.09V33.6706C51.37 33.6706 51.63 33.5893 51.91 33.5893C55.0325 33.5913 58.0844 34.5345 60.6797 36.2996C63.2751 38.0647 65.2974 40.5724 66.4909 43.5058C67.6845 46.4392 67.9958 49.6665 67.3854 52.7797C66.775 55.8929 65.2703 58.7522 63.0617 60.9962C60.853 63.2402 58.0395 64.768 54.9768 65.3866C51.9141 66.0051 48.7398 65.6867 45.8551 64.4714C42.9705 63.2561 40.505 61.1986 38.7704 58.559C37.0358 55.9194 36.11 52.8162 36.11 49.6418V49.6418V0.203369H15.77C11.5875 0.203369 7.57637 1.89247 4.61893 4.89908C1.66148 7.90569 0 11.9835 0 16.2355L0 85.0305H51.91C55.0325 85.0325 58.0844 85.9757 60.6797 87.7407C63.2751 89.5058 65.2974 92.0136 66.4909 94.947C67.6845 97.8804 67.9958 101.108 67.3854 104.221C66.775 107.334 65.2703 110.193 63.0617 112.437C60.853 114.681 58.0395 116.209 54.9768 116.828C51.9141 117.446 48.7398 117.128 45.8551 115.913C42.9705 114.697 40.505 112.64 38.7704 110C37.0358 107.361 36.11 104.257 36.11 101.083C36.11 100.798 36.18 100.534 36.2 100.249H0V134.489C0 138.741 1.66148 142.819 4.61893 145.826C7.57637 148.832 11.5875 150.521 15.77 150.521H88C92.1825 150.521 96.1936 148.832 99.1511 145.826C102.109 142.819 103.77 138.741 103.77 134.489V16.2355C103.77 11.9835 102.109 7.90569 99.1511 4.89908C96.1936 1.89247 92.1825 0.203369 88 0.203369Z" fill="#231815"/>
<path d="M607.52 101.083C607.52 104.258 606.594 107.361 604.859 110.001C603.124 112.641 600.658 114.699 597.773 115.914C594.887 117.129 591.713 117.446 588.65 116.827C585.587 116.208 582.773 114.679 580.565 112.434C578.357 110.189 576.853 107.329 576.243 104.215C575.634 101.101 575.947 97.8732 577.142 94.9399C578.337 92.0067 580.361 89.4997 582.958 87.7358C585.554 85.9719 588.607 85.0305 591.73 85.0305C592.01 85.0305 592.27 85.0915 592.54 85.1118V0.203369H555.6C551.418 0.203369 547.406 1.89247 544.449 4.89908C541.492 7.90569 539.83 11.9835 539.83 16.2355V134.489C539.83 138.741 541.492 142.819 544.449 145.826C547.406 148.832 551.418 150.521 555.6 150.521H627.86C632.043 150.521 636.054 148.832 639.011 145.826C641.969 142.819 643.63 138.741 643.63 134.489V85.0305H607.52V101.083Z" fill="#231815"/>
<path d="M200.149 0.203372H127.899C125.827 0.202037 123.776 0.615735 121.861 1.42083C119.947 2.22592 118.207 3.40663 116.742 4.89549C115.276 6.38434 114.114 8.15217 113.321 10.0979C112.527 12.0437 112.119 14.1293 112.119 16.2355V134.489C112.119 136.595 112.527 138.681 113.321 140.627C114.114 142.573 115.276 144.34 116.742 145.829C118.207 147.318 119.947 148.499 121.861 149.304C123.776 150.109 125.827 150.523 127.899 150.521H200.149C202.22 150.523 204.272 150.109 206.186 149.304C208.1 148.499 209.838 147.318 211.303 145.829C212.768 144.34 213.929 142.572 214.721 140.626C215.513 138.68 215.92 136.595 215.919 134.489V16.2355C215.92 14.1298 215.513 12.0444 214.721 10.0987C213.929 8.15299 212.768 6.38509 211.303 4.8961C209.838 3.40711 208.1 2.22624 206.186 1.42103C204.272 0.615808 202.22 0.202036 200.149 0.203372V0.203372ZM179.819 101.083C179.833 103.924 179.106 106.718 177.71 109.18C176.315 111.642 174.301 113.683 171.876 115.095C169.451 116.507 166.7 117.239 163.906 117.217C161.111 117.194 158.372 116.419 155.969 114.968C153.566 113.518 151.584 111.445 150.227 108.961C148.869 106.478 148.185 103.672 148.243 100.832C148.301 97.9911 149.099 95.217 150.557 92.7927C152.014 90.3685 154.079 88.381 156.539 87.0332V63.6509C153.446 61.9537 150.999 59.256 149.584 55.9851C148.17 52.7141 147.869 49.0569 148.73 45.5926C149.591 42.1284 151.564 39.0552 154.337 36.8598C157.11 34.6644 160.524 33.4723 164.039 33.4723C167.554 33.4723 170.968 34.6644 173.741 36.8598C176.514 39.0552 178.487 42.1284 179.348 45.5926C180.209 49.0569 179.908 52.7141 178.494 55.9851C177.08 59.256 174.632 61.9537 171.539 63.6509V87.0332C174.039 88.3962 176.129 90.4222 177.587 92.8961C179.045 95.3699 179.816 98.1991 179.819 101.083V101.083Z" fill="#231815"/>
<path d="M424.399 0.203369H352.139C347.957 0.203369 343.946 1.89247 340.988 4.89908C338.031 7.90569 336.369 11.9835 336.369 16.2355V134.489C336.369 138.741 338.031 142.819 340.988 145.826C343.946 148.832 347.957 150.521 352.139 150.521H380.789V115.133C377.696 113.436 375.249 110.738 373.834 107.467C372.42 104.196 372.119 100.539 372.98 97.0745C373.841 93.6102 375.814 90.537 378.587 88.3416C381.36 86.1462 384.774 84.9541 388.289 84.9541C391.804 84.9541 395.218 86.1462 397.991 88.3416C400.764 90.537 402.737 93.6102 403.598 97.0745C404.459 100.539 404.158 104.196 402.744 107.467C401.33 110.738 398.882 113.436 395.789 115.133V150.521H424.399C428.582 150.521 432.593 148.832 435.55 145.826C438.508 142.819 440.169 138.741 440.169 134.489V16.2355C440.169 11.9835 438.508 7.90569 435.55 4.89908C432.593 1.89247 428.582 0.203369 424.399 0.203369ZM388.279 65.6943C385.156 65.6963 382.102 64.7565 379.504 62.9939C376.906 61.2312 374.881 58.7249 373.684 55.7919C372.487 52.8588 372.173 49.6309 372.781 46.5163C373.389 43.4018 374.893 40.5406 377.1 38.2946C379.308 36.0486 382.122 34.5187 385.185 33.8985C388.248 33.2783 391.424 33.5956 394.309 34.8103C397.195 36.0249 399.662 38.0824 401.397 40.7224C403.133 43.3625 404.059 46.4665 404.059 49.6418C404.059 53.8974 402.397 57.9789 399.438 60.989C396.479 63.9992 392.465 65.6916 388.279 65.6943V65.6943Z" fill="#231815"/>
<path d="M312.26 75.3624C312.259 73.254 312.667 71.166 313.46 69.2178C314.253 67.2696 315.416 65.4995 316.882 64.0086C318.349 62.5177 320.09 61.3353 322.006 60.5291C323.923 59.7228 325.977 59.3085 328.05 59.3099V16.2355C328.05 11.9835 326.389 7.90569 323.432 4.89908C320.474 1.89247 316.463 0.203369 312.28 0.203369H275.34V33.6706C275.61 33.6706 275.88 33.5893 276.15 33.5893C279.273 33.5893 282.326 34.5308 284.923 36.2946C287.52 38.0585 289.543 40.5656 290.739 43.4988C291.934 46.432 292.246 49.6596 291.637 52.7735C291.028 55.8874 289.524 58.7476 287.316 60.9926C285.107 63.2376 282.294 64.7665 279.231 65.3858C276.168 66.0052 272.993 65.6873 270.108 64.4724C267.223 63.2574 264.757 61.1999 263.022 58.5601C261.287 55.9203 260.36 52.8167 260.36 49.6418V49.6418V0.203369H240C235.818 0.203369 231.807 1.89247 228.849 4.89908C225.892 7.90569 224.23 11.9835 224.23 16.2355V134.489C224.23 138.741 225.892 142.819 228.849 145.826C231.807 148.832 235.818 150.521 240 150.521H277V117.054C276.73 117.054 276.47 117.135 276.19 117.135C273.068 117.135 270.015 116.194 267.418 114.43C264.821 112.666 262.798 110.159 261.602 107.226C260.407 104.293 260.095 101.065 260.704 97.9513C261.313 94.8374 262.817 91.9771 265.025 89.7321C267.234 87.4872 270.047 85.9583 273.11 85.3389C276.173 84.7195 279.348 85.0374 282.233 86.2524C285.118 87.4674 287.584 89.5249 289.319 92.1647C291.054 94.8045 291.98 97.9081 291.98 101.083V101.083V150.521H312.32C314.391 150.521 316.442 150.107 318.355 149.301C320.269 148.495 322.007 147.314 323.472 145.826C324.936 144.337 326.098 142.57 326.89 140.624C327.683 138.679 328.09 136.595 328.09 134.489V91.4149C326.014 91.4202 323.956 91.009 322.036 90.2046C320.115 89.4003 318.37 88.2188 316.899 86.7276C315.429 85.2365 314.262 83.465 313.466 81.5148C312.67 79.5646 312.26 77.4738 312.26 75.3624V75.3624Z" fill="#231815"/>
<path d="M964.23 0.203369H876.23V150.521H964.23C968.413 150.521 972.424 148.832 975.382 145.826C978.339 142.819 980 138.741 980 134.489V16.2355C980 11.9835 978.339 7.90569 975.382 4.89908C972.424 1.89247 968.413 0.203369 964.23 0.203369ZM943.891 101.083C943.906 103.925 943.178 106.72 941.783 109.183C940.388 111.645 938.374 113.687 935.949 115.1C933.523 116.512 930.772 117.245 927.976 117.222C925.181 117.2 922.441 116.423 920.038 114.972C917.634 113.521 915.653 111.447 914.296 108.962C912.939 106.478 912.255 103.671 912.314 100.83C912.374 97.9886 913.174 95.2142 914.633 92.7902C916.092 90.3662 918.159 88.3796 920.62 87.0332V63.6509C917.531 61.9539 915.086 59.2576 913.673 55.9887C912.261 52.7199 911.961 49.0655 912.822 45.604C913.683 42.1426 915.655 39.072 918.426 36.8785C921.197 34.685 924.609 33.494 928.12 33.494C931.632 33.494 935.044 34.685 937.815 36.8785C940.586 39.072 942.558 42.1426 943.419 45.604C944.28 49.0655 943.98 52.7199 942.568 55.9887C941.155 59.2576 938.71 61.9539 935.62 63.6509V87.0332C938.118 88.3984 940.205 90.4252 941.661 92.8988C943.117 95.3723 943.888 98.2004 943.891 101.083Z" fill="#231815"/>
<path d="M852.099 0.203372H819.789V34.1179C822.51 34.7842 825.007 36.1778 827.02 38.1545C829.033 40.1311 830.49 42.619 831.24 45.3604C831.989 48.1018 832.004 50.997 831.283 53.7464C830.562 56.4957 829.132 58.9992 827.139 60.9975L804.809 38.2861V0.203372H779.809C777.737 0.202037 775.686 0.615735 773.771 1.42083C771.857 2.22592 770.117 3.40663 768.652 4.89549C767.186 6.38434 766.024 8.15217 765.231 10.0979C764.438 12.0437 764.029 14.1293 764.029 16.2355V134.489C764.029 136.595 764.438 138.681 765.231 140.627C766.024 142.573 767.186 144.34 768.652 145.829C770.117 147.318 771.857 148.499 773.771 149.304C775.686 150.109 777.737 150.523 779.809 150.521H812.129V116.607C809.41 115.938 806.916 114.543 804.905 112.566C802.894 110.589 801.438 108.102 800.689 105.362C799.94 102.621 799.924 99.7275 800.643 96.979C801.362 94.2305 802.79 91.727 804.779 89.7273L827.089 112.418V150.521H852.089C854.161 150.523 856.213 150.109 858.127 149.304C860.042 148.499 861.781 147.318 863.247 145.829C864.712 144.34 865.875 142.573 866.668 140.627C867.461 138.681 867.869 136.595 867.869 134.489V16.2355C867.869 11.9835 866.208 7.9057 863.25 4.89908C860.293 1.89247 856.282 0.203372 852.099 0.203372Z" fill="#231815"/>
<path d="M740 0.203369H667.72C663.546 0.216823 659.548 1.91186 656.601 4.91701C653.655 7.92217 652 11.9923 652 16.2355V134.489C652 138.741 653.661 142.819 656.619 145.826C659.576 148.832 663.588 150.521 667.77 150.521H696.42V115.133C693.324 113.435 690.874 110.736 689.458 107.463C688.041 104.19 687.74 100.53 688.601 97.0631C689.462 93.5961 691.436 90.5202 694.211 88.3229C696.986 86.1256 700.403 84.9324 703.92 84.9324C707.437 84.9324 710.854 86.1256 713.629 88.3229C716.404 90.5202 718.378 93.5961 719.239 97.0631C720.1 100.53 719.799 104.19 718.382 107.463C716.966 110.736 714.516 113.435 711.42 115.133V150.521H740C744.182 150.521 748.194 148.832 751.151 145.826C754.109 142.819 755.77 138.741 755.77 134.489V16.2355C755.77 11.9835 754.109 7.90569 751.151 4.89908C748.194 1.89247 744.182 0.203369 740 0.203369ZM703.86 65.6943C700.737 65.6943 697.684 64.7528 695.088 62.989C692.491 61.2251 690.467 58.718 689.272 55.7848C688.077 52.8516 687.764 49.624 688.373 46.5101C688.983 43.3962 690.486 40.5359 692.695 38.291C694.903 36.046 697.717 34.5171 700.78 33.8977C703.843 33.2784 707.017 33.5962 709.903 34.8112C712.788 36.0262 715.254 38.0837 716.989 40.7235C718.724 43.3633 719.65 46.4669 719.65 49.6418C719.65 53.8992 717.986 57.9822 715.025 60.9926C712.064 64.003 708.048 65.6943 703.86 65.6943Z" fill="#231815"/>
<path d="M484.6 0.203369H464.26C455.551 0.203369 448.49 7.38121 448.49 16.2355V134.489C448.49 143.344 455.551 150.521 464.26 150.521H484.6C493.31 150.521 500.37 143.344 500.37 134.489V16.2355C500.37 7.38121 493.31 0.203369 484.6 0.203369Z" fill="#231815"/>
</svg>
