<svg width="230" height="229" viewBox="0 0 230 229" fill="none" xmlns="http://www.w3.org/2000/svg">
<path d="M217.123 72.8882C211.882 62.7785 205.07 53.5649 196.94 45.5914C196.701 45.3471 196.462 45.0825 196.217 44.8636L195.49 44.1359C195.245 43.8968 194.981 43.6525 194.762 43.4082C194.543 43.164 194.253 42.9248 194.034 42.6805L193.307 41.9579C193.067 41.7136 192.823 41.449 192.579 41.2302C192.335 41.0113 192.07 40.7213 191.851 40.5025C191.632 40.2836 191.373 39.9936 191.129 39.7748L190.401 39.047L189.673 38.3193C189.429 38.0802 189.164 37.8359 188.945 37.5916L188.218 36.869C187.979 36.6247 187.734 36.3601 187.49 36.1413C187.246 35.9225 186.981 35.6324 186.762 35.4136C186.543 35.1948 186.284 34.9047 186.04 34.6859L185.312 33.9582L184.584 33.2304C184.34 32.9913 184.075 32.747 183.857 32.5027L183.129 31.7801C182.89 31.5358 182.645 31.2712 182.401 31.0524C178.6 27.2443 174.517 23.7281 170.188 20.5337L162.076 14.5593V98.526C162.076 111.584 158.865 122.118 152.29 130.505C153.985 126.072 154.891 120.876 154.982 114.948V20.0858L154.254 19.8823V19.3734L153.527 19.1698V18.661L152.799 18.4574V17.9485L152.071 17.7449V17.2361L151.349 17.0274V16.5185L150.621 16.3099V15.801L149.893 15.5924V15.0835L149.166 14.8799V14.371L148.438 14.1675V13.6586L147.71 13.455V12.9461L146.982 12.7426V12.2337L146.26 12.025V11.5162L145.532 11.3075V10.7986L144.804 10.59V10.0811L144.077 9.87753V9.36864L143.349 9.16509V8.6562L142.621 8.45265V7.94376L141.894 7.74019V7.2313L141.171 7.02267V6.51378L140.443 6.30514V5.79625L139.715 5.5876V5.07871L136.011 4.0304C116.898 -1.35382 96.6673 -1.34325 77.5598 4.06093L73.8602 5.11434V98.7295C73.8602 110.434 76.883 119.258 82.837 124.947L82.9693 125.065C83.1678 125.268 83.3611 125.477 83.5647 125.675L83.6919 125.792C83.8904 125.996 84.0888 126.204 84.2924 126.403L84.4196 126.52C84.6181 126.724 84.8165 126.932 85.0201 127.131L85.1473 127.248C85.3458 127.451 85.5392 127.66 85.7478 127.858L85.875 127.975C86.0735 128.179 86.2669 128.388 86.4755 128.586L86.6027 128.698C86.8012 128.902 86.9946 129.115 87.2032 129.309L87.3305 129.426C87.5289 129.629 87.7223 129.843 87.9259 130.036L88.0582 130.153C88.2566 130.357 88.45 130.566 88.6536 130.764L88.7808 130.881C88.9793 131.085 89.1777 131.293 89.3813 131.492L89.5085 131.609C89.707 131.812 89.9054 132.021 90.109 132.219L90.2362 132.337C90.4347 132.54 90.628 132.749 90.8367 132.947L90.9639 133.064C91.1624 133.268 91.3558 133.476 91.5644 133.675L91.6916 133.787C91.8901 133.99 92.0835 134.204 92.2921 134.398L92.4194 134.515C92.6178 134.718 92.8112 134.932 93.0147 135.125L93.1471 135.242C93.3455 135.446 93.5389 135.655 93.7425 135.853L93.8697 135.97C94.0681 136.174 94.2666 136.382 94.4702 136.581L94.5974 136.698C94.7958 136.901 94.9943 137.11 95.1979 137.308L95.3251 137.425C95.5236 137.629 95.7169 137.838 95.9256 138.036L96.0528 138.148C96.2513 138.357 96.4446 138.565 96.6533 138.764L96.7805 138.876C96.979 139.084 97.1724 139.293 97.381 139.486L97.5082 139.603C97.7067 139.807 97.9001 140.021 98.1036 140.214C103.233 145.12 110.012 147.914 118.296 148.56C114.5 149.074 110.672 149.327 106.841 149.318C93.5491 149.318 82.3535 146.57 73.4123 141.176C69.1784 133.919 67.0258 125.268 66.8986 114.938V29.826L66.176 30.3603V29.0881L65.4482 29.6224V28.3604L64.7205 28.8947V27.6327L63.9928 28.1416V26.8795L63.2651 27.3884V26.1874L62.5374 26.7268V25.4597L61.8097 25.9991V24.7371L61.0871 25.2714V23.9992L60.3594 24.5335V23.2715L59.6316 23.8058V22.5438L58.9039 23.0527V21.7906L58.1762 22.2995V21.0985L57.4485 21.6379V20.3708L56.7208 20.9102V19.6482L55.9982 20.1825V18.9103L55.2705 19.4446V18.1826L54.5427 18.7169V17.4549L53.815 17.9638V16.7017L53.0873 17.2106V16.0096L52.3596 16.5491V15.2819L51.6319 15.8213V14.5593L43.5253 20.5337C30.0222 30.4562 19.0455 43.419 11.4839 58.3727C3.92217 73.3263 -0.0119572 89.8504 2.72992e-05 106.607C-0.00727601 120.726 2.79172 134.707 8.23434 147.735C13.677 160.763 21.6547 172.58 31.7038 182.498L32.4315 183.22L33.1592 183.948L33.8869 184.676C34.1261 184.92 34.3704 185.185 34.6147 185.403L35.3475 186.131L36.0752 186.859L36.8029 187.587L37.5306 188.309L38.2583 189.037L38.986 189.765C39.2252 190.009 39.4695 190.274 39.7137 190.492L40.4363 191.22L41.1641 191.948L41.8918 192.676L42.6195 193.398L43.3472 194.126L44.0749 194.854C44.3141 195.098 44.5584 195.362 44.8026 195.581L45.5252 196.309L46.2478 197.037C56.1664 207.085 67.9831 215.063 81.0112 220.505C94.0393 225.948 108.019 228.747 122.138 228.74C181.068 228.74 229.005 180.798 229.005 121.874C228.997 104.833 224.924 88.039 217.123 72.8882Z" fill="#000102"/>
<path d="M208.634 106.607C208.634 162.814 163.068 208.385 106.856 208.385C50.6441 208.385 5.07815 162.814 5.07815 106.607C5.06758 90.6469 8.81589 74.9085 16.0196 60.6665C23.2232 46.4245 33.6798 34.0791 46.5424 24.6302V99.7066C46.7595 116.714 52.2742 130.082 63.0864 139.812C73.8986 149.542 88.4867 154.407 106.851 154.407C125.51 154.407 140.231 149.398 151.012 139.38C161.794 129.361 167.181 115.74 167.174 98.5158V24.6302C180.037 34.0788 190.493 46.4242 197.696 60.6664C204.899 74.9086 208.646 90.6471 208.634 106.607V106.607ZM106.856 128.352C125.091 128.352 134.353 118.766 134.641 99.5946V8.66637C116.435 3.53999 97.1647 3.55055 78.9637 8.6969V98.7295C78.9637 109.04 81.4335 116.554 86.3731 121.273C91.3128 125.992 98.1403 128.352 106.856 128.352Z" fill="#51698D"/>
</svg>
